0
SECTION
2
HEADER
9
$INSUNITS
70
4
9
$ACADVER
1
AC1014
9
$HANDSEED
5
FFFF
0
ENDSEC
0
SECTION
2
TABLES
0
TABLE
2
VPORT
5
8
100
AcDbSymbolTable
0
ENDTAB
0
TABLE
2
LTYPE
5
5
100
AcDbSymbolTable
0
LTYPE
5
14
100
AcDbSymbolTableRecord
100
AcDbLinetypeTableRecord
2
BYBLOCK
70
0
0
LTYPE
5
15
100
AcDbSymbolTableRecord
100
AcDbLinetypeTableRecord
2
BYLAYER
70
0
0
ENDTAB
0
TABLE
2
LAYER
5
2
100
AcDbSymbolTable
70
2
0
LAYER
5
50
100
AcDbSymbolTableRecord
100
AcDbLayerTableRecord
2
0
70
0
6
CONTINUOUS
0
ENDTAB
0
TABLE
2
STYLE
5
3
100
AcDbSymbolTable
70
1
0
STYLE
5
11
100
AcDbSymbolTableRecord
100
AcDbTextStyleTableRecord
2
STANDARD
70
0
0
ENDTAB
0
TABLE
2
VIEW
5
6
100
AcDbSymbolTable
70
0
0
ENDTAB
0
TABLE
2
UCS
5
7
100
AcDbSymbolTable
70
0
0
ENDTAB
0
TABLE
2
APPID
5
9
100
AcDbSymbolTable
70
2
0
APPID
5
12
100
AcDbSymbolTableRecord
100
AcDbRegAppTableRecord
2
ACAD
70
0
0
ENDTAB
0
TABLE
2
DIMSTYLE
5
A
100
AcDbSymbolTable
70
1
0
ENDTAB
0
TABLE
2
BLOCK_RECORD
5
1
100
AcDbSymbolTable
70
1
0
BLOCK_RECORD
5
1F
100
AcDbSymbolTableRecord
100
AcDbBlockTableRecord
2
*MODEL_SPACE
0
BLOCK_RECORD
5
1B
100
AcDbSymbolTableRecord
100
AcDbBlockTableRecord
2
*PAPER_SPACE
0
ENDTAB
0
ENDSEC
0
SECTION
2
BLOCKS
0
BLOCK
5
20
100
AcDbEntity
100
AcDbBlockBegin
2
*MODEL_SPACE
0
ENDBLK
5
21
100
AcDbEntity
100
AcDbBlockEnd
0
BLOCK
5
1C
100
AcDbEntity
100
AcDbBlockBegin
2
*PAPER_SPACE
0
ENDBLK
5
1D
100
AcDbEntity
100
AcDbBlockEnd
0
ENDSEC
0
SECTION
2
ENTITIES
0
CIRCLE
5
100
100
AcDbEntity
8
0
100
AcDbCircle
10
76.200000000000031
20
-116.74400850876715
30
0
40
1.9843749999999893
210
8.6361685550944446e-78
220
6.9517914767101587e-125
230
1
0
CIRCLE
5
101
100
AcDbEntity
8
0
100
AcDbCircle
10
-98.424999999999983
20
-12.553208508767133
30
0
40
2.0320000000000067
210
2.2861344140976273e-78
220
7.8886090522101198e-31
230
1
0
CIRCLE
5
102
100
AcDbEntity
8
0
100
AcDbCircle
10
1.7763568394002505e-14
20
-116.74400850876715
30
0
40
1.9843749999999982
210
-0
220
0
230
1
0
CIRCLE
5
103
100
AcDbEntity
8
0
100
AcDbCircle
10
98.551999999999992
20
-88.753208508767159
30
0
40
2.0320000000000067
210
2.2861344140976273e-78
220
7.8886090522101198e-31
230
1
0
CIRCLE
5
104
100
AcDbEntity
8
0
100
AcDbCircle
10
-98.424999999999997
20
-88.753208508767131
30
0
40
2.0320000000000067
210
2.2861344140976273e-78
220
7.8886090522101198e-31
230
1
0
CIRCLE
5
105
100
AcDbEntity
8
0
100
AcDbCircle
10
-76.200000000000003
20
-116.74400850876717
30
0
40
1.9843749999999982
210
-0
220
0
230
1
0
CIRCLE
5
106
100
AcDbEntity
8
0
100
AcDbCircle
10
98.552000000000035
20
-12.553208508767133
30
0
40
2.0320000000000067
210
2.2861344140976273e-78
220
7.8886090522101198e-31
230
1
0
CIRCLE
5
107
100
AcDbEntity
8
0
100
AcDbCircle
10
-76.200000000000017
20
-104.78600850886508
30
0
40
1.5000000000000036
210
-0
220
0
230
1
0
LWPOLYLINE
5
108
100
AcDbEntity
8
0
100
AcDbPolyline
90
4
70
1
43
0.0
10
-60.200000000000031
20
-112.2360085088239
10
-60.200000000000038
20
-97.336008508823909
10
-44.000000000000028
20
-97.336008508824392
10
-44.000000000000021
20
-112.23600850882441
0
LWPOLYLINE
5
109
100
AcDbEntity
8
0
100
AcDbPolyline
90
4
70
1
43
0.0
10
43.999999999999986
20
-112.23600850871136
10
43.999999999999986
20
-97.336008508711387
10
60.199999999999989
20
-97.336008508711387
10
60.199999999999989
20
-112.23600850871136
0
CIRCLE
5
110
100
AcDbEntity
8
0
100
AcDbCircle
10
-4.0056846728475648e-12
20
-104.78600850876762
30
0
40
1.4999999999999991
210
8.6361685550944446e-78
220
6.9517914767101587e-125
230
1
0
LWPOLYLINE
5
111
100
AcDbEntity
8
0
100
AcDbPolyline
90
4
70
1
43
0.0
10
-32.19999999999996
20
-112.23600850880882
10
-32.19999999999996
20
-97.336008508808831
10
-15.999999999999961
20
-97.336008508808817
10
-15.999999999999961
20
-112.23600850880879
0
LWPOLYLINE
5
112
100
AcDbEntity
8
0
100
AcDbPolyline
90
4
70
1
43
0.0
10
16.00000000000005
20
-112.23600850872646
10
16.00000000000005
20
-97.336008508726479
10
32.200000000000045
20
-97.336008508726977
10
32.200000000000031
20
-112.23600850872697
0
CIRCLE
5
113
100
AcDbEntity
8
0
100
AcDbCircle
10
76.199999999999989
20
-104.78600850867022
30
0
40
1.5000000000000036
210
-0
220
0
230
1
0
LWPOLYLINE
5
114
100
AcDbEntity
8
0
100
AcDbPolyline
90
8
70
1
43
0.0
10
-106
20
-121.65320850876716
42
0.4142135623730937
10
-102.00000000000001
20
-125.65320850876716
10
102.00000000000006
20
-125.65320850876716
42
0.41421356237309509
10
106.00000000000007
20
-121.65320850876714
10
106.00000000000006
20
20.34679149123285
42
0.41421356237309598
10
102.00000000000006
20
24.346791491232867
10
-102
20
24.346791491232871
42
0.4142135623730947
10
-106
20
20.346791491232885
0
CIRCLE
5
115
100
AcDbEntity
8
0
100
AcDbCircle
10
90.480000000000047
20
-68.88320850876714
30
0
40
1.5000000000000036
210
-0
220
0
230
1
0
CIRCLE
5
116
100
AcDbEntity
8
0
100
AcDbCircle
10
90.480000000000047
20
-3.2332085087671203
30
0
40
1.5000000000000036
210
-0
220
0
230
1
0
CIRCLE
5
117
100
AcDbEntity
8
0
100
AcDbCircle
10
-90.480000000000004
20
-3.2332085087671025
30
0
40
1.5000000000000036
210
-0
220
0
230
1
0
LWPOLYLINE
5
118
100
AcDbEntity
8
0
100
AcDbPolyline
90
4
70
1
43
0.0
10
-83.610000000000014
20
13.716791491232874
10
86.589999999999947
20
13.716791491232856
10
86.589999999999989
20
-90.883208508767154
10
-83.609999999999971
20
-90.883208508767154
0
CIRCLE
5
119
100
AcDbEntity
8
0
100
AcDbCircle
10
-90.480000000000004
20
-68.883208508767126
30
0
40
1.5000000000000036
210
-0
220
0
230
1
0
ENDSEC
0
SECTION
2
OBJECTS
0
DICTIONARY
5
C
100
AcDbDictionary
3
ACAD_GROUP
350
D
3
ACAD_MLINESTYLE
350
17
0
DICTIONARY
5
D
100
AcDbDictionary
0
DICTIONARY
5
1A
330
C
100
AcDbDictionary
0
DICTIONARY
5
17
100
AcDbDictionary
0
ENDSEC
0
EOF
