0
SECTION
2
HEADER
9
$INSUNITS
70
4
9
$ACADVER
1
AC1014
9
$HANDSEED
5
FFFF
0
ENDSEC
0
SECTION
2
TABLES
0
TABLE
2
VPORT
5
8
100
AcDbSymbolTable
0
ENDTAB
0
TABLE
2
LTYPE
5
5
100
AcDbSymbolTable
70
2
0
LTYPE
5
14
100
AcDbSymbolTableRecord
100
AcDbLinetypeTableRecord
2
BYBLOCK
70
0
0
LTYPE
5
15
100
AcDbSymbolTableRecord
100
AcDbLinetypeTableRecord
2
BYLAYER
70
0
0
ENDTAB
0
TABLE
2
LAYER
5
2
100
AcDbSymbolTable
70
3
0
LAYER
5
50
100
AcDbSymbolTableRecord
100
AcDbLayerTableRecord
2
0
70
0
6
CONTINUOUS
0
LAYER
5
51
100
AcDbSymbolTableRecord
100
AcDbLayerTableRecord
2
CUTOUTS
70
0
62
1
6
CONTINUOUS
0
LAYER
5
52
100
AcDbSymbolTableRecord
100
AcDbLayerTableRecord
2
PERIMETER
70
0
62
5
6
CONTINUOUS
0
ENDTAB
0
TABLE
2
STYLE
5
3
100
AcDbSymbolTable
70
1
0
STYLE
5
11
100
AcDbSymbolTableRecord
100
AcDbTextStyleTableRecord
2
STANDARD
70
0
0
ENDTAB
0
TABLE
2
VIEW
5
6
100
AcDbSymbolTable
0
ENDTAB
0
TABLE
2
UCS
5
7
100
AcDbSymbolTable
0
ENDTAB
0
TABLE
2
APPID
5
9
100
AcDbSymbolTable
70
1
0
APPID
5
12
100
AcDbSymbolTableRecord
100
AcDbRegAppTableRecord
2
ACAD
70
0
0
ENDTAB
0
TABLE
2
DIMSTYLE
5
A
100
AcDbSymbolTable
0
ENDTAB
0
TABLE
2
BLOCK_RECORD
5
1
100
AcDbSymbolTable
70
2
0
BLOCK_RECORD
5
1F
100
AcDbSymbolTableRecord
100
AcDbBlockTableRecord
2
*MODEL_SPACE
0
BLOCK_RECORD
5
1B
100
AcDbSymbolTableRecord
100
AcDbBlockTableRecord
2
*PAPER_SPACE
0
ENDTAB
0
ENDSEC
0
SECTION
2
BLOCKS
0
BLOCK
5
20
100
AcDbEntity
100
AcDbBlockBegin
2
*MODEL_SPACE
0
ENDBLK
5
21
100
AcDbEntity
100
AcDbBlockEnd
0
BLOCK
5
1C
100
AcDbEntity
100
AcDbBlockBegin
2
*PAPER_SPACE
0
ENDBLK
5
1D
100
AcDbEntity
100
AcDbBlockEnd
0
ENDSEC
0
SECTION
2
ENTITIES
0
CIRCLE
5
100
100
AcDbEntity
8
CUTOUTS
100
AcDbCircle
10
-98.488500000000002
20
65.962499999999991
30
0
40
1.5000000000000036
210
0
220
0
230
1
0
CIRCLE
5
101
100
AcDbEntity
8
CUTOUTS
100
AcDbCircle
10
-76.200000000000017
20
-66.662500000000051
30
0
40
1.5000000000000036
210
0
220
0
230
1
0
CIRCLE
5
102
100
AcDbEntity
8
CUTOUTS
100
AcDbCircle
10
76.200000000000017
20
-66.662500000000051
30
0
40
1.5000000000000036
210
0
220
0
230
1
0
CIRCLE
5
103
100
AcDbEntity
8
CUTOUTS
100
AcDbCircle
10
100.00002500000016
20
-29.275000000000087
30
0
40
1.5000000000000036
210
0
220
0
230
1
0
CIRCLE
5
104
100
AcDbEntity
8
CUTOUTS
100
AcDbCircle
10
5.5511151231257827e-16
20
-66.662500000000051
30
0
40
1.5000000000000002
210
0
220
0
230
1
0
CIRCLE
5
105
100
AcDbEntity
8
CUTOUTS
100
AcDbCircle
10
-102.37496250000022
20
-29.275000000000063
30
0
40
1.5000000000000036
210
0
220
0
230
1
0
CIRCLE
5
106
100
AcDbEntity
8
CUTOUTS
100
AcDbCircle
10
98.488500000000002
20
65.962499999999991
30
0
40
1.5000000000000036
210
0
220
0
230
1
0
CIRCLE
5
107
100
AcDbEntity
8
CUTOUTS
100
AcDbCircle
10
69.056249999999864
20
35.018749999999962
30
7.7715611723760958e-15
40
1.25
210
0
220
0
230
1
0
CIRCLE
5
108
100
AcDbEntity
8
CUTOUTS
100
AcDbCircle
10
-78.581250000000139
20
-22.131250000000065
30
-5.5511151231257827e-15
40
1.25
210
0
220
0
230
1
0
CIRCLE
5
109
100
AcDbEntity
8
CUTOUTS
100
AcDbCircle
10
-64.293750000000145
20
35.018749999999962
30
7.7715611723760958e-15
40
1.25
210
0
220
0
230
1
0
CIRCLE
5
10A
100
AcDbEntity
8
CUTOUTS
100
AcDbCircle
10
73.818749999999852
20
-22.131250000000065
30
-5.5511151231257827e-15
40
1.25
210
0
220
0
230
1
0
ARC
5
10B
100
AcDbEntity
8
CUTOUTS
100
AcDbCircle
10
76.200000000000031
20
65.962499999999963
30
0
40
6.1500000000000155
210
0
220
0
230
1
100
AcDbArc
50
-119.32397184647409
51
29.323971846474024
0
ARC
5
10C
100
AcDbEntity
8
CUTOUTS
100
AcDbCircle
10
79.735533905932769
20
69.498033905932701
30
0
40
1.9000000000000168
210
-0
220
0
230
1
100
AcDbArc
50
-15.996147924879732
51
105.99614792487982
0
ARC
5
10D
100
AcDbEntity
8
CUTOUTS
100
AcDbCircle
10
76.200000000000031
20
65.962499999999963
30
0
40
6.1500000000000004
210
0
220
-0
230
1
100
AcDbArc
50
60.676028153525898
51
209.32397184647397
0
ARC
5
10E
100
AcDbEntity
8
CUTOUTS
100
AcDbCircle
10
72.664466094067308
20
62.426966094067225
30
0
40
1.9000000000000217
210
0
220
0
230
1
100
AcDbArc
50
164.00385207511988
51
285.99614792487938
0
LINE
5
10F
100
AcDbEntity
8
CUTOUTS
100
AcDbLine
10
-29.460200000000142
20
72.111765134263933
30
0
11
-29.460200000000142
21
59.641765134263935
31
0
0
ARC
5
110
100
AcDbEntity
8
CUTOUTS
100
AcDbCircle
10
-29.860200000000141
20
59.641765134263935
30
0
40
0.40000000000000036
210
0
220
0
230
1
100
AcDbArc
50
-90
51
0
0
LINE
5
111
100
AcDbEntity
8
CUTOUTS
100
AcDbLine
10
-29.860200000000141
20
59.241765134263929
30
0
11
-81.440200000000175
21
59.241765134263915
31
0
0
ARC
5
112
100
AcDbEntity
8
CUTOUTS
100
AcDbCircle
10
-81.440200000000175
20
59.64176513426392
30
0
40
0.40000000000000924
210
0
220
0
230
1
100
AcDbArc
50
180
51
270
0
LINE
5
113
100
AcDbEntity
8
CUTOUTS
100
AcDbLine
10
-81.840200000000181
20
59.64176513426392
30
0
11
-81.840200000000181
21
72.111765134263933
31
0
0
ARC
5
114
100
AcDbEntity
8
CUTOUTS
100
AcDbCircle
10
-81.440200000000175
20
72.111765134263933
30
0
40
0.40000000000000036
210
0
220
-0
230
1
100
AcDbArc
50
90
51
180
0
LINE
5
115
100
AcDbEntity
8
CUTOUTS
100
AcDbLine
10
-81.440200000000175
20
72.511765134263925
30
0
11
-29.860200000000141
21
72.511765134263939
31
0
0
ARC
5
116
100
AcDbEntity
8
CUTOUTS
100
AcDbCircle
10
-29.860200000000141
20
72.111765134263933
30
0
40
0.40000000000000036
210
0
220
-0
230
1
100
AcDbArc
50
0
51
90
0
LINE
5
117
100
AcDbEntity
8
CUTOUTS
100
AcDbLine
10
-66.918700000000143
20
34.774999999999977
30
0
11
-66.918700000000143
21
20.974999999999966
31
0
0
LINE
5
118
100
AcDbEntity
8
CUTOUTS
100
AcDbLine
10
-66.918700000000143
20
20.974999999999966
30
0
11
-80.718700000000169
21
20.974999999999966
31
0
0
LINE
5
119
100
AcDbEntity
8
CUTOUTS
100
AcDbLine
10
-80.718700000000169
20
20.974999999999966
30
0
11
-80.718700000000169
21
34.774999999999977
31
0
0
LINE
5
11A
100
AcDbEntity
8
CUTOUTS
100
AcDbLine
10
-80.718700000000169
20
34.774999999999977
30
0
11
-66.918700000000143
21
34.774999999999977
31
0
0
LINE
5
11B
100
AcDbEntity
8
CUTOUTS
100
AcDbLine
10
9.2812999999998507
20
34.774999999999956
30
0
11
9.2812999999998507
21
20.974999999999959
31
0
0
LINE
5
11C
100
AcDbEntity
8
CUTOUTS
100
AcDbLine
10
9.2812999999998507
20
20.974999999999959
30
0
11
-4.5187000000001447
21
20.974999999999959
31
0
0
LINE
5
11D
100
AcDbEntity
8
CUTOUTS
100
AcDbLine
10
-4.5187000000001447
20
20.974999999999959
30
0
11
-4.5187000000001447
21
34.774999999999956
31
0
0
LINE
5
11E
100
AcDbEntity
8
CUTOUTS
100
AcDbLine
10
-4.5187000000001447
20
34.774999999999956
30
0
11
9.2812999999998507
21
34.774999999999956
31
0
0
LINE
5
11F
100
AcDbEntity
8
CUTOUTS
100
AcDbLine
10
-33.581200000000145
20
53.824999999999974
30
0
11
-33.581200000000145
21
40.024999999999963
31
0
0
LINE
5
120
100
AcDbEntity
8
CUTOUTS
100
AcDbLine
10
-33.581200000000145
20
40.024999999999963
30
0
11
-47.381200000000149
21
40.024999999999963
31
0
0
LINE
5
121
100
AcDbEntity
8
CUTOUTS
100
AcDbLine
10
-47.381200000000149
20
40.024999999999963
30
0
11
-47.381200000000149
21
53.824999999999974
31
0
0
LINE
5
122
100
AcDbEntity
8
CUTOUTS
100
AcDbLine
10
-47.381200000000149
20
53.824999999999974
30
0
11
-33.581200000000145
21
53.824999999999974
31
0
0
LINE
5
123
100
AcDbEntity
8
CUTOUTS
100
AcDbLine
10
-52.631200000000135
20
53.82499999999996
30
0
11
-52.631200000000135
21
40.024999999999942
31
0
0
LINE
5
124
100
AcDbEntity
8
CUTOUTS
100
AcDbLine
10
-52.631200000000135
20
40.024999999999942
30
0
11
-66.431200000000132
21
40.024999999999942
31
0
0
LINE
5
125
100
AcDbEntity
8
CUTOUTS
100
AcDbLine
10
-66.431200000000132
20
40.024999999999942
30
0
11
-66.431200000000132
21
53.824999999999946
31
0
0
LINE
5
126
100
AcDbEntity
8
CUTOUTS
100
AcDbLine
10
-66.431200000000132
20
53.824999999999946
30
0
11
-52.631200000000135
21
53.82499999999996
31
0
0
LINE
5
127
100
AcDbEntity
8
CUTOUTS
100
AcDbLine
10
4.5187999999998656
20
53.824999999999967
30
0
11
4.5187999999998656
21
40.024999999999963
31
0
0
LINE
5
128
100
AcDbEntity
8
CUTOUTS
100
AcDbLine
10
4.5187999999998656
20
40.024999999999963
30
0
11
-9.2812000000001387
21
40.024999999999963
31
0
0
LINE
5
129
100
AcDbEntity
8
CUTOUTS
100
AcDbLine
10
-9.2812000000001387
20
40.024999999999963
30
0
11
-9.2812000000001387
21
53.824999999999967
31
0
0
LINE
5
12A
100
AcDbEntity
8
CUTOUTS
100
AcDbLine
10
-9.2812000000001387
20
53.824999999999967
30
0
11
4.5187999999998656
21
53.824999999999967
31
0
0
LINE
5
12B
100
AcDbEntity
8
CUTOUTS
100
AcDbLine
10
85.481299999999848
20
-3.3250000000000615
30
0
11
85.481299999999877
21
-17.125000000000064
31
0
0
LINE
5
12C
100
AcDbEntity
8
CUTOUTS
100
AcDbLine
10
85.481299999999877
20
-17.125000000000064
30
0
11
71.681299999999851
21
-17.125000000000064
31
0
0
LINE
5
12D
100
AcDbEntity
8
CUTOUTS
100
AcDbLine
10
71.681299999999851
20
-17.125000000000064
30
0
11
71.681299999999851
21
-3.3250000000000601
31
0
0
LINE
5
12E
100
AcDbEntity
8
CUTOUTS
100
AcDbLine
10
71.681299999999851
20
-3.3250000000000615
30
0
11
85.481299999999848
21
-3.3250000000000615
31
0
0
LINE
5
12F
100
AcDbEntity
8
CUTOUTS
100
AcDbLine
10
-104.53120000000013
20
-55.22500000000008
30
0
11
-104.53120000000013
21
-41.425000000000061
31
0
0
LINE
5
130
100
AcDbEntity
8
CUTOUTS
100
AcDbLine
10
-104.53120000000013
20
-41.425000000000061
30
0
11
-90.731200000000143
21
-41.425000000000068
31
0
0
LINE
5
131
100
AcDbEntity
8
CUTOUTS
100
AcDbLine
10
-90.731200000000143
20
-41.425000000000068
30
0
11
-90.731200000000143
21
-55.22500000000008
31
0
0
LINE
5
132
100
AcDbEntity
8
CUTOUTS
100
AcDbLine
10
-90.731200000000143
20
-55.22500000000008
30
0
11
-104.53120000000013
21
-55.22500000000008
31
0
0
LINE
5
133
100
AcDbEntity
8
CUTOUTS
100
AcDbLine
10
-28.331200000000145
20
-55.22500000000008
30
0
11
-28.331200000000134
21
-41.425000000000068
31
0
0
LINE
5
134
100
AcDbEntity
8
CUTOUTS
100
AcDbLine
10
-28.331200000000134
20
-41.425000000000068
30
0
11
-14.531200000000137
21
-41.425000000000061
31
0
0
LINE
5
135
100
AcDbEntity
8
CUTOUTS
100
AcDbLine
10
-14.531200000000137
20
-41.425000000000061
30
0
11
-14.531200000000137
21
-55.225000000000072
31
0
0
LINE
5
136
100
AcDbEntity
8
CUTOUTS
100
AcDbLine
10
-14.531200000000137
20
-55.225000000000072
30
0
11
-28.331200000000145
21
-55.22500000000008
31
0
0
LINE
5
137
100
AcDbEntity
8
CUTOUTS
100
AcDbLine
10
-66.43120000000016
20
-55.225000000000087
30
0
11
-66.43120000000016
21
-41.42500000000009
31
0
0
LINE
5
138
100
AcDbEntity
8
CUTOUTS
100
AcDbLine
10
-66.43120000000016
20
-41.42500000000009
30
0
11
-52.631200000000149
21
-41.42500000000009
31
0
0
LINE
5
139
100
AcDbEntity
8
CUTOUTS
100
AcDbLine
10
-52.631200000000149
20
-41.42500000000009
30
0
11
-52.631200000000149
21
-55.225000000000087
31
0
0
LINE
5
13A
100
AcDbEntity
8
CUTOUTS
100
AcDbLine
10
-52.631200000000149
20
-55.225000000000087
30
0
11
-66.43120000000016
21
-55.225000000000087
31
0
0
LINE
5
13B
100
AcDbEntity
8
CUTOUTS
100
AcDbLine
10
-47.381200000000163
20
-55.225000000000072
30
0
11
-47.381200000000163
21
-41.425000000000068
31
0
0
LINE
5
13C
100
AcDbEntity
8
CUTOUTS
100
AcDbLine
10
-47.381200000000163
20
-41.425000000000068
30
0
11
-33.581200000000145
21
-41.425000000000061
31
0
0
LINE
5
13D
100
AcDbEntity
8
CUTOUTS
100
AcDbLine
10
-33.581200000000145
20
-41.425000000000061
30
0
11
-33.581200000000152
21
-55.225000000000072
31
0
0
LINE
5
13E
100
AcDbEntity
8
CUTOUTS
100
AcDbLine
10
-33.581200000000152
20
-55.225000000000072
30
0
11
-47.381200000000163
21
-55.225000000000072
31
0
0
LINE
5
13F
100
AcDbEntity
8
CUTOUTS
100
AcDbLine
10
80.718799999999845
20
53.82499999999996
30
0
11
80.718799999999845
21
40.024999999999963
31
0
0
LINE
5
140
100
AcDbEntity
8
CUTOUTS
100
AcDbLine
10
80.718799999999845
20
40.024999999999963
30
0
11
66.918799999999848
21
40.024999999999963
31
0
0
LINE
5
141
100
AcDbEntity
8
CUTOUTS
100
AcDbLine
10
66.918799999999848
20
40.024999999999963
30
0
11
66.918799999999848
21
53.82499999999996
31
0
0
LINE
5
142
100
AcDbEntity
8
CUTOUTS
100
AcDbLine
10
66.918799999999848
20
53.82499999999996
30
0
11
80.718799999999845
21
53.82499999999996
31
0
0
LINE
5
143
100
AcDbEntity
8
CUTOUTS
100
AcDbLine
10
61.668799999999862
20
-41.425000000000068
30
0
11
61.668799999999862
21
-55.22500000000008
31
0
0
LINE
5
144
100
AcDbEntity
8
CUTOUTS
100
AcDbLine
10
61.668799999999862
20
-55.22500000000008
30
0
11
47.868799999999837
21
-55.22500000000008
31
0
0
LINE
5
145
100
AcDbEntity
8
CUTOUTS
100
AcDbLine
10
47.868799999999837
20
-55.22500000000008
30
0
11
47.868799999999837
21
-41.425000000000068
31
0
0
LINE
5
146
100
AcDbEntity
8
CUTOUTS
100
AcDbLine
10
47.868799999999837
20
-41.425000000000068
30
0
11
61.668799999999862
21
-41.425000000000068
31
0
0
LINE
5
147
100
AcDbEntity
8
CUTOUTS
100
AcDbLine
10
42.618799999999851
20
-41.425000000000068
30
0
11
42.618799999999851
21
-55.22500000000008
31
0
0
LINE
5
148
100
AcDbEntity
8
CUTOUTS
100
AcDbLine
10
42.618799999999851
20
-55.22500000000008
30
0
11
28.818799999999847
21
-55.22500000000008
31
0
0
LINE
5
149
100
AcDbEntity
8
CUTOUTS
100
AcDbLine
10
28.818799999999847
20
-55.22500000000008
30
0
11
28.818799999999847
21
-41.425000000000068
31
0
0
LINE
5
14A
100
AcDbEntity
8
CUTOUTS
100
AcDbLine
10
28.818799999999847
20
-41.425000000000068
30
0
11
42.618799999999851
21
-41.425000000000068
31
0
0
LINE
5
14B
100
AcDbEntity
8
CUTOUTS
100
AcDbLine
10
-81.206200000000109
20
-22.375000000000025
30
0
11
-81.206200000000109
21
-36.175000000000033
31
0
0
LINE
5
14C
100
AcDbEntity
8
CUTOUTS
100
AcDbLine
10
-81.206200000000109
20
-36.175000000000033
30
0
11
-95.006200000000121
21
-36.175000000000033
31
0
0
LINE
5
14D
100
AcDbEntity
8
CUTOUTS
100
AcDbLine
10
-95.006200000000121
20
-36.175000000000033
30
0
11
-95.006200000000121
21
-22.375000000000025
31
0
0
LINE
5
14E
100
AcDbEntity
8
CUTOUTS
100
AcDbLine
10
-95.006200000000121
20
-22.375000000000025
30
0
11
-81.206200000000109
21
-22.375000000000025
31
0
0
LINE
5
14F
100
AcDbEntity
8
CUTOUTS
100
AcDbLine
10
-62.15620000000014
20
-22.375000000000078
30
0
11
-62.156200000000148
21
-36.175000000000082
31
0
0
LINE
5
150
100
AcDbEntity
8
CUTOUTS
100
AcDbLine
10
-62.156200000000148
20
-36.175000000000082
30
0
11
-75.956200000000138
21
-36.175000000000082
31
0
0
LINE
5
151
100
AcDbEntity
8
CUTOUTS
100
AcDbLine
10
-75.956200000000138
20
-36.175000000000082
30
0
11
-75.956200000000138
21
-22.375000000000078
31
0
0
LINE
5
152
100
AcDbEntity
8
CUTOUTS
100
AcDbLine
10
-75.956200000000138
20
-22.375000000000078
30
0
11
-62.15620000000014
21
-22.375000000000078
31
0
0
LINE
5
153
100
AcDbEntity
8
CUTOUTS
100
AcDbLine
10
-37.856200000000143
20
-36.175000000000068
30
0
11
-37.85620000000015
21
-22.375000000000071
31
0
0
LINE
5
154
100
AcDbEntity
8
CUTOUTS
100
AcDbLine
10
-37.85620000000015
20
-22.375000000000071
30
0
11
-24.056200000000132
21
-22.375000000000071
31
0
0
LINE
5
155
100
AcDbEntity
8
CUTOUTS
100
AcDbLine
10
-24.056200000000132
20
-22.375000000000071
30
0
11
-24.056200000000132
21
-36.175000000000068
31
0
0
LINE
5
156
100
AcDbEntity
8
CUTOUTS
100
AcDbLine
10
-24.056200000000132
20
-36.175000000000068
30
0
11
-37.856200000000143
21
-36.175000000000068
31
0
0
LINE
5
157
100
AcDbEntity
8
CUTOUTS
100
AcDbLine
10
85.968799999999831
20
53.824999999999974
30
0
11
99.768799999999857
21
53.824999999999974
31
0
0
LINE
5
158
100
AcDbEntity
8
CUTOUTS
100
AcDbLine
10
99.768799999999857
20
53.824999999999974
30
0
11
99.768799999999857
21
40.024999999999963
31
0
0
LINE
5
159
100
AcDbEntity
8
CUTOUTS
100
AcDbLine
10
99.768799999999857
20
40.024999999999963
30
0
11
85.968799999999831
21
40.024999999999963
31
0
0
LINE
5
15A
100
AcDbEntity
8
CUTOUTS
100
AcDbLine
10
85.968799999999831
20
40.024999999999963
30
0
11
85.968799999999831
21
53.824999999999967
31
0
0
LINE
5
15B
100
AcDbEntity
8
CUTOUTS
100
AcDbLine
10
99.768799999999857
20
15.724999999999964
30
0
11
99.768799999999857
21
1.924999999999959
31
0
0
LINE
5
15C
100
AcDbEntity
8
CUTOUTS
100
AcDbLine
10
99.768799999999857
20
1.9249999999999585
30
0
11
85.96879999999986
21
1.9249999999999585
31
0
0
LINE
5
15D
100
AcDbEntity
8
CUTOUTS
100
AcDbLine
10
85.96879999999986
20
1.9249999999999585
30
0
11
85.96879999999986
21
15.724999999999964
31
0
0
LINE
5
15E
100
AcDbEntity
8
CUTOUTS
100
AcDbLine
10
85.96879999999986
20
15.724999999999964
30
0
11
99.768799999999857
21
15.724999999999964
31
0
0
LINE
5
15F
100
AcDbEntity
8
CUTOUTS
100
AcDbLine
10
-56.90620000000014
20
-36.175000000000061
30
0
11
-56.906200000000155
21
-22.375000000000071
31
0
0
LINE
5
160
100
AcDbEntity
8
CUTOUTS
100
AcDbLine
10
-56.906200000000155
20
-22.375000000000071
30
0
11
-43.106200000000136
21
-22.375000000000071
31
0
0
LINE
5
161
100
AcDbEntity
8
CUTOUTS
100
AcDbLine
10
-43.106200000000136
20
-22.375000000000071
30
0
11
-43.106200000000136
21
-36.175000000000061
31
0
0
LINE
5
162
100
AcDbEntity
8
CUTOUTS
100
AcDbLine
10
-43.106200000000136
20
-36.175000000000061
30
0
11
-56.90620000000014
21
-36.175000000000061
31
0
0
LINE
5
163
100
AcDbEntity
8
CUTOUTS
100
AcDbLine
10
0.2437999999998674
20
-22.37500000000006
30
0
11
14.043799999999871
21
-22.37500000000005
31
0
0
LINE
5
164
100
AcDbEntity
8
CUTOUTS
100
AcDbLine
10
14.043799999999871
20
-22.37500000000005
30
0
11
14.043799999999871
21
-36.175000000000068
31
0
0
LINE
5
165
100
AcDbEntity
8
CUTOUTS
100
AcDbLine
10
14.043799999999871
20
-36.175000000000068
30
0
11
0.24379999999986746
21
-36.175000000000068
31
0
0
LINE
5
166
100
AcDbEntity
8
CUTOUTS
100
AcDbLine
10
0.24379999999986746
20
-36.175000000000068
30
0
11
0.2437999999998674
21
-22.37500000000006
31
0
0
LINE
5
167
100
AcDbEntity
8
CUTOUTS
100
AcDbLine
10
-5.0062000000001401
20
-22.375000000000078
30
0
11
-5.0062000000001401
21
-36.175000000000075
31
0
0
LINE
5
168
100
AcDbEntity
8
CUTOUTS
100
AcDbLine
10
-5.0062000000001401
20
-36.175000000000075
30
0
11
-18.806200000000143
21
-36.175000000000082
31
0
0
LINE
5
169
100
AcDbEntity
8
CUTOUTS
100
AcDbLine
10
-18.806200000000143
20
-36.175000000000082
30
0
11
-18.806200000000143
21
-22.375000000000078
31
0
0
LINE
5
16A
100
AcDbEntity
8
CUTOUTS
100
AcDbLine
10
-18.806200000000143
20
-22.375000000000078
30
0
11
-5.0062000000001401
21
-22.375000000000078
31
0
0
LINE
5
16B
100
AcDbEntity
8
CUTOUTS
100
AcDbLine
10
-85.481200000000143
20
-55.225000000000087
30
0
11
-85.481200000000143
21
-41.425000000000082
31
0
0
LINE
5
16C
100
AcDbEntity
8
CUTOUTS
100
AcDbLine
10
-85.481200000000143
20
-41.425000000000082
30
0
11
-71.681200000000132
21
-41.42500000000009
31
0
0
LINE
5
16D
100
AcDbEntity
8
CUTOUTS
100
AcDbLine
10
-71.681200000000132
20
-41.42500000000009
30
0
11
-71.681200000000132
21
-55.225000000000087
31
0
0
LINE
5
16E
100
AcDbEntity
8
CUTOUTS
100
AcDbLine
10
-71.681200000000132
20
-55.225000000000087
30
0
11
-85.481200000000143
21
-55.225000000000087
31
0
0
LINE
5
16F
100
AcDbEntity
8
CUTOUTS
100
AcDbLine
10
-28.818700000000142
20
-3.325000000000057
30
0
11
-28.818700000000135
21
-17.125000000000075
31
0
0
LINE
5
170
100
AcDbEntity
8
CUTOUTS
100
AcDbLine
10
-28.818700000000135
20
-17.125000000000075
30
0
11
-42.618700000000146
21
-17.125000000000075
31
0
0
LINE
5
171
100
AcDbEntity
8
CUTOUTS
100
AcDbLine
10
-42.618700000000146
20
-17.125000000000075
30
0
11
-42.618700000000146
21
-3.3250000000000557
31
0
0
LINE
5
172
100
AcDbEntity
8
CUTOUTS
100
AcDbLine
10
-42.618700000000146
20
-3.325000000000057
30
0
11
-28.818700000000142
21
-3.325000000000057
31
0
0
LINE
5
173
100
AcDbEntity
8
CUTOUTS
100
AcDbLine
10
33.093799999999867
20
-22.37500000000006
30
0
11
33.093799999999845
21
-36.175000000000068
31
0
0
LINE
5
174
100
AcDbEntity
8
CUTOUTS
100
AcDbLine
10
33.093799999999845
20
-36.175000000000068
30
0
11
19.293799999999845
21
-36.175000000000061
31
0
0
LINE
5
175
100
AcDbEntity
8
CUTOUTS
100
AcDbLine
10
19.293799999999845
20
-36.175000000000061
30
0
11
19.293799999999845
21
-22.37500000000005
31
0
0
LINE
5
176
100
AcDbEntity
8
CUTOUTS
100
AcDbLine
10
19.293799999999845
20
-22.37500000000005
30
0
11
33.093799999999867
21
-22.37500000000006
31
0
0
LINE
5
177
100
AcDbEntity
8
CUTOUTS
100
AcDbLine
10
66.918799999999834
20
-41.425000000000068
30
0
11
80.718799999999845
21
-41.425000000000068
31
0
0
LINE
5
178
100
AcDbEntity
8
CUTOUTS
100
AcDbLine
10
80.718799999999845
20
-41.425000000000068
30
0
11
80.718799999999845
21
-55.22500000000008
31
0
0
LINE
5
179
100
AcDbEntity
8
CUTOUTS
100
AcDbLine
10
80.718799999999845
20
-55.22500000000008
30
0
11
66.918799999999848
21
-55.22500000000008
31
0
0
LINE
5
17A
100
AcDbEntity
8
CUTOUTS
100
AcDbLine
10
66.918799999999848
20
-55.22500000000008
30
0
11
66.918799999999834
21
-41.425000000000068
31
0
0
LINE
5
17B
100
AcDbEntity
8
CUTOUTS
100
AcDbLine
10
99.768799999999857
20
-41.425000000000097
30
0
11
99.768799999999857
21
-55.225000000000108
31
0
0
LINE
5
17C
100
AcDbEntity
8
CUTOUTS
100
AcDbLine
10
99.768799999999857
20
-55.225000000000108
30
0
11
85.96879999999986
21
-55.225000000000108
31
0
0
LINE
5
17D
100
AcDbEntity
8
CUTOUTS
100
AcDbLine
10
85.96879999999986
20
-55.225000000000108
30
0
11
85.96879999999986
21
-41.425000000000097
31
0
0
LINE
5
17E
100
AcDbEntity
8
CUTOUTS
100
AcDbLine
10
85.96879999999986
20
-41.425000000000097
30
0
11
99.768799999999857
21
-41.425000000000097
31
0
0
LINE
5
17F
100
AcDbEntity
8
CUTOUTS
100
AcDbLine
10
104.53129999999986
20
-3.3250000000000703
30
0
11
104.53129999999986
21
-17.125000000000075
31
0
0
LINE
5
180
100
AcDbEntity
8
CUTOUTS
100
AcDbLine
10
104.53129999999986
20
-17.125000000000075
30
0
11
90.731299999999862
21
-17.125000000000075
31
0
0
LINE
5
181
100
AcDbEntity
8
CUTOUTS
100
AcDbLine
10
90.731299999999862
20
-17.125000000000075
30
0
11
90.731299999999862
21
-3.325000000000069
31
0
0
LINE
5
182
100
AcDbEntity
8
CUTOUTS
100
AcDbLine
10
90.731299999999862
20
-3.3250000000000703
30
0
11
104.53129999999986
21
-3.3250000000000703
31
0
0
LINE
5
183
100
AcDbEntity
8
CUTOUTS
100
AcDbLine
10
23.568800000000412
20
15.7250000000064
30
0
11
23.568800000000412
21
1.9250000000063983
31
0
0
LINE
5
184
100
AcDbEntity
8
CUTOUTS
100
AcDbLine
10
23.568800000000412
20
1.9250000000063978
30
0
11
9.7688000000004234
21
1.9250000000063978
31
0
0
LINE
5
185
100
AcDbEntity
8
CUTOUTS
100
AcDbLine
10
9.7688000000004234
20
1.9250000000063978
30
0
11
9.7688000000004234
21
15.7250000000064
31
0
0
LINE
5
186
100
AcDbEntity
8
CUTOUTS
100
AcDbLine
10
9.7688000000004234
20
15.7250000000064
30
0
11
23.568800000000412
21
15.7250000000064
31
0
0
LINE
5
187
100
AcDbEntity
8
CUTOUTS
100
AcDbLine
10
-4.5187000000001358
20
-17.125000000000057
30
0
11
-4.5187000000001358
21
-3.3250000000000535
31
0
0
LINE
5
188
100
AcDbEntity
8
CUTOUTS
100
AcDbLine
10
-4.5187000000001358
20
-3.3250000000000544
30
0
11
9.2812999999998684
21
-3.3250000000000544
31
0
0
LINE
5
189
100
AcDbEntity
8
CUTOUTS
100
AcDbLine
10
9.2812999999998684
20
-3.3250000000000544
30
0
11
9.2812999999998684
21
-17.125000000000057
31
0
0
LINE
5
18A
100
AcDbEntity
8
CUTOUTS
100
AcDbLine
10
9.2812999999998684
20
-17.125000000000057
30
0
11
-4.5187000000001358
21
-17.125000000000057
31
0
0
LINE
5
18B
100
AcDbEntity
8
CUTOUTS
100
AcDbLine
10
-66.918700000000143
20
-3.3250000000000259
30
0
11
-66.918700000000143
21
-17.125000000000028
31
0
0
LINE
5
18C
100
AcDbEntity
8
CUTOUTS
100
AcDbLine
10
-66.918700000000143
20
-17.125000000000028
30
0
11
-80.718700000000155
21
-17.125000000000039
31
0
0
LINE
5
18D
100
AcDbEntity
8
CUTOUTS
100
AcDbLine
10
-80.718700000000155
20
-17.125000000000039
30
0
11
-80.718700000000155
21
-3.3250000000000246
31
0
0
LINE
5
18E
100
AcDbEntity
8
CUTOUTS
100
AcDbLine
10
-80.718700000000155
20
-3.3250000000000259
30
0
11
-66.918700000000143
21
-3.3250000000000259
31
0
0
LINE
5
18F
100
AcDbEntity
8
CUTOUTS
100
AcDbLine
10
4.5188000000023703
20
15.725000000006141
30
0
11
4.5188000000023703
21
1.9250000000061385
31
0
0
LINE
5
190
100
AcDbEntity
8
CUTOUTS
100
AcDbLine
10
4.5188000000023703
20
1.925000000006138
30
0
11
-9.281199999997634
21
1.925000000006138
31
0
0
LINE
5
191
100
AcDbEntity
8
CUTOUTS
100
AcDbLine
10
-9.281199999997634
20
1.925000000006138
30
0
11
-9.281199999997634
21
15.725000000006142
31
0
0
LINE
5
192
100
AcDbEntity
8
CUTOUTS
100
AcDbLine
10
-9.281199999997634
20
15.725000000006142
30
0
11
4.5188000000023703
21
15.725000000006141
31
0
0
LINE
5
193
100
AcDbEntity
8
CUTOUTS
100
AcDbLine
10
-23.568700000000142
20
-3.3250000000000259
30
0
11
-9.7687000000001323
21
-3.3250000000000259
31
0
0
LINE
5
194
100
AcDbEntity
8
CUTOUTS
100
AcDbLine
10
-9.7687000000001323
20
-3.3250000000000259
30
0
11
-9.7687000000001323
21
-17.125000000000028
31
0
0
LINE
5
195
100
AcDbEntity
8
CUTOUTS
100
AcDbLine
10
-9.7687000000001323
20
-17.125000000000028
30
0
11
-23.568700000000142
21
-17.125000000000028
31
0
0
LINE
5
196
100
AcDbEntity
8
CUTOUTS
100
AcDbLine
10
-23.568700000000142
20
-17.125000000000028
30
0
11
-23.568700000000142
21
-3.3250000000000246
31
0
0
LINE
5
197
100
AcDbEntity
8
CUTOUTS
100
AcDbLine
10
-47.868700000000146
20
-3.3250000000000615
30
0
11
-47.868700000000146
21
-17.125000000000075
31
0
0
LINE
5
198
100
AcDbEntity
8
CUTOUTS
100
AcDbLine
10
-47.868700000000146
20
-17.125000000000075
30
0
11
-61.668700000000158
21
-17.125000000000064
31
0
0
LINE
5
199
100
AcDbEntity
8
CUTOUTS
100
AcDbLine
10
-61.668700000000158
20
-17.125000000000064
30
0
11
-61.668700000000143
21
-3.3250000000000601
31
0
0
LINE
5
19A
100
AcDbEntity
8
CUTOUTS
100
AcDbLine
10
-61.668700000000143
20
-3.3250000000000615
30
0
11
-47.868700000000146
21
-3.3250000000000615
31
0
0
LINE
5
19B
100
AcDbEntity
8
CUTOUTS
100
AcDbLine
10
-71.681200000000118
20
15.724999999999948
30
0
11
-71.681200000000118
21
1.924999999999939
31
0
0
LINE
5
19C
100
AcDbEntity
8
CUTOUTS
100
AcDbLine
10
-71.681200000000118
20
1.9249999999999385
30
0
11
-85.481200000000129
21
1.9249999999999385
31
0
0
LINE
5
19D
100
AcDbEntity
8
CUTOUTS
100
AcDbLine
10
-85.481200000000129
20
1.9249999999999385
30
0
11
-85.481200000000115
21
15.724999999999946
31
0
0
LINE
5
19E
100
AcDbEntity
8
CUTOUTS
100
AcDbLine
10
-85.481200000000115
20
15.724999999999946
30
0
11
-71.681200000000118
21
15.724999999999948
31
0
0
LINE
5
19F
100
AcDbEntity
8
CUTOUTS
100
AcDbLine
10
-90.731200000000143
20
15.724999999999964
30
0
11
-90.731200000000143
21
1.924999999999959
31
0
0
LINE
5
1A0
100
AcDbEntity
8
CUTOUTS
100
AcDbLine
10
-90.731200000000143
20
1.9249999999999585
30
0
11
-104.53120000000013
21
1.9249999999999607
31
0
0
LINE
5
1A1
100
AcDbEntity
8
CUTOUTS
100
AcDbLine
10
-104.53120000000013
20
1.9249999999999607
30
0
11
-104.53120000000014
21
15.724999999999964
31
0
0
LINE
5
1A2
100
AcDbEntity
8
CUTOUTS
100
AcDbLine
10
-104.53120000000014
20
15.724999999999964
30
0
11
-90.731200000000143
21
15.724999999999964
31
0
0
LINE
5
1A3
100
AcDbEntity
8
CUTOUTS
100
AcDbLine
10
-14.531200000000144
20
15.724999999999952
30
0
11
-14.531200000000144
21
1.9249999999999456
31
0
0
LINE
5
1A4
100
AcDbEntity
8
CUTOUTS
100
AcDbLine
10
-14.531200000000144
20
1.9249999999999452
30
0
11
-28.331200000000152
21
1.9249999999999474
31
0
0
LINE
5
1A5
100
AcDbEntity
8
CUTOUTS
100
AcDbLine
10
-28.331200000000152
20
1.9249999999999474
30
0
11
-28.331200000000152
21
15.724999999999952
31
0
0
LINE
5
1A6
100
AcDbEntity
8
CUTOUTS
100
AcDbLine
10
-28.331200000000152
20
15.724999999999952
30
0
11
-14.531200000000144
21
15.724999999999952
31
0
0
LINE
5
1A7
100
AcDbEntity
8
CUTOUTS
100
AcDbLine
10
47.381299999999854
20
-3.3250000000000481
30
0
11
47.381299999999854
21
-17.125000000000057
31
0
0
LINE
5
1A8
100
AcDbEntity
8
CUTOUTS
100
AcDbLine
10
47.381299999999854
20
-17.125000000000057
30
0
11
33.58129999999985
21
-17.125000000000057
31
0
0
LINE
5
1A9
100
AcDbEntity
8
CUTOUTS
100
AcDbLine
10
33.58129999999985
20
-17.125000000000057
30
0
11
33.58129999999985
21
-3.3250000000000468
31
0
0
LINE
5
1AA
100
AcDbEntity
8
CUTOUTS
100
AcDbLine
10
33.58129999999985
20
-3.3250000000000481
30
0
11
47.381299999999854
21
-3.3250000000000481
31
0
0
LINE
5
1AB
100
AcDbEntity
8
CUTOUTS
100
AcDbLine
10
-85.968700000000155
20
-3.325000000000057
30
0
11
-85.968700000000155
21
-17.125000000000064
31
0
0
LINE
5
1AC
100
AcDbEntity
8
CUTOUTS
100
AcDbLine
10
-85.968700000000155
20
-17.125000000000064
30
0
11
-99.768700000000166
21
-17.125000000000064
31
0
0
LINE
5
1AD
100
AcDbEntity
8
CUTOUTS
100
AcDbLine
10
-99.768700000000166
20
-17.125000000000064
30
0
11
-99.768700000000166
21
-3.3250000000000557
31
0
0
LINE
5
1AE
100
AcDbEntity
8
CUTOUTS
100
AcDbLine
10
-99.768700000000166
20
-3.325000000000057
30
0
11
-85.968700000000155
21
-3.325000000000057
31
0
0
LINE
5
1AF
100
AcDbEntity
8
CUTOUTS
100
AcDbLine
10
14.531299999999858
20
-17.125000000000064
30
0
11
14.531299999999858
21
-3.3250000000000579
31
0
0
LINE
5
1B0
100
AcDbEntity
8
CUTOUTS
100
AcDbLine
10
14.531299999999858
20
-3.3250000000000588
30
0
11
28.331299999999864
21
-3.3250000000000588
31
0
0
LINE
5
1B1
100
AcDbEntity
8
CUTOUTS
100
AcDbLine
10
28.331299999999864
20
-3.3250000000000588
30
0
11
28.331299999999864
21
-17.125000000000064
31
0
0
LINE
5
1B2
100
AcDbEntity
8
CUTOUTS
100
AcDbLine
10
28.331299999999864
20
-17.125000000000064
30
0
11
14.531299999999858
21
-17.125000000000064
31
0
0
LINE
5
1B3
100
AcDbEntity
8
CUTOUTS
100
AcDbLine
10
-52.631200000000142
20
15.724999999999948
30
0
11
-52.631200000000135
21
1.9249999999999434
31
0
0
LINE
5
1B4
100
AcDbEntity
8
CUTOUTS
100
AcDbLine
10
-52.631200000000135
20
1.924999999999943
30
0
11
-66.431200000000132
21
1.9249999999999452
31
0
0
LINE
5
1B5
100
AcDbEntity
8
CUTOUTS
100
AcDbLine
10
-66.431200000000132
20
1.9249999999999452
30
0
11
-66.431200000000132
21
15.724999999999948
31
0
0
LINE
5
1B6
100
AcDbEntity
8
CUTOUTS
100
AcDbLine
10
-66.431200000000132
20
15.724999999999948
30
0
11
-52.631200000000142
21
15.724999999999948
31
0
0
LINE
5
1B7
100
AcDbEntity
8
CUTOUTS
100
AcDbLine
10
61.668799999999862
20
15.724999999999946
30
0
11
61.668799999999862
21
1.924999999999939
31
0
0
LINE
5
1B8
100
AcDbEntity
8
CUTOUTS
100
AcDbLine
10
61.668799999999862
20
1.9249999999999385
30
0
11
47.868799999999858
21
1.9249999999999408
31
0
0
LINE
5
1B9
100
AcDbEntity
8
CUTOUTS
100
AcDbLine
10
47.868799999999858
20
1.9249999999999408
30
0
11
47.868799999999858
21
15.724999999999945
31
0
0
LINE
5
1BA
100
AcDbEntity
8
CUTOUTS
100
AcDbLine
10
47.868799999999858
20
15.724999999999945
30
0
11
61.668799999999862
21
15.724999999999946
31
0
0
LINE
5
1BB
100
AcDbEntity
8
CUTOUTS
100
AcDbLine
10
80.718799999999874
20
15.724999999999945
30
0
11
80.718799999999874
21
1.9249999999999368
31
0
0
LINE
5
1BC
100
AcDbEntity
8
CUTOUTS
100
AcDbLine
10
80.718799999999874
20
1.9249999999999363
30
0
11
66.918799999999862
21
1.9249999999999363
31
0
0
LINE
5
1BD
100
AcDbEntity
8
CUTOUTS
100
AcDbLine
10
66.918799999999862
20
1.9249999999999363
30
0
11
66.918799999999862
21
15.724999999999945
31
0
0
LINE
5
1BE
100
AcDbEntity
8
CUTOUTS
100
AcDbLine
10
66.918799999999862
20
15.724999999999945
30
0
11
80.718799999999874
21
15.724999999999945
31
0
0
LINE
5
1BF
100
AcDbEntity
8
CUTOUTS
100
AcDbLine
10
42.618799999999872
20
15.724999999999945
30
0
11
42.618799999999872
21
1.924999999999939
31
0
0
LINE
5
1C0
100
AcDbEntity
8
CUTOUTS
100
AcDbLine
10
42.618799999999872
20
1.9249999999999385
30
0
11
28.818799999999865
21
1.9249999999999385
31
0
0
LINE
5
1C1
100
AcDbEntity
8
CUTOUTS
100
AcDbLine
10
28.818799999999865
20
1.9249999999999385
30
0
11
28.818799999999865
21
15.724999999999945
31
0
0
LINE
5
1C2
100
AcDbEntity
8
CUTOUTS
100
AcDbLine
10
28.818799999999865
20
15.724999999999945
30
0
11
42.618799999999872
21
15.724999999999945
31
0
0
LINE
5
1C3
100
AcDbEntity
8
CUTOUTS
100
AcDbLine
10
-47.381200000000149
20
15.724999999999946
30
0
11
-33.581200000000138
21
15.724999999999945
31
0
0
LINE
5
1C4
100
AcDbEntity
8
CUTOUTS
100
AcDbLine
10
-33.581200000000138
20
15.724999999999945
30
0
11
-33.581200000000138
21
1.924999999999939
31
0
0
LINE
5
1C5
100
AcDbEntity
8
CUTOUTS
100
AcDbLine
10
-33.581200000000138
20
1.9249999999999385
30
0
11
-47.381200000000149
21
1.9249999999999385
31
0
0
LINE
5
1C6
100
AcDbEntity
8
CUTOUTS
100
AcDbLine
10
-47.381200000000149
20
1.9249999999999385
30
0
11
-47.381200000000149
21
15.724999999999946
31
0
0
LINE
5
1C7
100
AcDbEntity
8
CUTOUTS
100
AcDbLine
10
60.528099999999874
20
62.975000000000009
30
0
11
60.528099999999874
21
68.97499999999998
31
0
0
ARC
5
1C8
100
AcDbEntity
8
CUTOUTS
100
AcDbCircle
10
60.928099999999873
20
68.97499999999998
30
0
40
0.40000000000000036
210
0
220
-0
230
1
100
AcDbArc
50
90
51
180
0
LINE
5
1C9
100
AcDbEntity
8
CUTOUTS
100
AcDbLine
10
60.928099999999873
20
69.374999999999986
30
0
11
66.928099999999858
21
69.375000000000014
31
0
0
ARC
5
1CA
100
AcDbEntity
8
CUTOUTS
100
AcDbCircle
10
66.928099999999858
20
68.975000000000023
30
0
40
0.40000000000000036
210
0
220
-0
230
1
100
AcDbArc
50
0
51
90
0
LINE
5
1CB
100
AcDbEntity
8
CUTOUTS
100
AcDbLine
10
67.328099999999864
20
68.975000000000023
30
0
11
67.32809999999985
21
62.975000000000001
31
0
0
ARC
5
1CC
100
AcDbEntity
8
CUTOUTS
100
AcDbCircle
10
66.928099999999858
20
62.975000000000001
30
0
40
0.40000000000000036
210
0
220
0
230
1
100
AcDbArc
50
-90
51
0
0
LINE
5
1CD
100
AcDbEntity
8
CUTOUTS
100
AcDbLine
10
66.928099999999858
20
62.575000000000003
30
0
11
60.928099999999873
21
62.57500000000001
31
0
0
ARC
5
1CE
100
AcDbEntity
8
CUTOUTS
100
AcDbCircle
10
60.928099999999873
20
62.975000000000009
30
0
40
0.40000000000000036
210
0
220
0
230
1
100
AcDbArc
50
180
51
270
0
LINE
5
1CF
100
AcDbEntity
8
CUTOUTS
100
AcDbLine
10
57.393799999999864
20
-22.37500000000005
30
0
11
71.193799999999868
21
-22.37500000000005
31
0
0
LINE
5
1D0
100
AcDbEntity
8
CUTOUTS
100
AcDbLine
10
71.193799999999868
20
-22.37500000000005
30
0
11
71.193799999999868
21
-36.175000000000061
31
0
0
LINE
5
1D1
100
AcDbEntity
8
CUTOUTS
100
AcDbLine
10
71.193799999999868
20
-36.175000000000061
30
0
11
57.393799999999864
21
-36.175000000000061
31
0
0
LINE
5
1D2
100
AcDbEntity
8
CUTOUTS
100
AcDbLine
10
57.393799999999864
20
-36.175000000000061
30
0
11
57.393799999999864
21
-22.37500000000005
31
0
0
LINE
5
1D3
100
AcDbEntity
8
CUTOUTS
100
AcDbLine
10
-9.2812000000001404
20
-55.225000000000094
30
0
11
-9.2812000000001404
21
-41.425000000000082
31
0
0
LINE
5
1D4
100
AcDbEntity
8
CUTOUTS
100
AcDbLine
10
-9.2812000000001404
20
-41.425000000000082
30
0
11
23.568799999999861
21
-41.42500000000009
31
0
0
LINE
5
1D5
100
AcDbEntity
8
CUTOUTS
100
AcDbLine
10
23.568799999999861
20
-41.42500000000009
30
0
11
23.568799999999861
21
-55.225000000000087
31
0
0
LINE
5
1D6
100
AcDbEntity
8
CUTOUTS
100
AcDbLine
10
23.568799999999861
20
-55.225000000000087
30
0
11
-9.2812000000001404
21
-55.225000000000094
31
0
0
LINE
5
1D7
100
AcDbEntity
8
CUTOUTS
100
AcDbLine
10
-85.968700000000126
20
34.774999999999977
30
0
11
-85.968700000000126
21
20.974999999999973
31
0
0
LINE
5
1D8
100
AcDbEntity
8
CUTOUTS
100
AcDbLine
10
-85.968700000000126
20
20.974999999999973
30
0
11
-99.768700000000138
21
20.974999999999973
31
0
0
LINE
5
1D9
100
AcDbEntity
8
CUTOUTS
100
AcDbLine
10
-99.768700000000138
20
20.974999999999973
30
0
11
-99.768700000000138
21
34.774999999999984
31
0
0
LINE
5
1DA
100
AcDbEntity
8
CUTOUTS
100
AcDbLine
10
-99.768700000000138
20
34.774999999999977
30
0
11
-85.968700000000126
21
34.774999999999977
31
0
0
LINE
5
1DB
100
AcDbEntity
8
CUTOUTS
100
AcDbLine
10
66.431299999999865
20
-3.3250000000000659
30
0
11
66.431299999999865
21
-17.125000000000064
31
0
0
LINE
5
1DC
100
AcDbEntity
8
CUTOUTS
100
AcDbLine
10
66.431299999999865
20
-17.125000000000064
30
0
11
52.631299999999861
21
-17.125000000000064
31
0
0
LINE
5
1DD
100
AcDbEntity
8
CUTOUTS
100
AcDbLine
10
52.631299999999861
20
-17.125000000000064
30
0
11
52.631299999999861
21
-3.3250000000000601
31
0
0
LINE
5
1DE
100
AcDbEntity
8
CUTOUTS
100
AcDbLine
10
52.631299999999861
20
-3.3250000000000615
30
0
11
66.431299999999865
21
-3.3250000000000659
31
0
0
LINE
5
1DF
100
AcDbEntity
8
CUTOUTS
100
AcDbLine
10
76.443799999999854
20
-22.375000000000085
30
0
11
90.243799999999879
21
-22.375000000000085
31
0
0
LINE
5
1E0
100
AcDbEntity
8
CUTOUTS
100
AcDbLine
10
90.243799999999879
20
-22.375000000000085
30
0
11
90.243799999999851
21
-36.175000000000097
31
0
0
LINE
5
1E1
100
AcDbEntity
8
CUTOUTS
100
AcDbLine
10
90.243799999999851
20
-36.175000000000097
30
0
11
76.443799999999854
21
-36.175000000000082
31
0
0
LINE
5
1E2
100
AcDbEntity
8
CUTOUTS
100
AcDbLine
10
76.443799999999854
20
-36.175000000000082
30
0
11
76.443799999999854
21
-22.375000000000085
31
0
0
LINE
5
1E3
100
AcDbEntity
8
CUTOUTS
100
AcDbLine
10
38.343799999999831
20
-22.37500000000005
30
0
11
52.143799999999857
21
-22.37500000000005
31
0
0
LINE
5
1E4
100
AcDbEntity
8
CUTOUTS
100
AcDbLine
10
52.143799999999857
20
-22.37500000000005
30
0
11
52.143799999999857
21
-36.175000000000061
31
0
0
LINE
5
1E5
100
AcDbEntity
8
CUTOUTS
100
AcDbLine
10
52.143799999999857
20
-36.175000000000061
30
0
11
38.343799999999831
21
-36.175000000000061
31
0
0
LINE
5
1E6
100
AcDbEntity
8
CUTOUTS
100
AcDbLine
10
38.343799999999831
20
-36.175000000000061
30
0
11
38.343799999999831
21
-22.37500000000005
31
0
0
LINE
5
1E7
100
AcDbEntity
8
CUTOUTS
100
AcDbLine
10
-47.868700000000032
20
34.775000000000162
30
0
11
-47.868700000000032
21
20.975000000000151
31
0
0
LINE
5
1E8
100
AcDbEntity
8
CUTOUTS
100
AcDbLine
10
-47.868700000000032
20
20.975000000000151
30
0
11
-61.66870000000003
21
20.975000000000151
31
0
0
LINE
5
1E9
100
AcDbEntity
8
CUTOUTS
100
AcDbLine
10
-61.66870000000003
20
20.975000000000151
30
0
11
-61.66870000000003
21
34.775000000000162
31
0
0
LINE
5
1EA
100
AcDbEntity
8
CUTOUTS
100
AcDbLine
10
-61.66870000000003
20
34.775000000000162
30
0
11
-47.868700000000032
21
34.775000000000162
31
0
0
LINE
5
1EB
100
AcDbEntity
8
CUTOUTS
100
AcDbLine
10
28.331299999999882
20
20.974999999999959
30
0
11
14.531299999999856
21
20.974999999999959
31
0
0
LINE
5
1EC
100
AcDbEntity
8
CUTOUTS
100
AcDbLine
10
14.531299999999856
20
20.974999999999959
30
0
11
14.531299999999856
21
34.774999999999963
31
0
0
LINE
5
1ED
100
AcDbEntity
8
CUTOUTS
100
AcDbLine
10
14.531299999999856
20
34.774999999999963
30
0
11
28.331299999999882
21
34.774999999999963
31
0
0
LINE
5
1EE
100
AcDbEntity
8
CUTOUTS
100
AcDbLine
10
28.331299999999882
20
34.774999999999963
30
0
11
28.331299999999882
21
20.974999999999959
31
0
0
LINE
5
1EF
100
AcDbEntity
8
CUTOUTS
100
AcDbLine
10
85.481299999999848
20
34.774999999999949
30
0
11
85.481299999999848
21
20.974999999999937
31
0
0
LINE
5
1F0
100
AcDbEntity
8
CUTOUTS
100
AcDbLine
10
85.481299999999848
20
20.974999999999937
30
0
11
71.681299999999851
21
20.974999999999937
31
0
0
LINE
5
1F1
100
AcDbEntity
8
CUTOUTS
100
AcDbLine
10
71.681299999999851
20
20.974999999999937
30
0
11
71.681299999999851
21
34.774999999999949
31
0
0
LINE
5
1F2
100
AcDbEntity
8
CUTOUTS
100
AcDbLine
10
71.681299999999851
20
34.774999999999949
30
0
11
85.481299999999848
21
34.774999999999949
31
0
0
LINE
5
1F3
100
AcDbEntity
8
CUTOUTS
100
AcDbLine
10
47.381299999999854
20
34.77499999999997
30
0
11
47.381299999999854
21
20.974999999999962
31
0
0
LINE
5
1F4
100
AcDbEntity
8
CUTOUTS
100
AcDbLine
10
47.381299999999854
20
20.974999999999962
30
0
11
33.58129999999985
21
20.974999999999966
31
0
0
LINE
5
1F5
100
AcDbEntity
8
CUTOUTS
100
AcDbLine
10
33.58129999999985
20
20.974999999999966
30
0
11
33.58129999999985
21
34.774999999999977
31
0
0
LINE
5
1F6
100
AcDbEntity
8
CUTOUTS
100
AcDbLine
10
33.58129999999985
20
34.77499999999997
30
0
11
47.381299999999854
21
34.77499999999997
31
0
0
LINE
5
1F7
100
AcDbEntity
8
CUTOUTS
100
AcDbLine
10
61.668799999999884
20
53.82499999999996
30
0
11
61.668799999999862
21
40.024999999999963
31
0
0
LINE
5
1F8
100
AcDbEntity
8
CUTOUTS
100
AcDbLine
10
61.668799999999862
20
40.024999999999963
30
0
11
47.868799999999879
21
40.024999999999963
31
0
0
LINE
5
1F9
100
AcDbEntity
8
CUTOUTS
100
AcDbLine
10
47.868799999999879
20
40.024999999999963
30
0
11
47.868799999999879
21
53.824999999999967
31
0
0
LINE
5
1FA
100
AcDbEntity
8
CUTOUTS
100
AcDbLine
10
47.868799999999879
20
53.824999999999967
30
0
11
61.668799999999884
21
53.82499999999996
31
0
0
LINE
5
1FB
100
AcDbEntity
8
CUTOUTS
100
AcDbLine
10
23.568799999999861
20
53.824999999999967
30
0
11
23.568799999999861
21
40.024999999999963
31
0
0
LINE
5
1FC
100
AcDbEntity
8
CUTOUTS
100
AcDbLine
10
23.568799999999861
20
40.024999999999963
30
0
11
9.7687999999998549
21
40.024999999999963
31
0
0
LINE
5
1FD
100
AcDbEntity
8
CUTOUTS
100
AcDbLine
10
9.7687999999998549
20
40.024999999999963
30
0
11
9.7687999999998549
21
53.82499999999996
31
0
0
LINE
5
1FE
100
AcDbEntity
8
CUTOUTS
100
AcDbLine
10
9.7687999999998549
20
53.82499999999996
30
0
11
23.568799999999861
21
53.824999999999967
31
0
0
LINE
5
1FF
100
AcDbEntity
8
CUTOUTS
100
AcDbLine
10
-28.331200000000152
20
53.82499999999996
30
0
11
-14.531200000000144
21
53.824999999999967
31
0
0
LINE
5
200
100
AcDbEntity
8
CUTOUTS
100
AcDbLine
10
-14.531200000000144
20
53.824999999999967
30
0
11
-14.531200000000144
21
40.024999999999949
31
0
0
LINE
5
201
100
AcDbEntity
8
CUTOUTS
100
AcDbLine
10
-14.531200000000144
20
40.024999999999949
30
0
11
-28.331200000000152
21
40.024999999999949
31
0
0
LINE
5
202
100
AcDbEntity
8
CUTOUTS
100
AcDbLine
10
-28.331200000000152
20
40.024999999999949
30
0
11
-28.331200000000152
21
53.82499999999996
31
0
0
LINE
5
203
100
AcDbEntity
8
CUTOUTS
100
AcDbLine
10
-9.7687000000001412
20
34.774999999999956
30
0
11
-9.7687000000001412
21
20.974999999999948
31
0
0
LINE
5
204
100
AcDbEntity
8
CUTOUTS
100
AcDbLine
10
-9.7687000000001412
20
20.974999999999948
30
0
11
-23.568700000000149
21
20.974999999999948
31
0
0
LINE
5
205
100
AcDbEntity
8
CUTOUTS
100
AcDbLine
10
-23.568700000000149
20
20.974999999999948
30
0
11
-23.568700000000149
21
34.774999999999956
31
0
0
LINE
5
206
100
AcDbEntity
8
CUTOUTS
100
AcDbLine
10
-23.568700000000149
20
34.774999999999963
30
0
11
-9.7687000000001412
21
34.774999999999956
31
0
0
LINE
5
207
100
AcDbEntity
8
CUTOUTS
100
AcDbLine
10
104.53129999999986
20
34.774999999999963
30
0
11
104.53129999999986
21
20.974999999999959
31
0
0
LINE
5
208
100
AcDbEntity
8
CUTOUTS
100
AcDbLine
10
104.53129999999986
20
20.974999999999959
30
0
11
90.731299999999862
21
20.974999999999959
31
0
0
LINE
5
209
100
AcDbEntity
8
CUTOUTS
100
AcDbLine
10
90.731299999999862
20
20.974999999999959
30
0
11
90.731299999999862
21
34.774999999999963
31
0
0
LINE
5
20A
100
AcDbEntity
8
CUTOUTS
100
AcDbLine
10
90.731299999999862
20
34.774999999999963
30
0
11
104.53129999999986
21
34.774999999999963
31
0
0
LINE
5
20B
100
AcDbEntity
8
CUTOUTS
100
AcDbLine
10
-42.618700000000104
20
34.775000000000006
30
0
11
-28.818700000000099
21
34.775000000000006
31
0
0
LINE
5
20C
100
AcDbEntity
8
CUTOUTS
100
AcDbLine
10
-28.818700000000099
20
34.775000000000006
30
0
11
-28.818700000000106
21
20.975000000000001
31
0
0
LINE
5
20D
100
AcDbEntity
8
CUTOUTS
100
AcDbLine
10
-28.818700000000106
20
20.975000000000001
30
0
11
-42.618700000000104
21
20.975000000000001
31
0
0
LINE
5
20E
100
AcDbEntity
8
CUTOUTS
100
AcDbLine
10
-42.618700000000104
20
20.975000000000001
30
0
11
-42.618700000000104
21
34.775000000000006
31
0
0
LINE
5
20F
100
AcDbEntity
8
CUTOUTS
100
AcDbLine
10
-85.481200000000129
20
53.824999999999967
30
0
11
-71.681200000000132
21
53.824999999999967
31
0
0
LINE
5
210
100
AcDbEntity
8
CUTOUTS
100
AcDbLine
10
-71.681200000000132
20
53.824999999999967
30
0
11
-71.681200000000132
21
40.02499999999997
31
0
0
LINE
5
211
100
AcDbEntity
8
CUTOUTS
100
AcDbLine
10
-71.681200000000132
20
40.02499999999997
30
0
11
-85.481200000000129
21
40.024999999999963
31
0
0
LINE
5
212
100
AcDbEntity
8
CUTOUTS
100
AcDbLine
10
-85.481200000000129
20
40.024999999999963
30
0
11
-85.481200000000129
21
53.824999999999967
31
0
0
LINE
5
213
100
AcDbEntity
8
CUTOUTS
100
AcDbLine
10
-90.731200000000143
20
53.824999999999989
30
0
11
-90.731200000000115
21
40.024999999999977
31
0
0
LINE
5
214
100
AcDbEntity
8
CUTOUTS
100
AcDbLine
10
-90.731200000000115
20
40.024999999999977
30
0
11
-104.53120000000013
21
40.024999999999977
31
0
0
LINE
5
215
100
AcDbEntity
8
CUTOUTS
100
AcDbLine
10
-104.53120000000013
20
40.024999999999977
30
0
11
-104.53120000000013
21
53.824999999999989
31
0
0
LINE
5
216
100
AcDbEntity
8
CUTOUTS
100
AcDbLine
10
-104.53120000000013
20
53.824999999999989
30
0
11
-90.731200000000143
21
53.824999999999989
31
0
0
LINE
5
217
100
AcDbEntity
8
CUTOUTS
100
AcDbLine
10
42.618799999999851
20
53.82499999999996
30
0
11
42.618799999999851
21
40.024999999999942
31
0
0
LINE
5
218
100
AcDbEntity
8
CUTOUTS
100
AcDbLine
10
42.618799999999851
20
40.024999999999942
30
0
11
28.818799999999865
21
40.024999999999942
31
0
0
LINE
5
219
100
AcDbEntity
8
CUTOUTS
100
AcDbLine
10
28.818799999999865
20
40.024999999999942
30
0
11
28.818799999999865
21
53.824999999999946
31
0
0
LINE
5
21A
100
AcDbEntity
8
CUTOUTS
100
AcDbLine
10
28.818799999999865
20
53.82499999999996
30
0
11
42.618799999999851
21
53.82499999999996
31
0
0
LINE
5
21B
100
AcDbEntity
8
CUTOUTS
100
AcDbLine
10
66.431299999999865
20
34.774999999999963
30
0
11
66.431299999999865
21
20.974999999999959
31
0
0
LINE
5
21C
100
AcDbEntity
8
CUTOUTS
100
AcDbLine
10
66.431299999999865
20
20.974999999999959
30
0
11
52.631299999999882
21
20.974999999999959
31
0
0
LINE
5
21D
100
AcDbEntity
8
CUTOUTS
100
AcDbLine
10
52.631299999999882
20
20.974999999999959
30
0
11
52.631299999999861
21
34.774999999999963
31
0
0
LINE
5
21E
100
AcDbEntity
8
CUTOUTS
100
AcDbLine
10
52.631299999999861
20
34.774999999999963
30
0
11
66.431299999999865
21
34.774999999999963
31
0
0
ARC
5
21F
100
AcDbEntity
8
PERIMETER
100
AcDbCircle
10
103.65625000000048
20
72.000000000000014
30
0
40
3.5999999999999943
210
-0
220
0
230
1
100
AcDbArc
50
0
51
90
0
LINE
5
220
100
AcDbEntity
8
PERIMETER
100
AcDbLine
10
103.6562500000005
20
75.600000000000009
30
0
11
-103.65625000000045
21
75.600000000000009
31
0
0
ARC
5
221
100
AcDbEntity
8
PERIMETER
100
AcDbCircle
10
-103.65625000000051
20
72.000000000000043
30
0
40
3.5999999999999588
210
0
220
-0
230
1
100
AcDbArc
50
89.999999999999091
51
180
0
LINE
5
222
100
AcDbEntity
8
PERIMETER
100
AcDbLine
10
-107.25625000000048
20
72.000000000000014
30
0
11
-107.25625000000048
21
-72.000000000000014
31
0
0
ARC
5
223
100
AcDbEntity
8
PERIMETER
100
AcDbCircle
10
-103.65625000000048
20
-72.000000000000014
30
0
40
3.5999999999999943
210
0
220
0
230
1
100
AcDbArc
50
180
51
270
0
LINE
5
224
100
AcDbEntity
8
PERIMETER
100
AcDbLine
10
-103.6562500000005
20
-75.600000000000009
30
0
11
103.65625000000045
21
-75.600000000000009
31
0
0
ARC
5
225
100
AcDbEntity
8
PERIMETER
100
AcDbCircle
10
103.65625000000051
20
-72.000000000000043
30
0
40
3.5999999999999588
210
0
220
0
230
1
100
AcDbArc
50
-90.000000000000924
51
0
0
LINE
5
226
100
AcDbEntity
8
PERIMETER
100
AcDbLine
10
107.25625000000048
20
-72.000000000000014
30
0
11
107.25625000000048
21
72.000000000000014
31
0
0
ENDSEC
0
SECTION
2
OBJECTS
0
DICTIONARY
5
C
100
AcDbDictionary
3
ACAD_GROUP
350
D
3
ACAD_MLINESTYLE
350
17
0
DICTIONARY
5
D
100
AcDbDictionary
0
DICTIONARY
5
1A
330
C
100
AcDbDictionary
0
DICTIONARY
5
17
100
AcDbDictionary
0
ENDSEC
0
EOF
