  0
SECTION
  2
HEADER
  9
$ACADVER
  1
AC1032
  9
$ACADMAINTVER
 90
      251
  9
$DWGCODEPAGE
  3
ANSI_1252
  9
$REQUIREDVERSIONS
160
                 0
  9
$INSBASE
 10
0.0
 20
0.0
 30
0.0
  9
$EXTMIN
 10
1.000000000000000E+20
 20
1.000000000000000E+20
 30
1.000000000000000E+20
  9
$EXTMAX
 10
-1.000000000000000E+20
 20
-1.000000000000000E+20
 30
-1.000000000000000E+20
  9
$LIMMIN
 10
0.0
 20
0.0
  9
$LIMMAX
 10
12.0
 20
9.0
  9
$ORTHOMODE
 70
     0
  9
$REGENMODE
 70
     1
  9
$FILLMODE
 70
     1
  9
$QTEXTMODE
 70
     0
  9
$MIRRTEXT
 70
     0
  9
$LTSCALE
 40
1.0
  9
$ATTMODE
 70
     1
  9
$TEXTSIZE
 40
0.2
  9
$TRACEWID
 40
0.05
  9
$TEXTSTYLE
  7
Standard
  9
$CLAYER
  8
0
  9
$CELTYPE
  6
ByLayer
  9
$CECOLOR
 62
   256
  9
$CELTSCALE
 40
1.0
  9
$DISPSILH
 70
     0
  9
$DIMSCALE
 40
1.0
  9
$DIMASZ
 40
0.18
  9
$DIMEXO
 40
0.0625
  9
$DIMDLI
 40
0.38
  9
$DIMRND
 40
0.0
  9
$DIMDLE
 40
0.0
  9
$DIMEXE
 40
0.18
  9
$DIMTP
 40
0.0
  9
$DIMTM
 40
0.0
  9
$DIMTXT
 40
0.18
  9
$DIMCEN
 40
0.09
  9
$DIMTSZ
 40
0.0
  9
$DIMTOL
 70
     0
  9
$DIMLIM
 70
     0
  9
$DIMTIH
 70
     1
  9
$DIMTOH
 70
     1
  9
$DIMSE1
 70
     0
  9
$DIMSE2
 70
     0
  9
$DIMTAD
 70
     0
  9
$DIMZIN
 70
     0
  9
$DIMBLK
  1

  9
$DIMASO
 70
     1
  9
$DIMSHO
 70
     1
  9
$DIMPOST
  1

  9
$DIMAPOST
  1

  9
$DIMALT
 70
     0
  9
$DIMALTD
 70
     2
  9
$DIMALTF
 40
25.4
  9
$DIMLFAC
 40
1.0
  9
$DIMTOFL
 70
     0
  9
$DIMTVP
 40
0.0
  9
$DIMTIX
 70
     0
  9
$DIMSOXD
 70
     0
  9
$DIMSAH
 70
     0
  9
$DIMBLK1
  1

  9
$DIMBLK2
  1

  9
$DIMSTYLE
  2
Standard
  9
$DIMCLRD
 70
     0
  9
$DIMCLRE
 70
     0
  9
$DIMCLRT
 70
     0
  9
$DIMTFAC
 40
1.0
  9
$DIMGAP
 40
0.09
  9
$DIMJUST
 70
     0
  9
$DIMSD1
 70
     0
  9
$DIMSD2
 70
     0
  9
$DIMTOLJ
 70
     1
  9
$DIMTZIN
 70
     0
  9
$DIMALTZ
 70
     0
  9
$DIMALTTZ
 70
     0
  9
$DIMUPT
 70
     0
  9
$DIMDEC
 70
     4
  9
$DIMTDEC
 70
     4
  9
$DIMALTU
 70
     2
  9
$DIMALTTD
 70
     2
  9
$DIMTXSTY
  7
Standard
  9
$DIMAUNIT
 70
     0
  9
$DIMADEC
 70
     0
  9
$DIMALTRND
 40
0.0
  9
$DIMAZIN
 70
     0
  9
$DIMDSEP
 70
    46
  9
$DIMATFIT
 70
     3
  9
$DIMFRAC
 70
     0
  9
$DIMLDRBLK
  1

  9
$DIMLUNIT
 70
     2
  9
$DIMLWD
 70
    -2
  9
$DIMLWE
 70
    -2
  9
$DIMTMOVE
 70
     0
  9
$DIMFXL
 40
1.0
  9
$DIMFXLON
 70
     0
  9
$DIMJOGANG
 40
0.7853981633974483
  9
$DIMTFILL
 70
     0
  9
$DIMTFILLCLR
 70
     0
  9
$DIMARCSYM
 70
     0
  9
$DIMLTYPE
  6

  9
$DIMLTEX1
  6

  9
$DIMLTEX2
  6

  9
$DIMTXTDIRECTION
 70
     0
  9
$LUNITS
 70
     2
  9
$LUPREC
 70
     4
  9
$SKETCHINC
 40
0.1
  9
$FILLETRAD
 40
0.0
  9
$AUNITS
 70
     0
  9
$AUPREC
 70
     0
  9
$MENU
  1
.
  9
$ELEVATION
 40
0.0
  9
$PELEVATION
 40
0.0
  9
$THICKNESS
 40
0.0
  9
$LIMCHECK
 70
     0
  9
$CHAMFERA
 40
0.0
  9
$CHAMFERB
 40
0.0
  9
$CHAMFERC
 40
0.0
  9
$CHAMFERD
 40
0.0
  9
$SKPOLY
 70
     0
  9
$TDCREATE
 40
2459981.352604167
  9
$TDUCREATE
 40
2459981.352604167
  9
$TDUPDATE
 40
2459981.352604167
  9
$TDUUPDATE
 40
2459981.352604167
  9
$TDINDWG
 40
0.0000000000
  9
$TDUSRTIMER
 40
0.0000000000
  9
$USRTIMER
 70
     1
  9
$ANGBASE
 50
0.0
  9
$ANGDIR
 70
     0
  9
$PDMODE
 70
     0
  9
$PDSIZE
 40
0.0
  9
$PLINEWID
 40
0.0
  9
$SPLFRAME
 70
     0
  9
$SPLINETYPE
 70
     6
  9
$SPLINESEGS
 70
     8
  9
$HANDSEED
  5
285
  9
$SURFTAB1
 70
     6
  9
$SURFTAB2
 70
     6
  9
$SURFTYPE
 70
     6
  9
$SURFU
 70
     6
  9
$SURFV
 70
     6
  9
$UCSBASE
  2

  9
$UCSNAME
  2

  9
$UCSORG
 10
0.0
 20
0.0
 30
0.0
  9
$UCSXDIR
 10
1.0
 20
0.0
 30
0.0
  9
$UCSYDIR
 10
0.0
 20
1.0
 30
0.0
  9
$UCSORTHOREF
  2

  9
$UCSORTHOVIEW
 70
     0
  9
$UCSORGTOP
 10
0.0
 20
0.0
 30
0.0
  9
$UCSORGBOTTOM
 10
0.0
 20
0.0
 30
0.0
  9
$UCSORGLEFT
 10
0.0
 20
0.0
 30
0.0
  9
$UCSORGRIGHT
 10
0.0
 20
0.0
 30
0.0
  9
$UCSORGFRONT
 10
0.0
 20
0.0
 30
0.0
  9
$UCSORGBACK
 10
0.0
 20
0.0
 30
0.0
  9
$PUCSBASE
  2

  9
$PUCSNAME
  2

  9
$PUCSORG
 10
0.0
 20
0.0
 30
0.0
  9
$PUCSXDIR
 10
1.0
 20
0.0
 30
0.0
  9
$PUCSYDIR
 10
0.0
 20
1.0
 30
0.0
  9
$PUCSORTHOREF
  2

  9
$PUCSORTHOVIEW
 70
     0
  9
$PUCSORGTOP
 10
0.0
 20
0.0
 30
0.0
  9
$PUCSORGBOTTOM
 10
0.0
 20
0.0
 30
0.0
  9
$PUCSORGLEFT
 10
0.0
 20
0.0
 30
0.0
  9
$PUCSORGRIGHT
 10
0.0
 20
0.0
 30
0.0
  9
$PUCSORGFRONT
 10
0.0
 20
0.0
 30
0.0
  9
$PUCSORGBACK
 10
0.0
 20
0.0
 30
0.0
  9
$USERI1
 70
     0
  9
$USERI2
 70
     0
  9
$USERI3
 70
     0
  9
$USERI4
 70
     0
  9
$USERI5
 70
     0
  9
$USERR1
 40
0.0
  9
$USERR2
 40
0.0
  9
$USERR3
 40
0.0
  9
$USERR4
 40
0.0
  9
$USERR5
 40
0.0
  9
$WORLDVIEW
 70
     1
  9
$SHADEDGE
 70
     3
  9
$SHADEDIF
 70
    70
  9
$TILEMODE
 70
     1
  9
$MAXACTVP
 70
    64
  9
$PINSBASE
 10
0.0
 20
0.0
 30
0.0
  9
$PLIMCHECK
 70
     0
  9
$PEXTMIN
 10
1.000000000000000E+20
 20
1.000000000000000E+20
 30
1.000000000000000E+20
  9
$PEXTMAX
 10
-1.000000000000000E+20
 20
-1.000000000000000E+20
 30
-1.000000000000000E+20
  9
$PLIMMIN
 10
0.0
 20
0.0
  9
$PLIMMAX
 10
12.0
 20
9.0
  9
$UNITMODE
 70
     0
  9
$VISRETAIN
 70
     1
  9
$PLINEGEN
 70
     0
  9
$PSLTSCALE
 70
     1
  9
$TREEDEPTH
 70
  3020
  9
$CMLSTYLE
  2
Standard
  9
$CMLJUST
 70
     0
  9
$CMLSCALE
 40
1.0
  9
$PROXYGRAPHICS
 70
     1
  9
$MEASUREMENT
 70
     0
  9
$CELWEIGHT
370
    -1
  9
$ENDCAPS
280
     0
  9
$JOINSTYLE
280
     0
  9
$LWDISPLAY
290
     1
  9
$INSUNITS
 70
     4
  9
$HYPERLINKBASE
  1

  9
$STYLESHEET
  1

  9
$XEDIT
290
     1
  9
$CEPSNTYPE
380
     0
  9
$PSTYLEMODE
290
     1
  9
$FINGERPRINTGUID
  2
{2B8CFB6D-6FC9-E44D-A153-EF201FD62338}
  9
$VERSIONGUID
  2
{1566A6A1-2120-8045-81C0-6EABDE30CB97}
  9
$EXTNAMES
290
     1
  9
$PSVPSCALE
 40
0.0
  9
$OLESTARTUP
290
     0
  9
$SORTENTS
280
   127
  9
$INDEXCTL
280
     0
  9
$HIDETEXT
280
     1
  9
$XCLIPFRAME
280
     2
  9
$HALOGAP
280
     0
  9
$OBSCOLOR
 70
   257
  9
$OBSLTYPE
280
     0
  9
$INTERSECTIONDISPLAY
280
     0
  9
$INTERSECTIONCOLOR
 70
   257
  9
$DIMASSOC
280
     2
  9
$PROJECTNAME
  1

  9
$CAMERADISPLAY
290
     0
  9
$LENSLENGTH
 40
50.0
  9
$CAMERAHEIGHT
 40
0.0
  9
$STEPSPERSEC
 40
2.0
  9
$STEPSIZE
 40
6.0
  9
$3DDWFPREC
 40
2.0
  9
$PSOLWIDTH
 40
0.25
  9
$PSOLHEIGHT
 40
4.0
  9
$LOFTANG1
 40
1.570796326794896
  9
$LOFTANG2
 40
1.570796326794896
  9
$LOFTMAG1
 40
0.0
  9
$LOFTMAG2
 40
0.0
  9
$LOFTPARAM
 70
     7
  9
$LOFTNORMALS
280
     1
  9
$LATITUDE
 40
37.795
  9
$LONGITUDE
 40
-122.394
  9
$NORTHDIRECTION
 40
0.0
  9
$TIMEZONE
 70
 -8000
  9
$LIGHTGLYPHDISPLAY
280
     1
  9
$TILEMODELIGHTSYNCH
280
     1
  9
$CMATERIAL
347
11
  9
$SOLIDHIST
280
     0
  9
$SHOWHIST
280
     1
  9
$DWFFRAME
280
     2
  9
$DGNFRAME
280
     0
  9
$REALWORLDSCALE
290
     1
  9
$INTERFERECOLOR
 62
     1
  9
$INTERFEREOBJVS
345
33
  9
$INTERFEREVPVS
346
30
  9
$CSHADOW
280
     0
  9
$SHADOWPLANELOCATION
 40
0.0
  0
ENDSEC
  0
SECTION
  2
CLASSES
  0
CLASS
  1
ACDBDICTIONARYWDFLT
  2
AcDbDictionaryWithDefault
  3
ObjectDBX Classes
 90
        0
 91
        1
280
     0
281
     0
  0
CLASS
  1
MATERIAL
  2
AcDbMaterial
  3
ObjectDBX Classes
 90
     1153
 91
        3
280
     0
281
     0
  0
CLASS
  1
VISUALSTYLE
  2
AcDbVisualStyle
  3
ObjectDBX Classes
 90
     4095
 91
       24
280
     0
281
     0
  0
CLASS
  1
SCALE
  2
AcDbScale
  3
ObjectDBX Classes
 90
     1153
 91
       17
280
     0
281
     0
  0
CLASS
  1
TABLESTYLE
  2
AcDbTableStyle
  3
ObjectDBX Classes
 90
     4095
 91
        1
280
     0
281
     0
  0
CLASS
  1
MLEADERSTYLE
  2
AcDbMLeaderStyle
  3
ACDB_MLEADERSTYLE_CLASS
 90
     4095
 91
        1
280
     0
281
     0
  0
CLASS
  1
ACDBSECTIONVIEWSTYLE
  2
AcDbSectionViewStyle
  3
ObjectDBX Classes
 90
     1025
 91
        1
280
     0
281
     0
  0
CLASS
  1
ACDBDETAILVIEWSTYLE
  2
AcDbDetailViewStyle
  3
ObjectDBX Classes
 90
     1025
 91
        1
280
     0
281
     0
  0
CLASS
  1
DICTIONARYVAR
  2
AcDbDictionaryVar
  3
ObjectDBX Classes
 90
        0
 91
        5
280
     0
281
     0
  0
CLASS
  1
CELLSTYLEMAP
  2
AcDbCellStyleMap
  3
ObjectDBX Classes
 90
     1152
 91
        1
280
     0
281
     0
  0
ENDSEC
  0
SECTION
  2
TABLES
  0
TABLE
  2
VPORT
  5
8
330
0
100
AcDbSymbolTable
 70
     1
  0
VPORT
  5
57
330
8
100
AcDbSymbolTableRecord
100
AcDbViewportTableRecord
  2
*Active
 70
     0
 10
0.0
 20
0.0
 11
1.0
 21
1.0
 12
0.0
 22
0.0
 13
0.0
 23
0.0
 14
1.0
 24
1.0
 15
0.0
 25
0.0
 16
0.0
 26
0.0
 36
1.0
 17
8.113888886860259
 27
8.29027777556163
 37
0.0
 40
143.5586250136775
 41
1.52449043015806
 42
50.0
 43
0.0
 44
0.0
 50
0.0
 51
0.0
 71
     0
 72
   100
 73
     1
 74
     1
 75
     0
 76
     0
 77
     0
 78
     0
281
     0
 65
     1
110
0.0
120
0.0
130
0.0
111
1.0
121
0.0
131
0.0
112
0.0
122
1.0
132
0.0
 79
     0
146
0.0
 60
     3
 61
     5
292
     1
282
     1
141
0.0
142
0.0
 63
   250
421
  3355443
  0
ENDTAB
  0
TABLE
  2
LTYPE
  5
5
330
0
100
AcDbSymbolTable
 70
     1
  0
LTYPE
  5
5B
330
5
100
AcDbSymbolTableRecord
100
AcDbLinetypeTableRecord
  2
ByBlock
 70
     0
  3

 72
    65
 73
     0
 40
0.0
  0
LTYPE
  5
5C
330
5
100
AcDbSymbolTableRecord
100
AcDbLinetypeTableRecord
  2
ByLayer
 70
     0
  3

 72
    65
 73
     0
 40
0.0
  0
LTYPE
  5
5D
330
5
100
AcDbSymbolTableRecord
100
AcDbLinetypeTableRecord
  2
Continuous
 70
     0
  3
Solid line
 72
    65
 73
     0
 40
0.0
  0
ENDTAB
  0
TABLE
  2
LAYER
  5
2
330
0
100
AcDbSymbolTable
 70
     1
  0
LAYER
  5
54
330
2
100
AcDbSymbolTableRecord
100
AcDbLayerTableRecord
  2
0
 70
     0
 62
     7
  6
Continuous
370
     0
390
F
347
21
348
0
  0
ENDTAB
  0
TABLE
  2
STYLE
  5
3
330
0
100
AcDbSymbolTable
 70
     2
  0
STYLE
  5
55
330
3
100
AcDbSymbolTableRecord
100
AcDbTextStyleTableRecord
  2
Standard
 70
     0
 40
0.0
 41
1.0
 50
0.0
 71
     0
 42
0.2
  3
txt
  4

  0
STYLE
  5
5A
330
3
100
AcDbSymbolTableRecord
100
AcDbTextStyleTableRecord
  2
Annotative
 70
     0
 40
0.0
 41
1.0
 50
0.0
 71
     0
 42
0.2
  3
txt
  4

1001
AcadAnnotative
1000
AnnotativeData
1002
{
1070
     1
1070
     1
1002
}
  0
ENDTAB
  0
TABLE
  2
VIEW
  5
6
330
0
100
AcDbSymbolTable
 70
     0
  0
ENDTAB
  0
TABLE
  2
UCS
  5
7
330
0
100
AcDbSymbolTable
 70
     0
  0
ENDTAB
  0
TABLE
  2
APPID
  5
9
330
0
100
AcDbSymbolTable
 70
     2
  0
APPID
  5
56
330
9
100
AcDbSymbolTableRecord
100
AcDbRegAppTableRecord
  2
ACAD
 70
     0
  0
APPID
  5
5E
330
9
100
AcDbSymbolTableRecord
100
AcDbRegAppTableRecord
  2
AcadAnnotative
 70
     0
  0
ENDTAB
  0
TABLE
  2
DIMSTYLE
  5
A
330
0
100
AcDbSymbolTable
 70
     2
100
AcDbDimStyleTable
 71
     0
  0
DIMSTYLE
105
58
330
A
100
AcDbSymbolTableRecord
100
AcDbDimStyleTableRecord
  2
Standard
 70
     0
340
55
  0
DIMSTYLE
105
59
330
A
100
AcDbSymbolTableRecord
100
AcDbDimStyleTableRecord
  2
Annotative
 70
     0
340
55
1001
AcadAnnotative
1000
AnnotativeData
1002
{
1070
     1
1070
     1
1002
}
  0
ENDTAB
  0
TABLE
  2
BLOCK_RECORD
  5
1
330
0
100
AcDbSymbolTable
 70
     1
  0
BLOCK_RECORD
  5
70
330
1
100
AcDbSymbolTableRecord
100
AcDbBlockTableRecord
  2
*Model_Space
340
73
 70
     0
280
     1
281
     0
  0
BLOCK_RECORD
  5
6C
330
1
100
AcDbSymbolTableRecord
100
AcDbBlockTableRecord
  2
*Paper_Space
340
6F
 70
     0
280
     1
281
     0
  0
BLOCK_RECORD
  5
74
330
1
100
AcDbSymbolTableRecord
100
AcDbBlockTableRecord
  2
*Paper_Space0
340
77
 70
     0
280
     1
281
     0
  0
ENDTAB
  0
ENDSEC
  0
SECTION
  2
BLOCKS
  0
BLOCK
  5
71
330
70
100
AcDbEntity
  8
0
100
AcDbBlockBegin
  2
*Model_Space
 70
     0
 10
0.0
 20
0.0
 30
0.0
  3
*Model_Space
  1

  0
ENDBLK
  5
72
330
70
100
AcDbEntity
  8
0
100
AcDbBlockEnd
  0
BLOCK
  5
6D
330
6C
100
AcDbEntity
 67
     1
  8
0
100
AcDbBlockBegin
  2
*Paper_Space
 70
     0
 10
0.0
 20
0.0
 30
0.0
  3
*Paper_Space
  1

  0
ENDBLK
  5
6E
330
6C
100
AcDbEntity
 67
     1
  8
0
100
AcDbBlockEnd
  0
BLOCK
  5
75
330
74
100
AcDbEntity
 67
     1
  8
0
100
AcDbBlockBegin
  2
*Paper_Space0
 70
     0
 10
0.0
 20
0.0
 30
0.0
  3
*Paper_Space0
  1

  0
ENDBLK
  5
76
330
74
100
AcDbEntity
 67
     1
  8
0
100
AcDbBlockEnd
  0
ENDSEC
  0
SECTION
  2
ENTITIES
  0
LINE
  5
78
330
70
100
AcDbEntity
  8
0
 62
     7
370
    25
100
AcDbLine
 10
-96.66111111313966
 20
-42.90659721773353
 30
0.0
 11
-63.32361111313965
 21
-42.90659721773353
 31
0.0
  0
SPLINE
  5
79
330
70
100
AcDbEntity
  8
0
 62
     7
370
    25
100
AcDbSpline
210
0.0
220
0.0
230
1.0
 70
     8
 71
     3
 72
     8
 73
     4
 74
     0
 42
0.0000000001
 43
0.0000000001
 40
0.0
 40
0.0
 40
0.0
 40
0.0
 40
1.0
 40
1.0
 40
1.0
 40
1.0
 10
-60.94211112626436
 20
-45.28784719149528
 30
0.0
 10
-60.942249201692
 20
-43.97267870727999
 30
0.0
 10
-62.00844262167573
 20
-42.90659721773353
 30
0.0
 10
-63.32361111313965
 20
-42.90659721773353
 30
0.0
  0
LINE
  5
7A
330
70
100
AcDbEntity
  8
0
 62
     7
370
    25
100
AcDbLine
 10
-60.94211112626436
 20
-45.287847191494
 30
0.0
 11
-60.9423611131337
 21
-59.57534714886447
 31
0.0
  0
SPLINE
  5
7B
330
70
100
AcDbEntity
  8
0
 62
     7
370
    25
100
AcDbSpline
210
0.0
220
0.0
230
1.0
 70
     8
 71
     3
 72
     8
 73
     4
 74
     0
 42
0.0000000001
 43
0.0000000001
 40
0.0
 40
0.0
 40
0.0
 40
0.0
 40
1.0
 40
1.0
 40
1.0
 40
1.0
 10
-60.94211115251403
 20
-59.57534713793505
 30
0.0
 10
-60.94197315613055
 20
-60.89032043889637
 30
0.0
 10
-59.87608439235984
 20
-61.95632113684353
 30
0.0
 10
-58.56111111313961
 20
-61.95659721773372
 30
0.0
  0
LINE
  5
7C
330
70
100
AcDbEntity
  8
0
 62
     7
370
    25
100
AcDbLine
 10
-58.56111111313961
 20
-61.95659721773372
 30
0.0
 11
-37.12986099505731
 21
-61.95659721773372
 31
0.0
  0
SPLINE
  5
7D
330
70
100
AcDbEntity
  8
0
 62
     7
370
    25
100
AcDbSpline
210
0.0
220
0.0
230
1.0
 70
     8
 71
     3
 72
     8
 73
     4
 74
     0
 42
0.0000000001
 43
0.0000000001
 40
0.0
 40
0.0
 40
0.0
 40
0.0
 40
1.0
 40
1.0
 40
1.0
 40
1.0
 10
-37.12986096882273
 20
-61.95609721774893
 30
0.0
 10
-35.81487103582604
 20
-61.95623520922693
 30
0.0
 10
-34.74874918432025
 20
-60.89033715072092
 30
0.0
 10
-34.74861111313937
 20
-59.57534721773289
 30
0.0
  0
SPLINE
  5
7E
330
70
100
AcDbEntity
  8
0
 62
     7
370
    25
100
AcDbSpline
210
0.0
220
0.0
230
1.0
 70
     8
 71
     3
 72
    14
 73
    10
 74
     0
 42
0.0000000001
 43
0.0000000001
 40
0.0
 40
0.0
 40
0.0
 40
0.0
 40
1.0
 40
1.0
 40
1.0
 40
2.0
 40
2.0
 40
2.0
 40
3.0
 40
3.0
 40
3.0
 40
3.0
 10
-25.2236111131396
 20
-59.57534734065163
 30
0.0
 10
-25.22361104525394
 20
-56.94509121958271
 30
0.0
 10
-27.35585486915231
 20
-54.8128472856198
 30
0.0
 10
-29.98611099022155
 20
-54.81284721773381
 30
0.0
 10
-32.61636711129079
 20
-54.81284714984782
 30
0.0
 10
-34.74861104525371
 20
-56.94509097374652
 30
0.0
 10
-34.7486111131397
 20
-59.57534709481545
 30
0.0
 10
-34.7486111131397
 20
-59.5753471289596
 30
0.0
 10
-34.7486111131397
 20
-59.57534718359002
 30
0.0
 10
-34.7486111131397
 20
-59.57534721773353
 30
0.0
  0
SPLINE
  5
7F
330
70
100
AcDbEntity
  8
0
 62
     7
370
    25
100
AcDbSpline
210
0.0
220
0.0
230
1.0
 70
     8
 71
     3
 72
     8
 73
     4
 74
     0
 42
0.0000000001
 43
0.0000000001
 40
0.0
 40
0.0
 40
0.0
 40
0.0
 40
1.0
 40
1.0
 40
1.0
 40
1.0
 10
-25.22411111312439
 20
-59.57534736214213
 30
0.0
 10
-25.22397296218835
 20
-60.89061343746046
 30
0.0
 10
-24.15762718846673
 20
-61.95673528891524
 30
0.0
 10
-22.84236111313973
 20
-61.95659721773372
 30
0.0
  0
LINE
  5
80
330
70
100
AcDbEntity
  8
0
 62
     7
370
    25
100
AcDbLine
 10
-22.84236111313941
 20
-61.95659721773372
 30
0.0
 11
65.26388926733398
 21
-61.95659721773372
 31
0.0
  0
SPLINE
  5
81
330
70
100
AcDbEntity
  8
0
 62
     7
370
    25
100
AcDbSpline
210
0.0
220
0.0
230
1.0
 70
     8
 71
     3
 72
    11
 73
     7
 74
     0
 42
0.0000000001
 43
0.0000000001
 40
0.0
 40
0.0
 40
0.0
 40
0.0
 40
1.0
 40
1.0
 40
1.0
 40
2.0
 40
2.0
 40
2.0
 40
2.0
 10
65.26388934602232
 20
-61.9558471784515
 30
0.0
 10
66.57874124248699
 20
-61.95612306723882
 30
0.0
 10
67.6448629587916
 20
-60.89044865503666
 30
0.0
 10
67.64513884757828
 20
-59.57559675857198
 30
0.0
 10
67.64513886503185
 20
-59.57551357829421
 30
0.0
 10
67.64513887812572
 20
-59.57543039801195
 30
0.0
 10
67.64513888686053
 20
-59.57534721773289
 30
0.0
  0
LINE
  5
82
330
70
100
AcDbEntity
  8
0
 62
     7
370
    25
100
AcDbLine
 10
67.64513888686053
 20
-59.57534721773353
 30
0.0
 11
67.64513888686053
 21
-45.28784721773371
 31
0.0
  0
SPLINE
  5
83
330
70
100
AcDbEntity
  8
0
 62
     7
370
    25
100
AcDbSpline
210
0.0
220
0.0
230
1.0
 70
     8
 71
     3
 72
     8
 73
     4
 74
     0
 42
0.0000000001
 43
0.0000000001
 40
0.0
 40
0.0
 40
0.0
 40
0.0
 40
1.0
 40
1.0
 40
1.0
 40
1.0
 10
70.02638888686071
 20
-42.90684720461056
 30
0.0
 10
68.71135844909009
 20
-42.90684720461056
 30
0.0
 10
67.64527694779861
 20
-43.97281678721043
 30
0.0
 10
67.64513888686053
 20
-45.28784721773307
 30
0.0
  0
LINE
  5
84
330
70
100
AcDbEntity
  8
0
 62
     7
370
    25
100
AcDbLine
 10
70.02638888686071
 20
-42.90684720461056
 30
0.0
 11
112.8888890016672
 21
-42.90659721773674
 31
0.0
  0
SPLINE
  5
85
330
70
100
AcDbEntity
  8
0
 62
     7
370
    25
100
AcDbSpline
210
0.0
220
0.0
230
1.0
 70
     8
 71
     3
 72
     8
 73
     4
 74
     0
 42
0.0000000001
 43
0.0000000001
 40
0.0
 40
0.0
 40
0.0
 40
0.0
 40
1.0
 40
1.0
 40
1.0
 40
1.0
 10
112.8888890286404
 20
-42.90684717834261
 30
0.0
 10
114.204000270766
 20
-42.90657101917861
 30
0.0
 10
115.270000846422
 20
-41.84045848160936
 30
0.0
 10
115.270138886861
 20
-40.52534721773334
 30
0.0
  0
LINE
  5
86
330
70
100
AcDbEntity
  8
0
 62
     7
370
    25
100
AcDbLine
 10
115.270138886861
 20
-40.52534721773398
 30
0.0
 11
115.2701388868603
 21
69.01215272087512
 31
0.0
  0
SPLINE
  5
87
330
70
100
AcDbEntity
  8
0
 62
     7
370
    25
100
AcDbSpline
210
0.0
220
0.0
230
1.0
 70
     8
 71
     3
 72
     8
 73
     4
 74
     0
 42
0.0000000001
 43
0.0000000001
 40
0.0
 40
0.0
 40
0.0
 40
0.0
 40
1.0
 40
1.0
 40
1.0
 40
1.0
 10
115.2698789262342
 20
69.01215270723324
 30
0.0
 10
115.2697409272201
 20
70.32712048348571
 30
0.0
 10
114.2038566413722
 20
71.39311670137669
 30
0.0
 10
112.8888888868602
 20
71.39339278226593
 30
0.0
  0
LINE
  5
88
330
70
100
AcDbEntity
  8
0
 62
     7
370
    25
100
AcDbLine
 10
112.8888888868602
 20
71.39339278226593
 30
0.0
 11
-39.51111111681251
 21
71.39340278226633
 31
0.0
  0
SPLINE
  5
89
330
70
100
AcDbEntity
  8
0
 62
     7
370
    25
100
AcDbSpline
210
0.0
220
0.0
230
1.0
 70
     8
 71
     3
 72
     8
 73
     4
 74
     0
 42
0.0000000001
 43
0.0000000001
 40
0.0
 40
0.0
 40
0.0
 40
0.0
 40
1.0
 40
1.0
 40
1.0
 40
1.0
 10
-41.89212115250846
 20
73.77465280736593
 30
0.0
 10
-41.89198312592471
 20
72.45967400717444
 30
0.0
 10
-40.82608989736512
 20
71.3936688663399
 30
0.0
 10
-39.51111111891214
 20
71.39339278226721
 30
0.0
  0
LINE
  5
8A
330
70
100
AcDbEntity
  8
0
 62
     7
370
    25
100
AcDbLine
 10
-41.89212115250814
 20
73.77465280736625
 30
0.0
 11
-41.8923611131396
 21
76.15590278226638
 31
0.0
  0
SPLINE
  5
8B
330
70
100
AcDbEntity
  8
0
 62
     7
370
    25
100
AcDbSpline
210
0.0
220
0.0
230
1.0
 70
     8
 71
     3
 72
     8
 73
     4
 74
     0
 42
0.0000000001
 43
0.0000000001
 40
0.0
 40
0.0
 40
0.0
 40
0.0
 40
1.0
 40
1.0
 40
1.0
 40
1.0
 10
-41.8923611131396
 20
76.15590278226638
 30
0.0
 10
-41.8923611131396
 20
77.47103084280084
 30
0.0
 10
-42.958483052605
 20
78.53715278226625
 30
0.0
 10
-44.27361111313946
 20
78.53715278226625
 30
0.0
  0
LINE
  5
8C
330
70
100
AcDbEntity
  8
0
 62
     7
370
    25
100
AcDbLine
 10
-44.27361111313946
 20
78.53715278226625
 30
0.0
 11
-53.79861111313957
 21
78.53715278226625
 31
0.0
  0
SPLINE
  5
8D
330
70
100
AcDbEntity
  8
0
 62
     7
370
    25
100
AcDbSpline
210
0.0
220
0.0
230
1.0
 70
     8
 71
     3
 72
     8
 73
     4
 74
     0
 42
0.0000000001
 43
0.0000000001
 40
0.0
 40
0.0
 40
0.0
 40
0.0
 40
1.0
 40
1.0
 40
1.0
 40
1.0
 10
-53.79861111313957
 20
78.53715278226625
 30
0.0
 10
-55.11373917367403
 20
78.53715278226625
 30
0.0
 10
-56.17986111313943
 20
77.47103084280084
 30
0.0
 10
-56.17986111313943
 20
76.15590278226638
 30
0.0
  0
LINE
  5
8E
330
70
100
AcDbEntity
  8
0
 62
     7
370
    25
100
AcDbLine
 10
-56.17986111313975
 20
76.15590278226638
 30
0.0
 11
-56.17986111313975
 21
73.7746527822662
 31
0.0
  0
SPLINE
  5
8F
330
70
100
AcDbEntity
  8
0
 62
     7
370
    25
100
AcDbSpline
210
0.0
220
0.0
230
1.0
 70
     8
 71
     3
 72
     8
 73
     4
 74
     0
 42
0.0000000001
 43
0.0000000001
 40
0.0
 40
0.0
 40
0.0
 40
0.0
 40
1.0
 40
1.0
 40
1.0
 40
1.0
 10
-58.5611110627595
 20
71.39315282163832
 30
0.0
 10
-57.24599978493198
 20
71.393428930342
 30
0.0
 10
-56.17999915358163
 20
72.45954148269921
 30
0.0
 10
-56.17986111313911
 20
73.77465278226684
 30
0.0
  0
LINE
  5
90
330
70
100
AcDbEntity
  8
0
 62
     7
370
    25
100
AcDbLine
 10
-58.5611110627595
 20
71.39315282163832
 30
0.0
 11
-96.66111123491651
 21
71.39340278219446
 31
0.0
  0
SPLINE
  5
91
330
70
100
AcDbEntity
  8
0
 62
     7
370
    25
100
AcDbSpline
210
0.0
220
0.0
230
1.0
 70
     8
 71
     3
 72
     8
 73
     4
 74
     0
 42
0.0000000001
 43
0.0000000001
 40
0.0
 40
0.0
 40
0.0
 40
0.0
 40
1.0
 40
1.0
 40
1.0
 40
1.0
 10
-96.66111126034159
 20
71.39365274287381
 30
0.0
 10
-97.97622250034928
 20
71.39337658071692
 30
0.0
 10
-99.04222307270151
 20
70.32726404402456
 30
0.0
 10
-99.04236111314018
 20
69.0121527822655
 30
0.0
  0
LINE
  5
92
330
70
100
AcDbEntity
  8
0
 62
     7
370
    25
100
AcDbLine
 10
-99.04236111313986
 20
69.01215278226614
 30
0.0
 11
-99.04236111313954
 21
-40.52534715870409
 31
0.0
  0
SPLINE
  5
93
330
70
100
AcDbEntity
  8
0
 62
     7
370
    25
100
AcDbSpline
210
0.0
220
0.0
230
1.0
 70
     8
 71
     3
 72
     8
 73
     4
 74
     0
 42
0.0000000001
 43
0.0000000001
 40
0.0
 40
0.0
 40
0.0
 40
0.0
 40
1.0
 40
1.0
 40
1.0
 40
1.0
 10
-99.04211115251314
 20
-40.52534714558713
 30
0.0
 10
-99.04197315190536
 20
-41.8403204435594
 30
0.0
 10
-97.97608438937183
 20
-42.90632113684462
 30
0.0
 10
-96.66111111313966
 20
-42.90659721773417
 30
0.0
  0
CIRCLE
  5
94
330
70
100
AcDbEntity
  8
0
 62
     7
370
    25
100
AcDbCircle
 10
108.2851388868603
 20
66.94840278226611
 30
0.0
 40
1.499999999999932
  0
CIRCLE
  5
95
330
70
100
AcDbEntity
  8
0
 62
     7
370
    25
100
AcDbCircle
 10
101.9351388868606
 20
64.40840278226613
 30
0.0
 40
1.500000000000133
  0
CIRCLE
  5
96
330
70
100
AcDbEntity
  8
0
 62
     7
370
    25
100
AcDbCircle
 10
110.8251388868605
 20
61.86840278226624
 30
0.0
 40
0.8750000000000309
  0
CIRCLE
  5
97
330
70
100
AcDbEntity
  8
0
 62
     7
370
    25
100
AcDbCircle
 10
105.7451388868603
 20
61.86840278226616
 30
0.0
 40
1.99390000000002
  0
CIRCLE
  5
98
330
70
100
AcDbEntity
  8
0
 62
     7
370
    25
100
AcDbCircle
 10
100.6651388868603
 20
61.86840278226624
 30
0.0
 40
0.8750000000000309
  0
CIRCLE
  5
99
330
70
100
AcDbEntity
  8
0
 62
     7
370
    25
100
AcDbCircle
 10
89.23513888686045
 20
66.94840278226611
 30
0.0
 40
1.500000000000093
  0
CIRCLE
  5
9A
330
70
100
AcDbEntity
  8
0
 62
     7
370
    25
100
AcDbCircle
 10
91.77513888686036
 20
61.86840278226624
 30
0.0
 40
0.8750000000000309
  0
CIRCLE
  5
9B
330
70
100
AcDbEntity
  8
0
 62
     7
370
    25
100
AcDbCircle
 10
86.69513888686056
 20
61.86840278226616
 30
0.0
 40
1.993899999999939
  0
CIRCLE
  5
9C
330
70
100
AcDbEntity
  8
0
 62
     7
370
    25
100
AcDbCircle
 10
82.8851388868604
 20
64.40840278226613
 30
0.0
 40
1.500000000000133
  0
CIRCLE
  5
9D
330
70
100
AcDbEntity
  8
0
 62
     7
370
    25
100
AcDbCircle
 10
81.61513888686044
 20
61.86840278226624
 30
0.0
 40
0.8749999999998705
  0
CIRCLE
  5
9E
330
70
100
AcDbEntity
  8
0
 62
     7
370
    25
100
AcDbCircle
 10
70.18513888686043
 20
66.94840278226611
 30
0.0
 40
1.499999999999852
  0
CIRCLE
  5
9F
330
70
100
AcDbEntity
  8
0
 62
     7
370
    25
100
AcDbCircle
 10
63.83513888686053
 20
64.40840278226613
 30
0.0
 40
1.499999999999972
  0
CIRCLE
  5
A0
330
70
100
AcDbEntity
  8
0
 62
     7
370
    25
100
AcDbCircle
 10
72.72513888686049
 20
61.86840278226624
 30
0.0
 40
0.8749999999998705
  0
CIRCLE
  5
A1
330
70
100
AcDbEntity
  8
0
 62
     7
370
    25
100
AcDbCircle
 10
67.64513888686053
 20
61.86840278226616
 30
0.0
 40
1.99390000000002
  0
CIRCLE
  5
A2
330
70
100
AcDbEntity
  8
0
 62
     7
370
    25
100
AcDbCircle
 10
62.56513888686058
 20
61.86840278226624
 30
0.0
 40
0.8750000000000309
  0
CIRCLE
  5
A3
330
70
100
AcDbEntity
  8
0
 62
     7
370
    25
100
AcDbCircle
 10
109.5551388868604
 20
53.53402778226623
 30
0.0
 40
0.4000000000000142
  0
CIRCLE
  5
A4
330
70
100
AcDbEntity
  8
0
 62
     7
370
    25
100
AcDbCircle
 10
101.9351388868606
 20
53.53402778226623
 30
0.0
 40
0.3999999999999339
  0
CIRCLE
  5
A5
330
70
100
AcDbEntity
  8
0
 62
     7
370
    25
100
AcDbCircle
 10
90.50513888686024
 20
53.53402778226623
 30
0.0
 40
0.4000000000000142
  0
CIRCLE
  5
A6
330
70
100
AcDbEntity
  8
0
 62
     7
370
    25
100
AcDbCircle
 10
98.76013888686056
 20
47.89840278226615
 30
0.0
 40
1.500000000000133
  0
CIRCLE
  5
A7
330
70
100
AcDbEntity
  8
0
 62
     7
370
    25
100
AcDbCircle
 10
101.3001388868604
 20
42.81840278226613
 30
0.0
 40
0.8750000000001511
  0
CIRCLE
  5
A8
330
70
100
AcDbEntity
  8
0
 62
     7
370
    25
100
AcDbCircle
 10
92.41013888686049
 20
45.35840278226626
 30
0.0
 40
1.500000000000133
  0
CIRCLE
  5
A9
330
70
100
AcDbEntity
  8
0
 62
     7
370
    25
100
AcDbCircle
 10
96.22013888686034
 20
42.81840278226613
 30
0.0
 40
1.993899999999859
  0
CIRCLE
  5
AA
330
70
100
AcDbEntity
  8
0
 62
     7
370
    25
100
AcDbCircle
 10
91.14013888686038
 20
42.81840278226613
 30
0.0
 40
0.8750000000002312
  0
CIRCLE
  5
AB
330
70
100
AcDbEntity
  8
0
 62
     7
370
    25
100
AcDbCircle
 10
82.88513888686056
 20
53.53402778226623
 30
0.0
 40
0.4000000000000142
  0
CIRCLE
  5
AC
330
70
100
AcDbEntity
  8
0
 62
     7
370
    25
100
AcDbCircle
 10
71.45513888686069
 20
53.53402778226623
 30
0.0
 40
0.4000000000000142
  0
CIRCLE
  5
AD
330
70
100
AcDbEntity
  8
0
 62
     7
370
    25
100
AcDbCircle
 10
63.83513888686036
 20
53.53402778226623
 30
0.0
 40
0.4000000000000142
  0
CIRCLE
  5
AE
330
70
100
AcDbEntity
  8
0
 62
     7
370
    25
100
AcDbCircle
 10
79.71013888686036
 20
47.89840278226615
 30
0.0
 40
1.500000000000133
  0
CIRCLE
  5
AF
330
70
100
AcDbEntity
  8
0
 62
     7
370
    25
100
AcDbCircle
 10
82.25013888686042
 20
42.81840278226613
 30
0.0
 40
0.8750000000002312
  0
CIRCLE
  5
B0
330
70
100
AcDbEntity
  8
0
 62
     7
370
    25
100
AcDbCircle
 10
73.36013888686046
 20
45.35840278226626
 30
0.0
 40
1.499999999999892
  0
CIRCLE
  5
B1
330
70
100
AcDbEntity
  8
0
 62
     7
370
    25
100
AcDbCircle
 10
77.17013888686063
 20
42.81840278226613
 30
0.0
 40
1.9939000000001
  0
CIRCLE
  5
B2
330
70
100
AcDbEntity
  8
0
 62
     7
370
    25
100
AcDbCircle
 10
60.66013888686049
 20
47.89840278226615
 30
0.0
 40
1.499999999999972
  0
CIRCLE
  5
B3
330
70
100
AcDbEntity
  8
0
 62
     7
370
    25
100
AcDbCircle
 10
72.09013888686036
 20
42.81840278226613
 30
0.0
 40
0.8749999999999907
  0
CIRCLE
  5
B4
330
70
100
AcDbEntity
  8
0
 62
     7
370
    25
100
AcDbCircle
 10
63.20013888686039
 20
42.81840278226613
 30
0.0
 40
0.8749999999999907
  0
CIRCLE
  5
B5
330
70
100
AcDbEntity
  8
0
 62
     7
370
    25
100
AcDbCircle
 10
51.13513888686039
 20
66.94840278226611
 30
0.0
 40
1.499999999999932
  0
CIRCLE
  5
B6
330
70
100
AcDbEntity
  8
0
 62
     7
370
    25
100
AcDbCircle
 10
53.6751388868603
 20
61.86840278226624
 30
0.0
 40
0.8749999999998705
  0
CIRCLE
  5
B7
330
70
100
AcDbEntity
  8
0
 62
     7
370
    25
100
AcDbCircle
 10
48.59513888686034
 20
61.86840278226616
 30
0.0
 40
1.99390000000002
  0
CIRCLE
  5
B8
330
70
100
AcDbEntity
  8
0
 62
     7
370
    25
100
AcDbCircle
 10
44.78513888686033
 20
64.40840278226613
 30
0.0
 40
1.499999999999972
  0
CIRCLE
  5
B9
330
70
100
AcDbEntity
  8
0
 62
     7
370
    25
100
AcDbCircle
 10
43.51513888686038
 20
61.86840278226624
 30
0.0
 40
0.8750000000000309
  0
CIRCLE
  5
BA
330
70
100
AcDbEntity
  8
0
 62
     7
370
    25
100
AcDbCircle
 10
34.62513888686043
 20
61.86840278226624
 30
0.0
 40
0.8750000000000309
  0
CIRCLE
  5
BB
330
70
100
AcDbEntity
  8
0
 62
     7
370
    25
100
AcDbCircle
 10
12.8763888868603
 20
68.85340278226611
 30
0.0
 40
1.523999999999825
  0
CIRCLE
  5
BC
330
70
100
AcDbEntity
  8
0
 62
     7
370
    25
100
AcDbCircle
 10
32.08513888686053
 20
66.94840278226611
 30
0.0
 40
1.500000000000093
  0
CIRCLE
  5
BD
330
70
100
AcDbEntity
  8
0
 62
     7
370
    25
100
AcDbCircle
 10
25.73513888686047
 20
64.40840278226613
 30
0.0
 40
1.500000000000133
  0
CIRCLE
  5
BE
330
70
100
AcDbEntity
  8
0
 62
     7
370
    25
100
AcDbCircle
 10
29.54513888686031
 20
61.86840278226616
 30
0.0
 40
1.993899999999779
  0
CIRCLE
  5
BF
330
70
100
AcDbEntity
  8
0
 62
     7
370
    25
100
AcDbCircle
 10
24.46513888686052
 20
61.86840278226624
 30
0.0
 40
0.8749999999998705
  0
CIRCLE
  5
C0
330
70
100
AcDbEntity
  8
0
 62
     7
370
    25
100
AcDbCircle
 10
52.4051388868605
 20
53.53402778226623
 30
0.0
 40
0.4000000000000142
  0
CIRCLE
  5
C1
330
70
100
AcDbEntity
  8
0
 62
     7
370
    25
100
AcDbCircle
 10
44.78513888686017
 20
53.53402778226623
 30
0.0
 40
0.4000000000000142
  0
CIRCLE
  5
C2
330
70
100
AcDbEntity
  8
0
 62
     7
370
    25
100
AcDbCircle
 10
54.31013888686043
 20
45.35840278226626
 30
0.0
 40
1.499999999999972
  0
CIRCLE
  5
C3
330
70
100
AcDbEntity
  8
0
 62
     7
370
    25
100
AcDbCircle
 10
58.12013888686044
 20
42.81840278226613
 30
0.0
 40
1.9939000000001
  0
CIRCLE
  5
C4
330
70
100
AcDbEntity
  8
0
 62
     7
370
    25
100
AcDbCircle
 10
53.04013888686048
 20
42.81840278226613
 30
0.0
 40
0.8750000000001511
  0
CIRCLE
  5
C5
330
70
100
AcDbEntity
  8
0
 62
     7
370
    25
100
AcDbCircle
 10
41.61013888686031
 20
47.89840278226615
 30
0.0
 40
1.499999999999972
  0
CIRCLE
  5
C6
330
70
100
AcDbEntity
  8
0
 62
     7
370
    25
100
AcDbCircle
 10
44.15013888686052
 20
42.81840278226613
 30
0.0
 40
0.8750000000001511
  0
CIRCLE
  5
C7
330
70
100
AcDbEntity
  8
0
 62
     7
370
    25
100
AcDbCircle
 10
35.26013888686056
 20
45.35840278226626
 30
0.0
 40
1.500000000000133
  0
CIRCLE
  5
C8
330
70
100
AcDbEntity
  8
0
 62
     7
370
    25
100
AcDbCircle
 10
39.07013888686025
 20
42.81840278226613
 30
0.0
 40
1.9939000000001
  0
CIRCLE
  5
C9
330
70
100
AcDbEntity
  8
0
 62
     7
370
    25
100
AcDbCircle
 10
33.35513888686032
 20
53.53402778226623
 30
0.0
 40
0.4000000000000142
  0
CIRCLE
  5
CA
330
70
100
AcDbEntity
  8
0
 62
     7
370
    25
100
AcDbCircle
 10
25.73513888686063
 20
53.53402778226623
 30
0.0
 40
0.4000000000000142
  0
CIRCLE
  5
CB
330
70
100
AcDbEntity
  8
0
 62
     7
370
    25
100
AcDbCircle
 10
12.8763888868603
 20
53.61340278226617
 30
0.0
 40
1.993899999999859
  0
CIRCLE
  5
CC
330
70
100
AcDbEntity
  8
0
 62
     7
370
    25
100
AcDbCircle
 10
22.56013888686043
 20
47.89840278226615
 30
0.0
 40
1.500000000000133
  0
CIRCLE
  5
CD
330
70
100
AcDbEntity
  8
0
 62
     7
370
    25
100
AcDbCircle
 10
33.99013888686045
 20
42.81840278226613
 30
0.0
 40
0.8750000000002312
  0
CIRCLE
  5
CE
330
70
100
AcDbEntity
  8
0
 62
     7
370
    25
100
AcDbCircle
 10
25.10013888686033
 20
42.81840278226613
 30
0.0
 40
0.8750000000001511
  0
CIRCLE
  5
CF
330
70
100
AcDbEntity
  8
0
 62
     7
370
    25
100
AcDbCircle
 10
16.21013888686037
 20
45.35840278226626
 30
0.0
 40
1.500000000000133
  0
CIRCLE
  5
D0
330
70
100
AcDbEntity
  8
0
 62
     7
370
    25
100
AcDbCircle
 10
20.02013888686054
 20
42.81840278226613
 30
0.0
 40
1.99390000000002
  0
CIRCLE
  5
D1
330
70
100
AcDbEntity
  8
0
 62
     7
370
    25
100
AcDbCircle
 10
14.94013888686042
 20
42.81840278226613
 30
0.0
 40
0.8749999999999907
  0
CIRCLE
  5
D2
330
70
100
AcDbEntity
  8
0
 62
     7
370
    25
100
AcDbCircle
 10
100.0301388868603
 20
34.48402778226613
 30
0.0
 40
0.399999999999974
  0
CIRCLE
  5
D3
330
70
100
AcDbEntity
  8
0
 62
     7
370
    25
100
AcDbCircle
 10
92.41013888686065
 20
34.48402778226613
 30
0.0
 40
0.399999999999974
  0
CIRCLE
  5
D4
330
70
100
AcDbEntity
  8
0
 62
     7
370
    25
100
AcDbCircle
 10
86.69513888686056
 20
35.67465278226622
 30
0.0
 40
2.110000000000146
  0
CIRCLE
  5
D5
330
70
100
AcDbEntity
  8
0
 62
     7
370
    25
100
AcDbCircle
 10
103.5226388868604
 20
28.84840278226629
 30
0.0
 40
1.499999999999892
  0
CIRCLE
  5
D6
330
70
100
AcDbEntity
  8
0
 62
     7
370
    25
100
AcDbCircle
 10
97.17263888686039
 20
26.30840278226607
 30
0.0
 40
1.499999999999892
  0
CIRCLE
  5
D7
330
70
100
AcDbEntity
  8
0
 62
     7
370
    25
100
AcDbCircle
 10
80.98013888686017
 20
34.48402778226613
 30
0.0
 40
0.399999999999974
  0
CIRCLE
  5
D8
330
70
100
AcDbEntity
  8
0
 62
     7
370
    25
100
AcDbCircle
 10
73.36013888686046
 20
34.48402778226613
 30
0.0
 40
0.399999999999974
  0
CIRCLE
  5
D9
330
70
100
AcDbEntity
  8
0
 62
     7
370
    25
100
AcDbCircle
 10
61.9301388868606
 20
34.48402778226613
 30
0.0
 40
0.399999999999974
  0
CIRCLE
  5
DA
330
70
100
AcDbEntity
  8
0
 62
     7
370
    25
100
AcDbCircle
 10
84.47263888686041
 20
28.84840278226629
 30
0.0
 40
1.499999999999972
  0
CIRCLE
  5
DB
330
70
100
AcDbEntity
  8
0
 62
     7
370
    25
100
AcDbCircle
 10
78.12263888686034
 20
26.30840278226607
 30
0.0
 40
1.499999999999972
  0
CIRCLE
  5
DC
330
70
100
AcDbEntity
  8
0
 62
     7
370
    25
100
AcDbCircle
 10
65.42263888686054
 20
28.84840278226629
 30
0.0
 40
1.500000000000133
  0
CIRCLE
  5
DD
330
70
100
AcDbEntity
  8
0
 62
     7
370
    25
100
AcDbCircle
 10
106.0626388868605
 20
23.76840278226618
 30
0.0
 40
0.8749999999998705
  0
CIRCLE
  5
DE
330
70
100
AcDbEntity
  8
0
 62
     7
370
    25
100
AcDbCircle
 10
100.9826388868605
 20
23.76840278226618
 30
0.0
 40
1.99390000000014
  0
CIRCLE
  5
DF
330
70
100
AcDbEntity
  8
0
 62
     7
370
    25
100
AcDbCircle
 10
95.90263888686028
 20
23.76840278226618
 30
0.0
 40
0.8749999999998705
  0
CIRCLE
  5
E0
330
70
100
AcDbEntity
  8
0
 62
     7
370
    25
100
AcDbCircle
 10
87.01263888686032
 20
23.76840278226618
 30
0.0
 40
0.8749999999998705
  0
CIRCLE
  5
E1
330
70
100
AcDbEntity
  8
0
 62
     7
370
    25
100
AcDbCircle
 10
104.7926388868607
 20
15.43402778226617
 30
0.0
 40
0.4000000000000142
  0
CIRCLE
  5
E2
330
70
100
AcDbEntity
  8
0
 62
     7
370
    25
100
AcDbCircle
 10
108.2851388868603
 20
9.798402782266098
 30
0.0
 40
1.499999999999972
  0
CIRCLE
  5
E3
330
70
100
AcDbEntity
  8
0
 62
     7
370
    25
100
AcDbCircle
 10
97.17263888686039
 20
15.43402778226617
 30
0.0
 40
0.4000000000000142
  0
CIRCLE
  5
E4
330
70
100
AcDbEntity
  8
0
 62
     7
370
    25
100
AcDbCircle
 10
89.23513888686045
 20
9.798402782266098
 30
0.0
 40
1.500000000000133
  0
CIRCLE
  5
E5
330
70
100
AcDbEntity
  8
0
 62
     7
370
    25
100
AcDbCircle
 10
81.93263888686036
 20
23.76840278226618
 30
0.0
 40
1.99390000000014
  0
CIRCLE
  5
E6
330
70
100
AcDbEntity
  8
0
 62
     7
370
    25
100
AcDbCircle
 10
76.85263888686041
 20
23.76840278226618
 30
0.0
 40
0.8750000000000309
  0
CIRCLE
  5
E7
330
70
100
AcDbEntity
  8
0
 62
     7
370
    25
100
AcDbCircle
 10
67.96263888686045
 20
23.76840278226618
 30
0.0
 40
0.8750000000000309
  0
CIRCLE
  5
E8
330
70
100
AcDbEntity
  8
0
 62
     7
370
    25
100
AcDbCircle
 10
62.88263888686032
 20
23.76840278226618
 30
0.0
 40
1.9938999999999
  0
CIRCLE
  5
E9
330
70
100
AcDbEntity
  8
0
 62
     7
370
    25
100
AcDbCircle
 10
85.74263888686052
 20
15.43402778226617
 30
0.0
 40
0.4000000000000142
  0
CIRCLE
  5
EA
330
70
100
AcDbEntity
  8
0
 62
     7
370
    25
100
AcDbCircle
 10
78.12263888686018
 20
15.43402778226617
 30
0.0
 40
0.4000000000000142
  0
CIRCLE
  5
EB
330
70
100
AcDbEntity
  8
0
 62
     7
370
    25
100
AcDbCircle
 10
66.69263888686034
 20
15.43402778226617
 30
0.0
 40
0.4000000000000142
  0
CIRCLE
  5
EC
330
70
100
AcDbEntity
  8
0
 62
     7
370
    25
100
AcDbCircle
 10
70.18513888686043
 20
9.798402782266098
 30
0.0
 40
1.499999999999892
  0
CIRCLE
  5
ED
330
70
100
AcDbEntity
  8
0
 62
     7
370
    25
100
AcDbCircle
 10
54.31013888686027
 20
34.48402778226613
 30
0.0
 40
0.399999999999974
  0
CIRCLE
  5
EE
330
70
100
AcDbEntity
  8
0
 62
     7
370
    25
100
AcDbCircle
 10
42.88013888686041
 20
34.48402778226613
 30
0.0
 40
0.399999999999974
  0
CIRCLE
  5
EF
330
70
100
AcDbEntity
  8
0
 62
     7
370
    25
100
AcDbCircle
 10
35.26013888686073
 20
34.48402778226613
 30
0.0
 40
0.399999999999974
  0
CIRCLE
  5
F0
330
70
100
AcDbEntity
  8
0
 62
     7
370
    25
100
AcDbCircle
 10
59.07263888686048
 20
26.30840278226607
 30
0.0
 40
1.500000000000133
  0
CIRCLE
  5
F1
330
70
100
AcDbEntity
  8
0
 62
     7
370
    25
100
AcDbCircle
 10
46.37263888686034
 20
28.84840278226629
 30
0.0
 40
1.500000000000133
  0
CIRCLE
  5
F2
330
70
100
AcDbEntity
  8
0
 62
     7
370
    25
100
AcDbCircle
 10
40.02263888686044
 20
26.30840278226607
 30
0.0
 40
1.499999999999892
  0
CIRCLE
  5
F3
330
70
100
AcDbEntity
  8
0
 62
     7
370
    25
100
AcDbCircle
 10
23.83013888686022
 20
34.48402778226613
 30
0.0
 40
0.399999999999974
  0
CIRCLE
  5
F4
330
70
100
AcDbEntity
  8
0
 62
     7
370
    25
100
AcDbCircle
 10
16.21013888686053
 20
34.48402778226613
 30
0.0
 40
0.399999999999974
  0
CIRCLE
  5
F5
330
70
100
AcDbEntity
  8
0
 62
     7
370
    25
100
AcDbCircle
 10
27.32263888686048
 20
28.84840278226629
 30
0.0
 40
1.499999999999972
  0
CIRCLE
  5
F6
330
70
100
AcDbEntity
  8
0
 62
     7
370
    25
100
AcDbCircle
 10
20.97263888686041
 20
26.30840278226607
 30
0.0
 40
1.499999999999972
  0
CIRCLE
  5
F7
330
70
100
AcDbEntity
  8
0
 62
     7
370
    25
100
AcDbCircle
 10
8.27263888686029
 20
28.84840278226629
 30
0.0
 40
1.499999999999972
  0
CIRCLE
  5
F8
330
70
100
AcDbEntity
  8
0
 62
     7
370
    25
100
AcDbCircle
 10
57.80263888686053
 20
23.76840278226618
 30
0.0
 40
0.8749999999998705
  0
CIRCLE
  5
F9
330
70
100
AcDbEntity
  8
0
 62
     7
370
    25
100
AcDbCircle
 10
48.9126388868604
 20
23.76840278226618
 30
0.0
 40
0.8750000000001111
  0
CIRCLE
  5
FA
330
70
100
AcDbEntity
  8
0
 62
     7
370
    25
100
AcDbCircle
 10
43.83263888686045
 20
23.76840278226618
 30
0.0
 40
1.99390000000006
  0
CIRCLE
  5
FB
330
70
100
AcDbEntity
  8
0
 62
     7
370
    25
100
AcDbCircle
 10
38.75263888686034
 20
23.76840278226618
 30
0.0
 40
0.8749999999998705
  0
CIRCLE
  5
FC
330
70
100
AcDbEntity
  8
0
 62
     7
370
    25
100
AcDbCircle
 10
59.07263888686063
 20
15.43402778226617
 30
0.0
 40
0.4000000000000142
  0
CIRCLE
  5
FD
330
70
100
AcDbEntity
  8
0
 62
     7
370
    25
100
AcDbCircle
 10
47.64263888686014
 20
15.43402778226617
 30
0.0
 40
0.4000000000000142
  0
CIRCLE
  5
FE
330
70
100
AcDbEntity
  8
0
 62
     7
370
    25
100
AcDbCircle
 10
51.13513888686039
 20
9.798402782266098
 30
0.0
 40
1.499999999999972
  0
CIRCLE
  5
FF
330
70
100
AcDbEntity
  8
0
 62
     7
370
    25
100
AcDbCircle
 10
40.02263888686044
 20
15.43402778226617
 30
0.0
 40
0.4000000000000142
  0
CIRCLE
  5
100
330
70
100
AcDbEntity
  8
0
 62
     7
370
    25
100
AcDbCircle
 10
29.86263888686038
 20
23.76840278226618
 30
0.0
 40
0.8749999999998705
  0
CIRCLE
  5
101
330
70
100
AcDbEntity
  8
0
 62
     7
370
    25
100
AcDbCircle
 10
24.78263888686043
 20
23.76840278226618
 30
0.0
 40
1.99390000000014
  0
CIRCLE
  5
102
330
70
100
AcDbEntity
  8
0
 62
     7
370
    25
100
AcDbCircle
 10
19.70263888686047
 20
23.76840278226618
 30
0.0
 40
0.8750000000000309
  0
CIRCLE
  5
103
330
70
100
AcDbEntity
  8
0
 62
     7
370
    25
100
AcDbCircle
 10
10.81263888686051
 20
23.76840278226618
 30
0.0
 40
0.8750000000000309
  0
CIRCLE
  5
104
330
70
100
AcDbEntity
  8
0
 62
     7
370
    25
100
AcDbCircle
 10
28.59263888686059
 20
15.43402778226617
 30
0.0
 40
0.4000000000000142
  0
CIRCLE
  5
105
330
70
100
AcDbEntity
  8
0
 62
     7
370
    25
100
AcDbCircle
 10
32.08513888686053
 20
9.798402782266098
 30
0.0
 40
1.500000000000133
  0
CIRCLE
  5
106
330
70
100
AcDbEntity
  8
0
 62
     7
370
    25
100
AcDbCircle
 10
20.97263888686025
 20
15.43402778226617
 30
0.0
 40
0.4000000000000142
  0
CIRCLE
  5
107
330
70
100
AcDbEntity
  8
0
 62
     7
370
    25
100
AcDbCircle
 10
9.542638886860398
 20
15.43402778226617
 30
0.0
 40
0.4000000000000142
  0
CIRCLE
  5
108
330
70
100
AcDbEntity
  8
0
 62
     7
370
    25
100
AcDbCircle
 10
13.03513888686034
 20
9.798402782266098
 30
0.0
 40
1.500000000000133
  0
CIRCLE
  5
109
330
70
100
AcDbEntity
  8
0
 62
     7
370
    25
100
AcDbCircle
 10
-10.93611111313953
 20
68.85340278226611
 30
0.0
 40
1.524000000000026
  0
CIRCLE
  5
10A
330
70
100
AcDbEntity
  8
0
 62
     7
370
    25
100
AcDbCircle
 10
3.510138886860402
 20
66.94840278226611
 30
0.0
 40
1.500000000000012
  0
CIRCLE
  5
10B
330
70
100
AcDbEntity
  8
0
 62
     7
370
    25
100
AcDbCircle
 10
-2.83986111313966
 20
64.40840278226613
 30
0.0
 40
1.500000000000052
  0
CIRCLE
  5
10C
330
70
100
AcDbEntity
  8
0
 62
     7
370
    25
100
AcDbCircle
 10
6.05013888686038
 20
61.86840278226624
 30
0.0
 40
0.8749999999999907
  0
CIRCLE
  5
10D
330
70
100
AcDbEntity
  8
0
 62
     7
370
    25
100
AcDbCircle
 10
0.9701388868604256
 20
61.86840278226616
 30
0.0
 40
1.99389999999998
  0
CIRCLE
  5
10E
330
70
100
AcDbEntity
  8
0
 62
     7
370
    25
100
AcDbCircle
 10
-4.109861113139609
 20
61.86840278226624
 30
0.0
 40
0.8749999999999506
  0
CIRCLE
  5
10F
330
70
100
AcDbEntity
  8
0
 62
     7
370
    25
100
AcDbCircle
 10
-16.88923611313959
 20
65.67840278226608
 30
0.0
 40
0.4000000000000142
  0
CIRCLE
  5
110
330
70
100
AcDbEntity
  8
0
 62
     7
370
    25
100
AcDbCircle
 10
-25.06486111313956
 20
66.94840278226611
 30
0.0
 40
1.500000000000012
  0
CIRCLE
  5
111
330
70
100
AcDbEntity
  8
0
 62
     7
370
    25
100
AcDbCircle
 10
-22.52486111313967
 20
61.86840278226624
 30
0.0
 40
0.8749999999999506
  0
CIRCLE
  5
112
330
70
100
AcDbEntity
  8
0
 62
     7
370
    25
100
AcDbCircle
 10
-27.60486111313954
 20
61.86840278226616
 30
0.0
 40
1.99389999999998
  0
CIRCLE
  5
113
330
70
100
AcDbEntity
  8
0
 62
     7
370
    25
100
AcDbCircle
 10
-31.41486111313963
 20
64.40840278226613
 30
0.0
 40
1.500000000000052
  0
CIRCLE
  5
114
330
70
100
AcDbEntity
  8
0
 62
     7
370
    25
100
AcDbCircle
 10
-32.68486111313958
 20
61.86840278226624
 30
0.0
 40
0.8749999999999506
  0
CIRCLE
  5
115
330
70
100
AcDbEntity
  8
0
 62
     7
370
    25
100
AcDbCircle
 10
-41.57486111313953
 20
61.86840278226624
 30
0.0
 40
0.8749999999999506
  0
CIRCLE
  5
116
330
70
100
AcDbEntity
  8
0
 62
     7
370
    25
100
AcDbCircle
 10
-16.88923611313959
 20
58.05840278226607
 30
0.0
 40
0.4000000000000142
  0
CIRCLE
  5
117
330
70
100
AcDbEntity
  8
0
 62
     7
370
    25
100
AcDbCircle
 10
-10.93611111313953
 20
53.61340278226617
 30
0.0
 40
1.99390000000006
  0
CIRCLE
  5
118
330
70
100
AcDbEntity
  8
0
 62
     7
370
    25
100
AcDbCircle
 10
3.510138886860402
 20
47.89840278226615
 30
0.0
 40
1.500000000000052
  0
CIRCLE
  5
119
330
70
100
AcDbEntity
  8
0
 62
     7
370
    25
100
AcDbCircle
 10
6.05013888686038
 20
42.81840278226613
 30
0.0
 40
0.8750000000001111
  0
CIRCLE
  5
11A
330
70
100
AcDbEntity
  8
0
 62
     7
370
    25
100
AcDbCircle
 10
-2.83986111313966
 20
45.35840278226626
 30
0.0
 40
1.500000000000052
  0
CIRCLE
  5
11B
330
70
100
AcDbEntity
  8
0
 62
     7
370
    25
100
AcDbCircle
 10
0.9701388868604256
 20
42.81840278226613
 30
0.0
 40
1.99390000000006
  0
CIRCLE
  5
11C
330
70
100
AcDbEntity
  8
0
 62
     7
370
    25
100
AcDbCircle
 10
-4.109861113139609
 20
42.81840278226613
 30
0.0
 40
0.8750000000000708
  0
CIRCLE
  5
11D
330
70
100
AcDbEntity
  8
0
 62
     7
370
    25
100
AcDbCircle
 10
-15.53986111313947
 20
47.89840278226615
 30
0.0
 40
1.500000000000052
  0
CIRCLE
  5
11E
330
70
100
AcDbEntity
  8
0
 62
     7
370
    25
100
AcDbCircle
 10
-12.99986111313957
 20
42.81840278226613
 30
0.0
 40
0.8750000000000708
  0
CIRCLE
  5
11F
330
70
100
AcDbEntity
  8
0
 62
     7
370
    25
100
AcDbCircle
 10
-23.79486111313962
 20
53.53402778226623
 30
0.0
 40
0.4000000000000142
  0
CIRCLE
  5
120
330
70
100
AcDbEntity
  8
0
 62
     7
370
    25
100
AcDbCircle
 10
-31.41486111313963
 20
53.53402778226623
 30
0.0
 40
0.4000000000000142
  0
CIRCLE
  5
121
330
70
100
AcDbEntity
  8
0
 62
     7
370
    25
100
AcDbCircle
 10
-42.84486111313948
 20
53.53402778226623
 30
0.0
 40
0.4000000000000142
  0
CIRCLE
  5
122
330
70
100
AcDbEntity
  8
0
 62
     7
370
    25
100
AcDbCircle
 10
-21.88986111313953
 20
45.35840278226626
 30
0.0
 40
1.500000000000052
  0
CIRCLE
  5
123
330
70
100
AcDbEntity
  8
0
 62
     7
370
    25
100
AcDbCircle
 10
-18.0798611131396
 20
42.81840278226613
 30
0.0
 40
1.99389999999998
  0
CIRCLE
  5
124
330
70
100
AcDbEntity
  8
0
 62
     7
370
    25
100
AcDbCircle
 10
-23.15986111313948
 20
42.81840278226613
 30
0.0
 40
0.8750000000000708
  0
CIRCLE
  5
125
330
70
100
AcDbEntity
  8
0
 62
     7
370
    25
100
AcDbCircle
 10
-34.58986111313966
 20
47.89840278226615
 30
0.0
 40
1.500000000000052
  0
CIRCLE
  5
126
330
70
100
AcDbEntity
  8
0
 62
     7
370
    25
100
AcDbCircle
 10
-32.04986111313952
 20
42.81840278226613
 30
0.0
 40
0.8750000000001913
  0
CIRCLE
  5
127
330
70
100
AcDbEntity
  8
0
 62
     7
370
    25
100
AcDbCircle
 10
-37.12986111313963
 20
42.81840278226613
 30
0.0
 40
1.99390000000006
  0
CIRCLE
  5
128
330
70
100
AcDbEntity
  8
0
 62
     7
370
    25
100
AcDbCircle
 10
-40.93986111313964
 20
45.35840278226626
 30
0.0
 40
1.499999999999932
  0
CIRCLE
  5
129
330
70
100
AcDbEntity
  8
0
 62
     7
370
    25
100
AcDbCircle
 10
-42.20986111313967
 20
42.81840278226613
 30
0.0
 40
0.8750000000000708
  0
CIRCLE
  5
12A
330
70
100
AcDbEntity
  8
0
 62
     7
370
    25
100
AcDbCircle
 10
-53.79861111313957
 20
76.18590278226616
 30
0.0
 40
0.5000000000000177
  0
CIRCLE
  5
12B
330
70
100
AcDbEntity
  8
0
 62
     7
370
    25
100
AcDbCircle
 10
-53.79861111313957
 20
73.64590278226626
 30
0.0
 40
0.5000000000000177
  0
CIRCLE
  5
12C
330
70
100
AcDbEntity
  8
0
 62
     7
370
    25
100
AcDbCircle
 10
-44.11486111313967
 20
66.94840278226611
 30
0.0
 40
1.499999999999892
  0
CIRCLE
  5
12D
330
70
100
AcDbEntity
  8
0
 62
     7
370
    25
100
AcDbCircle
 10
-50.46486111313949
 20
64.40840278226613
 30
0.0
 40
1.500000000000052
  0
CIRCLE
  5
12E
330
70
100
AcDbEntity
  8
0
 62
     7
370
    25
100
AcDbCircle
 10
-46.65486111313957
 20
61.86840278226616
 30
0.0
 40
1.9938999999999
  0
CIRCLE
  5
12F
330
70
100
AcDbEntity
  8
0
 62
     7
370
    25
100
AcDbCircle
 10
-51.73486111313969
 20
61.86840278226624
 30
0.0
 40
0.8749999999999907
  0
CIRCLE
  5
130
330
70
100
AcDbEntity
  8
0
 62
     7
370
    25
100
AcDbCircle
 10
-63.16486111313962
 20
66.94840278226611
 30
0.0
 40
1.500000000000012
  0
CIRCLE
  5
131
330
70
100
AcDbEntity
  8
0
 62
     7
370
    25
100
AcDbCircle
 10
-69.51486111313968
 20
64.40840278226613
 30
0.0
 40
1.500000000000052
  0
CIRCLE
  5
132
330
70
100
AcDbEntity
  8
0
 62
     7
370
    25
100
AcDbCircle
 10
-60.62486111313964
 20
61.86840278226624
 30
0.0
 40
0.8749999999999907
  0
CIRCLE
  5
133
330
70
100
AcDbEntity
  8
0
 62
     7
370
    25
100
AcDbCircle
 10
-65.7048611131396
 20
61.86840278226616
 30
0.0
 40
1.99389999999998
  0
CIRCLE
  5
134
330
70
100
AcDbEntity
  8
0
 62
     7
370
    25
100
AcDbCircle
 10
-82.21486111313948
 20
66.94840278226611
 30
0.0
 40
1.500000000000012
  0
CIRCLE
  5
135
330
70
100
AcDbEntity
  8
0
 62
     7
370
    25
100
AcDbCircle
 10
-70.78486111313964
 20
61.86840278226624
 30
0.0
 40
0.8749999999999506
  0
CIRCLE
  5
136
330
70
100
AcDbEntity
  8
0
 62
     7
370
    25
100
AcDbCircle
 10
-79.67486111313959
 20
61.86840278226624
 30
0.0
 40
0.8749999999999506
  0
CIRCLE
  5
137
330
70
100
AcDbEntity
  8
0
 62
     7
370
    25
100
AcDbCircle
 10
-88.56486111313955
 20
64.40840278226613
 30
0.0
 40
1.500000000000052
  0
CIRCLE
  5
138
330
70
100
AcDbEntity
  8
0
 62
     7
370
    25
100
AcDbCircle
 10
-84.75486111313962
 20
61.86840278226616
 30
0.0
 40
1.9938999999999
  0
CIRCLE
  5
139
330
70
100
AcDbEntity
  8
0
 62
     7
370
    25
100
AcDbCircle
 10
-89.83486111313951
 20
61.86840278226624
 30
0.0
 40
0.8749999999999506
  0
CIRCLE
  5
13A
330
70
100
AcDbEntity
  8
0
 62
     7
370
    25
100
AcDbCircle
 10
-50.46486111313949
 20
53.53402778226623
 30
0.0
 40
0.4000000000000142
  0
CIRCLE
  5
13B
330
70
100
AcDbEntity
  8
0
 62
     7
370
    25
100
AcDbCircle
 10
-61.89486111313968
 20
53.53402778226623
 30
0.0
 40
0.4000000000000142
  0
CIRCLE
  5
13C
330
70
100
AcDbEntity
  8
0
 62
     7
370
    25
100
AcDbCircle
 10
-69.51486111313968
 20
53.53402778226623
 30
0.0
 40
0.4000000000000142
  0
CIRCLE
  5
13D
330
70
100
AcDbEntity
  8
0
 62
     7
370
    25
100
AcDbCircle
 10
-53.63986111313953
 20
47.89840278226615
 30
0.0
 40
1.500000000000052
  0
CIRCLE
  5
13E
330
70
100
AcDbEntity
  8
0
 62
     7
370
    25
100
AcDbCircle
 10
-51.09986111313963
 20
42.81840278226613
 30
0.0
 40
0.8750000000000708
  0
CIRCLE
  5
13F
330
70
100
AcDbEntity
  8
0
 62
     7
370
    25
100
AcDbCircle
 10
-56.17986111313967
 20
42.81840278226613
 30
0.0
 40
1.99389999999998
  0
CIRCLE
  5
140
330
70
100
AcDbEntity
  8
0
 62
     7
370
    25
100
AcDbCircle
 10
-59.98986111313959
 20
45.35840278226626
 30
0.0
 40
1.500000000000052
  0
CIRCLE
  5
141
330
70
100
AcDbEntity
  8
0
 62
     7
370
    25
100
AcDbCircle
 10
-61.25986111313954
 20
42.81840278226613
 30
0.0
 40
0.8750000000000708
  0
CIRCLE
  5
142
330
70
100
AcDbEntity
  8
0
 62
     7
370
    25
100
AcDbCircle
 10
-80.94486111313955
 20
53.53402778226623
 30
0.0
 40
0.4000000000000142
  0
CIRCLE
  5
143
330
70
100
AcDbEntity
  8
0
 62
     7
370
    25
100
AcDbCircle
 10
-88.56486111313955
 20
53.53402778226623
 30
0.0
 40
0.4000000000000142
  0
CIRCLE
  5
144
330
70
100
AcDbEntity
  8
0
 62
     7
370
    25
100
AcDbCircle
 10
-72.68986111313971
 20
47.89840278226615
 30
0.0
 40
1.500000000000052
  0
CIRCLE
  5
145
330
70
100
AcDbEntity
  8
0
 62
     7
370
    25
100
AcDbCircle
 10
-70.14986111313951
 20
42.81840278226613
 30
0.0
 40
0.8750000000000708
  0
CIRCLE
  5
146
330
70
100
AcDbEntity
  8
0
 62
     7
370
    25
100
AcDbCircle
 10
-75.22986111313954
 20
42.81840278226613
 30
0.0
 40
1.99389999999998
  0
CIRCLE
  5
147
330
70
100
AcDbEntity
  8
0
 62
     7
370
    25
100
AcDbCircle
 10
-79.03986111313947
 20
45.35840278226626
 30
0.0
 40
1.500000000000052
  0
CIRCLE
  5
148
330
70
100
AcDbEntity
  8
0
 62
     7
370
    25
100
AcDbCircle
 10
-80.30986111313964
 20
42.81840278226613
 30
0.0
 40
0.8750000000001111
  0
CIRCLE
  5
149
330
70
100
AcDbEntity
  8
0
 62
     7
370
    25
100
AcDbCircle
 10
4.780138886860351
 20
34.48402778226613
 30
0.0
 40
0.399999999999974
  0
CIRCLE
  5
14A
330
70
100
AcDbEntity
  8
0
 62
     7
370
    25
100
AcDbCircle
 10
-2.83986111313966
 20
34.48402778226613
 30
0.0
 40
0.399999999999974
  0
CIRCLE
  5
14B
330
70
100
AcDbEntity
  8
0
 62
     7
370
    25
100
AcDbCircle
 10
-14.26986111313952
 20
34.48402778226613
 30
0.0
 40
0.399999999999974
  0
CIRCLE
  5
14C
330
70
100
AcDbEntity
  8
0
 62
     7
370
    25
100
AcDbCircle
 10
1.922638886860386
 20
26.30840278226607
 30
0.0
 40
1.500000000000052
  0
CIRCLE
  5
14D
330
70
100
AcDbEntity
  8
0
 62
     7
370
    25
100
AcDbCircle
 10
-10.7773611131395
 20
28.84840278226629
 30
0.0
 40
1.500000000000012
  0
CIRCLE
  5
14E
330
70
100
AcDbEntity
  8
0
 62
     7
370
    25
100
AcDbCircle
 10
-17.12736111313948
 20
26.30840278226607
 30
0.0
 40
1.500000000000052
  0
CIRCLE
  5
14F
330
70
100
AcDbEntity
  8
0
 62
     7
370
    25
100
AcDbCircle
 10
-21.88986111313953
 20
34.48402778226613
 30
0.0
 40
0.399999999999974
  0
CIRCLE
  5
150
330
70
100
AcDbEntity
  8
0
 62
     7
370
    25
100
AcDbCircle
 10
-33.27236111313955
 20
34.48402778226613
 30
0.0
 40
0.399999999999974
  0
CIRCLE
  5
151
330
70
100
AcDbEntity
  8
0
 62
     7
370
    25
100
AcDbCircle
 10
-40.89236111313957
 20
34.48402778226613
 30
0.0
 40
0.399999999999974
  0
CIRCLE
  5
152
330
70
100
AcDbEntity
  8
0
 62
     7
370
    25
100
AcDbCircle
 10
-29.82736111313961
 20
28.84840278226629
 30
0.0
 40
1.500000000000052
  0
CIRCLE
  5
153
330
70
100
AcDbEntity
  8
0
 62
     7
370
    25
100
AcDbCircle
 10
-36.17736111313968
 20
26.30840278226607
 30
0.0
 40
1.500000000000052
  0
CIRCLE
  5
154
330
70
100
AcDbEntity
  8
0
 62
     7
370
    25
100
AcDbCircle
 10
5.732638886860473
 20
23.76840278226618
 30
0.0
 40
1.9939000000001
  0
CIRCLE
  5
155
330
70
100
AcDbEntity
  8
0
 62
     7
370
    25
100
AcDbCircle
 10
0.6526388868604385
 20
23.76840278226618
 30
0.0
 40
0.8749999999999506
  0
CIRCLE
  5
156
330
70
100
AcDbEntity
  8
0
 62
     7
370
    25
100
AcDbCircle
 10
-8.237361113139522
 20
23.76840278226618
 30
0.0
 40
0.8749999999999506
  0
CIRCLE
  5
157
330
70
100
AcDbEntity
  8
0
 62
     7
370
    25
100
AcDbCircle
 10
-13.31736111313956
 20
23.76840278226618
 30
0.0
 40
1.99390000000002
  0
CIRCLE
  5
158
330
70
100
AcDbEntity
  8
0
 62
     7
370
    25
100
AcDbCircle
 10
1.922638886860386
 20
15.43402778226617
 30
0.0
 40
0.4000000000000142
  0
CIRCLE
  5
159
330
70
100
AcDbEntity
  8
0
 62
     7
370
    25
100
AcDbCircle
 10
-9.50736111313947
 20
15.43402778226617
 30
0.0
 40
0.4000000000000142
  0
CIRCLE
  5
15A
330
70
100
AcDbEntity
  8
0
 62
     7
370
    25
100
AcDbCircle
 10
-17.12736111313948
 20
15.43402778226617
 30
0.0
 40
0.4000000000000142
  0
CIRCLE
  5
15B
330
70
100
AcDbEntity
  8
0
 62
     7
370
    25
100
AcDbCircle
 10
-6.014861113139692
 20
9.798402782266098
 30
0.0
 40
1.500000000000052
  0
CIRCLE
  5
15C
330
70
100
AcDbEntity
  8
0
 62
     7
370
    25
100
AcDbCircle
 10
-18.39736111313951
 20
23.76840278226618
 30
0.0
 40
0.8750000000000708
  0
CIRCLE
  5
15D
330
70
100
AcDbEntity
  8
0
 62
     7
370
    25
100
AcDbCircle
 10
-27.28736111313963
 20
23.76840278226618
 30
0.0
 40
0.8749999999999907
  0
CIRCLE
  5
15E
330
70
100
AcDbEntity
  8
0
 62
     7
370
    25
100
AcDbCircle
 10
-32.36736111313959
 20
23.76840278226618
 30
0.0
 40
1.9939000000001
  0
CIRCLE
  5
15F
330
70
100
AcDbEntity
  8
0
 62
     7
370
    25
100
AcDbCircle
 10
-37.44736111313962
 20
23.76840278226618
 30
0.0
 40
0.8749999999999506
  0
CIRCLE
  5
160
330
70
100
AcDbEntity
  8
0
 62
     7
370
    25
100
AcDbCircle
 10
-28.79548611313956
 20
15.43402778226617
 30
0.0
 40
0.4000000000000142
  0
CIRCLE
  5
161
330
70
100
AcDbEntity
  8
0
 62
     7
370
    25
100
AcDbCircle
 10
-25.06486111313956
 20
9.798402782266098
 30
0.0
 40
1.500000000000052
  0
CIRCLE
  5
162
330
70
100
AcDbEntity
  8
0
 62
     7
370
    25
100
AcDbCircle
 10
-36.41548611313957
 20
15.43402778226617
 30
0.0
 40
0.4000000000000142
  0
CIRCLE
  5
163
330
70
100
AcDbEntity
  8
0
 62
     7
370
    25
100
AcDbCircle
 10
-52.36986111313957
 20
34.48402778226613
 30
0.0
 40
0.399999999999974
  0
CIRCLE
  5
164
330
70
100
AcDbEntity
  8
0
 62
     7
370
    25
100
AcDbCircle
 10
-59.98986111313959
 20
34.48402778226613
 30
0.0
 40
0.399999999999974
  0
CIRCLE
  5
165
330
70
100
AcDbEntity
  8
0
 62
     7
370
    25
100
AcDbCircle
 10
-65.7048611131396
 20
35.67465278226622
 30
0.0
 40
2.110000000000026
  0
CIRCLE
  5
166
330
70
100
AcDbEntity
  8
0
 62
     7
370
    25
100
AcDbCircle
 10
-48.87736111313948
 20
28.84840278226629
 30
0.0
 40
1.500000000000052
  0
CIRCLE
  5
167
330
70
100
AcDbEntity
  8
0
 62
     7
370
    25
100
AcDbCircle
 10
-55.22736111313954
 20
26.30840278226607
 30
0.0
 40
1.500000000000052
  0
CIRCLE
  5
168
330
70
100
AcDbEntity
  8
0
 62
     7
370
    25
100
AcDbCircle
 10
-67.92736111313967
 20
28.84840278226629
 30
0.0
 40
1.500000000000052
  0
CIRCLE
  5
169
330
70
100
AcDbEntity
  8
0
 62
     7
370
    25
100
AcDbCircle
 10
-71.41986111313944
 20
34.48402778226613
 30
0.0
 40
0.399999999999974
  0
CIRCLE
  5
16A
330
70
100
AcDbEntity
  8
0
 62
     7
370
    25
100
AcDbCircle
 10
-79.03986111313947
 20
34.48402778226613
 30
0.0
 40
0.399999999999974
  0
CIRCLE
  5
16B
330
70
100
AcDbEntity
  8
0
 62
     7
370
    25
100
AcDbCircle
 10
-74.27736111313966
 20
26.30840278226607
 30
0.0
 40
1.499999999999932
  0
CIRCLE
  5
16C
330
70
100
AcDbEntity
  8
0
 62
     7
370
    25
100
AcDbCircle
 10
-86.97736111313954
 20
28.84840278226629
 30
0.0
 40
1.500000000000052
  0
CIRCLE
  5
16D
330
70
100
AcDbEntity
  8
0
 62
     7
370
    25
100
AcDbCircle
 10
-93.32736111313961
 20
26.30840278226607
 30
0.0
 40
1.500000000000052
  0
CIRCLE
  5
16E
330
70
100
AcDbEntity
  8
0
 62
     7
370
    25
100
AcDbCircle
 10
-46.33736111313958
 20
23.76840278226618
 30
0.0
 40
0.8749999999999506
  0
CIRCLE
  5
16F
330
70
100
AcDbEntity
  8
0
 62
     7
370
    25
100
AcDbCircle
 10
-51.41736111313962
 20
23.76840278226618
 30
0.0
 40
1.99390000000002
  0
CIRCLE
  5
170
330
70
100
AcDbEntity
  8
0
 62
     7
370
    25
100
AcDbCircle
 10
-56.49736111313949
 20
23.76840278226618
 30
0.0
 40
0.8749999999999506
  0
CIRCLE
  5
171
330
70
100
AcDbEntity
  8
0
 62
     7
370
    25
100
AcDbCircle
 10
-65.38736111313944
 20
23.76840278226618
 30
0.0
 40
0.8749999999999506
  0
CIRCLE
  5
172
330
70
100
AcDbEntity
  8
0
 62
     7
370
    25
100
AcDbCircle
 10
-47.70048611313959
 20
15.43402778226617
 30
0.0
 40
0.4000000000000142
  0
CIRCLE
  5
173
330
70
100
AcDbEntity
  8
0
 62
     7
370
    25
100
AcDbCircle
 10
-55.3204861131396
 20
15.43402778226617
 30
0.0
 40
0.4000000000000142
  0
CIRCLE
  5
174
330
70
100
AcDbEntity
  8
0
 62
     7
370
    25
100
AcDbCircle
 10
-44.11486111313967
 20
9.798402782266098
 30
0.0
 40
1.499999999999932
  0
CIRCLE
  5
175
330
70
100
AcDbEntity
  8
0
 62
     7
370
    25
100
AcDbCircle
 10
-66.65736111313973
 20
15.43402778226617
 30
0.0
 40
0.4000000000000142
  0
CIRCLE
  5
176
330
70
100
AcDbEntity
  8
0
 62
     7
370
    25
100
AcDbCircle
 10
-63.16486111313962
 20
9.798402782266098
 30
0.0
 40
1.500000000000052
  0
CIRCLE
  5
177
330
70
100
AcDbEntity
  8
0
 62
     7
370
    25
100
AcDbCircle
 10
-70.46736111313965
 20
23.76840278226618
 30
0.0
 40
1.9939000000001
  0
CIRCLE
  5
178
330
70
100
AcDbEntity
  8
0
 62
     7
370
    25
100
AcDbCircle
 10
-75.54736111313968
 20
23.76840278226618
 30
0.0
 40
0.8749999999999506
  0
CIRCLE
  5
179
330
70
100
AcDbEntity
  8
0
 62
     7
370
    25
100
AcDbCircle
 10
-84.43736111313965
 20
23.76840278226618
 30
0.0
 40
0.8749999999999506
  0
CIRCLE
  5
17A
330
70
100
AcDbEntity
  8
0
 62
     7
370
    25
100
AcDbCircle
 10
-89.51736111313968
 20
23.76840278226618
 30
0.0
 40
1.99390000000002
  0
CIRCLE
  5
17B
330
70
100
AcDbEntity
  8
0
 62
     7
370
    25
100
AcDbCircle
 10
-94.59736111313956
 20
23.76840278226618
 30
0.0
 40
0.8749999999999506
  0
CIRCLE
  5
17C
330
70
100
AcDbEntity
  8
0
 62
     7
370
    25
100
AcDbCircle
 10
-74.27736111313973
 20
15.43402778226617
 30
0.0
 40
0.4000000000000142
  0
CIRCLE
  5
17D
330
70
100
AcDbEntity
  8
0
 62
     7
370
    25
100
AcDbCircle
 10
-82.21486111313948
 20
9.798402782266098
 30
0.0
 40
1.500000000000052
  0
CIRCLE
  5
17E
330
70
100
AcDbEntity
  8
0
 62
     7
370
    25
100
AcDbCircle
 10
-85.7073611131396
 20
15.43402778226617
 30
0.0
 40
0.4000000000000142
  0
CIRCLE
  5
17F
330
70
100
AcDbEntity
  8
0
 62
     7
370
    25
100
AcDbCircle
 10
-93.32736111313961
 20
15.43402778226617
 30
0.0
 40
0.4000000000000142
  0
CIRCLE
  5
180
330
70
100
AcDbEntity
  8
0
 62
     7
370
    25
100
AcDbCircle
 10
110.8251388868605
 20
4.718402782266144
 30
0.0
 40
0.8749999999999506
  0
CIRCLE
  5
181
330
70
100
AcDbEntity
  8
0
 62
     7
370
    25
100
AcDbCircle
 10
105.7451388868603
 20
4.718402782266305
 30
0.0
 40
1.99390000000014
  0
CIRCLE
  5
182
330
70
100
AcDbEntity
  8
0
 62
     7
370
    25
100
AcDbCircle
 10
101.9351388868606
 20
7.258402782266282
 30
0.0
 40
1.500000000000093
  0
CIRCLE
  5
183
330
70
100
AcDbEntity
  8
0
 62
     7
370
    25
100
AcDbCircle
 10
100.6651388868603
 20
4.718402782266144
 30
0.0
 40
0.8749999999999506
  0
CIRCLE
  5
184
330
70
100
AcDbEntity
  8
0
 62
     7
370
    25
100
AcDbCircle
 10
91.77513888686036
 20
4.718402782266144
 30
0.0
 40
0.8749999999999506
  0
CIRCLE
  5
185
330
70
100
AcDbEntity
  8
0
 62
     7
370
    25
100
AcDbCircle
 10
86.69513888686056
 20
4.718402782266305
 30
0.0
 40
1.99390000000006
  0
CIRCLE
  5
186
330
70
100
AcDbEntity
  8
0
 62
     7
370
    25
100
AcDbCircle
 10
109.5551388868604
 20
-3.615972217733698
 30
0.0
 40
0.4000000000000142
  0
CIRCLE
  5
187
330
70
100
AcDbEntity
  8
0
 62
     7
370
    25
100
AcDbCircle
 10
101.9351388868606
 20
-3.615972217733698
 30
0.0
 40
0.3999999999999339
  0
CIRCLE
  5
188
330
70
100
AcDbEntity
  8
0
 62
     7
370
    25
100
AcDbCircle
 10
90.50513888686024
 20
-3.615972217733698
 30
0.0
 40
0.4000000000000142
  0
CIRCLE
  5
189
330
70
100
AcDbEntity
  8
0
 62
     7
370
    25
100
AcDbCircle
 10
82.8851388868604
 20
7.258402782266282
 30
0.0
 40
1.500000000000093
  0
CIRCLE
  5
18A
330
70
100
AcDbEntity
  8
0
 62
     7
370
    25
100
AcDbCircle
 10
81.61513888686044
 20
4.718402782266144
 30
0.0
 40
0.8749999999997902
  0
CIRCLE
  5
18B
330
70
100
AcDbEntity
  8
0
 62
     7
370
    25
100
AcDbCircle
 10
72.72513888686049
 20
4.718402782266144
 30
0.0
 40
0.8749999999997902
  0
CIRCLE
  5
18C
330
70
100
AcDbEntity
  8
0
 62
     7
370
    25
100
AcDbCircle
 10
67.64513888686053
 20
4.718402782266305
 30
0.0
 40
1.99390000000014
  0
CIRCLE
  5
18D
330
70
100
AcDbEntity
  8
0
 62
     7
370
    25
100
AcDbCircle
 10
63.83513888686053
 20
7.258402782266282
 30
0.0
 40
1.499999999999932
  0
CIRCLE
  5
18E
330
70
100
AcDbEntity
  8
0
 62
     7
370
    25
100
AcDbCircle
 10
62.56513888686058
 20
4.718402782266144
 30
0.0
 40
0.8749999999999506
  0
CIRCLE
  5
18F
330
70
100
AcDbEntity
  8
0
 62
     7
370
    25
100
AcDbCircle
 10
82.88513888686056
 20
-3.615972217733698
 30
0.0
 40
0.4000000000000142
  0
CIRCLE
  5
190
330
70
100
AcDbEntity
  8
0
 62
     7
370
    25
100
AcDbCircle
 10
71.45513888686069
 20
-3.615972217733698
 30
0.0
 40
0.4000000000000142
  0
CIRCLE
  5
191
330
70
100
AcDbEntity
  8
0
 62
     7
370
    25
100
AcDbCircle
 10
63.83513888686036
 20
-3.615972217733698
 30
0.0
 40
0.4000000000000142
  0
CIRCLE
  5
192
330
70
100
AcDbEntity
  8
0
 62
     7
370
    25
100
AcDbCircle
 10
103.5226388868604
 20
-9.25159721773393
 30
0.0
 40
1.499999999999972
  0
CIRCLE
  5
193
330
70
100
AcDbEntity
  8
0
 62
     7
370
    25
100
AcDbCircle
 10
106.0626388868605
 20
-14.33159721773372
 30
0.0
 40
0.8749999999999506
  0
CIRCLE
  5
194
330
70
100
AcDbEntity
  8
0
 62
     7
370
    25
100
AcDbCircle
 10
100.9826388868605
 20
-14.33159721773388
 30
0.0
 40
1.99390000000014
  0
CIRCLE
  5
195
330
70
100
AcDbEntity
  8
0
 62
     7
370
    25
100
AcDbCircle
 10
97.17263888686039
 20
-11.79159721773383
 30
0.0
 40
1.499999999999972
  0
CIRCLE
  5
196
330
70
100
AcDbEntity
  8
0
 62
     7
370
    25
100
AcDbCircle
 10
95.90263888686028
 20
-14.33159721773372
 30
0.0
 40
0.8749999999999506
  0
CIRCLE
  5
197
330
70
100
AcDbEntity
  8
0
 62
     7
370
    25
100
AcDbCircle
 10
87.01263888686032
 20
-14.33159721773372
 30
0.0
 40
0.8749999999999506
  0
CIRCLE
  5
198
330
70
100
AcDbEntity
  8
0
 62
     7
370
    25
100
AcDbCircle
 10
104.7926388868607
 20
-22.66597221773389
 30
0.0
 40
0.4000000000000142
  0
CIRCLE
  5
199
330
70
100
AcDbEntity
  8
0
 62
     7
370
    25
100
AcDbCircle
 10
97.17263888686039
 20
-22.66597221773389
 30
0.0
 40
0.4000000000000142
  0
CIRCLE
  5
19A
330
70
100
AcDbEntity
  8
0
 62
     7
370
    25
100
AcDbCircle
 10
84.47263888686041
 20
-9.25159721773393
 30
0.0
 40
1.500000000000052
  0
CIRCLE
  5
19B
330
70
100
AcDbEntity
  8
0
 62
     7
370
    25
100
AcDbCircle
 10
78.12263888686034
 20
-11.79159721773383
 30
0.0
 40
1.500000000000052
  0
CIRCLE
  5
19C
330
70
100
AcDbEntity
  8
0
 62
     7
370
    25
100
AcDbCircle
 10
81.93263888686036
 20
-14.33159721773388
 30
0.0
 40
1.99390000000014
  0
CIRCLE
  5
19D
330
70
100
AcDbEntity
  8
0
 62
     7
370
    25
100
AcDbCircle
 10
76.85263888686041
 20
-14.33159721773372
 30
0.0
 40
0.8750000000001111
  0
CIRCLE
  5
19E
330
70
100
AcDbEntity
  8
0
 62
     7
370
    25
100
AcDbCircle
 10
65.42263888686054
 20
-9.25159721773393
 30
0.0
 40
1.500000000000213
  0
CIRCLE
  5
19F
330
70
100
AcDbEntity
  8
0
 62
     7
370
    25
100
AcDbCircle
 10
67.96263888686045
 20
-14.33159721773372
 30
0.0
 40
0.8750000000001111
  0
CIRCLE
  5
1A0
330
70
100
AcDbEntity
  8
0
 62
     7
370
    25
100
AcDbCircle
 10
62.88263888686032
 20
-14.33159721773388
 30
0.0
 40
1.9938999999999
  0
CIRCLE
  5
1A1
330
70
100
AcDbEntity
  8
0
 62
     7
370
    25
100
AcDbCircle
 10
85.74263888686052
 20
-22.66597221773389
 30
0.0
 40
0.4000000000000142
  0
CIRCLE
  5
1A2
330
70
100
AcDbEntity
  8
0
 62
     7
370
    25
100
AcDbCircle
 10
78.12263888686018
 20
-22.66597221773389
 30
0.0
 40
0.4000000000000142
  0
CIRCLE
  5
1A3
330
70
100
AcDbEntity
  8
0
 62
     7
370
    25
100
AcDbCircle
 10
72.40763888686043
 20
-21.4753472177338
 30
0.0
 40
2.109999999999865
  0
CIRCLE
  5
1A4
330
70
100
AcDbEntity
  8
0
 62
     7
370
    25
100
AcDbCircle
 10
66.69263888686034
 20
-22.66597221773389
 30
0.0
 40
0.4000000000000142
  0
CIRCLE
  5
1A5
330
70
100
AcDbEntity
  8
0
 62
     7
370
    25
100
AcDbCircle
 10
53.6751388868603
 20
4.718402782266144
 30
0.0
 40
0.8749999999997902
  0
CIRCLE
  5
1A6
330
70
100
AcDbEntity
  8
0
 62
     7
370
    25
100
AcDbCircle
 10
48.59513888686034
 20
4.718402782266305
 30
0.0
 40
1.99390000000014
  0
CIRCLE
  5
1A7
330
70
100
AcDbEntity
  8
0
 62
     7
370
    25
100
AcDbCircle
 10
44.78513888686033
 20
7.258402782266282
 30
0.0
 40
1.499999999999932
  0
CIRCLE
  5
1A8
330
70
100
AcDbEntity
  8
0
 62
     7
370
    25
100
AcDbCircle
 10
43.51513888686038
 20
4.718402782266144
 30
0.0
 40
0.8749999999999506
  0
CIRCLE
  5
1A9
330
70
100
AcDbEntity
  8
0
 62
     7
370
    25
100
AcDbCircle
 10
34.62513888686043
 20
4.718402782266144
 30
0.0
 40
0.8749999999999506
  0
CIRCLE
  5
1AA
330
70
100
AcDbEntity
  8
0
 62
     7
370
    25
100
AcDbCircle
 10
52.4051388868605
 20
-3.615972217733698
 30
0.0
 40
0.4000000000000142
  0
CIRCLE
  5
1AB
330
70
100
AcDbEntity
  8
0
 62
     7
370
    25
100
AcDbCircle
 10
44.78513888686017
 20
-3.615972217733698
 30
0.0
 40
0.4000000000000142
  0
CIRCLE
  5
1AC
330
70
100
AcDbEntity
  8
0
 62
     7
370
    25
100
AcDbCircle
 10
29.54513888686031
 20
4.718402782266305
 30
0.0
 40
1.9938999999999
  0
CIRCLE
  5
1AD
330
70
100
AcDbEntity
  8
0
 62
     7
370
    25
100
AcDbCircle
 10
25.73513888686047
 20
7.258402782266282
 30
0.0
 40
1.500000000000093
  0
CIRCLE
  5
1AE
330
70
100
AcDbEntity
  8
0
 62
     7
370
    25
100
AcDbCircle
 10
24.46513888686052
 20
4.718402782266144
 30
0.0
 40
0.8749999999997902
  0
CIRCLE
  5
1AF
330
70
100
AcDbEntity
  8
0
 62
     7
370
    25
100
AcDbCircle
 10
15.57513888686039
 20
4.718402782266144
 30
0.0
 40
0.8750000000000309
  0
CIRCLE
  5
1B0
330
70
100
AcDbEntity
  8
0
 62
     7
370
    25
100
AcDbCircle
 10
10.4951388868606
 20
4.718402782266305
 30
0.0
 40
1.99390000000014
  0
CIRCLE
  5
1B1
330
70
100
AcDbEntity
  8
0
 62
     7
370
    25
100
AcDbCircle
 10
33.35513888686032
 20
-3.615972217733698
 30
0.0
 40
0.4000000000000142
  0
CIRCLE
  5
1B2
330
70
100
AcDbEntity
  8
0
 62
     7
370
    25
100
AcDbCircle
 10
25.73513888686063
 20
-3.615972217733698
 30
0.0
 40
0.4000000000000142
  0
CIRCLE
  5
1B3
330
70
100
AcDbEntity
  8
0
 62
     7
370
    25
100
AcDbCircle
 10
14.30513888686012
 20
-3.615972217733698
 30
0.0
 40
0.4000000000000142
  0
CIRCLE
  5
1B4
330
70
100
AcDbEntity
  8
0
 62
     7
370
    25
100
AcDbCircle
 10
59.07263888686048
 20
-11.79159721773383
 30
0.0
 40
1.500000000000213
  0
CIRCLE
  5
1B5
330
70
100
AcDbEntity
  8
0
 62
     7
370
    25
100
AcDbCircle
 10
57.80263888686053
 20
-14.33159721773372
 30
0.0
 40
0.8749999999999506
  0
CIRCLE
  5
1B6
330
70
100
AcDbEntity
  8
0
 62
     7
370
    25
100
AcDbCircle
 10
48.9126388868604
 20
-14.33159721773372
 30
0.0
 40
0.8750000000001913
  0
CIRCLE
  5
1B7
330
70
100
AcDbEntity
  8
0
 62
     7
370
    25
100
AcDbCircle
 10
46.37263888686034
 20
-9.25159721773393
 30
0.0
 40
1.500000000000213
  0
CIRCLE
  5
1B8
330
70
100
AcDbEntity
  8
0
 62
     7
370
    25
100
AcDbCircle
 10
40.02263888686044
 20
-11.79159721773383
 30
0.0
 40
1.499999999999972
  0
CIRCLE
  5
1B9
330
70
100
AcDbEntity
  8
0
 62
     7
370
    25
100
AcDbCircle
 10
43.83263888686045
 20
-14.33159721773388
 30
0.0
 40
1.99390000000006
  0
CIRCLE
  5
1BA
330
70
100
AcDbEntity
  8
0
 62
     7
370
    25
100
AcDbCircle
 10
38.75263888686034
 20
-14.33159721773372
 30
0.0
 40
0.8749999999999506
  0
CIRCLE
  5
1BB
330
70
100
AcDbEntity
  8
0
 62
     7
370
    25
100
AcDbCircle
 10
59.07263888686063
 20
-22.66597221773389
 30
0.0
 40
0.4000000000000142
  0
CIRCLE
  5
1BC
330
70
100
AcDbEntity
  8
0
 62
     7
370
    25
100
AcDbCircle
 10
47.64263888686014
 20
-22.66597221773389
 30
0.0
 40
0.4000000000000142
  0
CIRCLE
  5
1BD
330
70
100
AcDbEntity
  8
0
 62
     7
370
    25
100
AcDbCircle
 10
40.02263888686044
 20
-22.66597221773389
 30
0.0
 40
0.4000000000000142
  0
CIRCLE
  5
1BE
330
70
100
AcDbEntity
  8
0
 62
     7
370
    25
100
AcDbCircle
 10
27.32263888686048
 20
-9.25159721773393
 30
0.0
 40
1.500000000000052
  0
CIRCLE
  5
1BF
330
70
100
AcDbEntity
  8
0
 62
     7
370
    25
100
AcDbCircle
 10
29.86263888686038
 20
-14.33159721773372
 30
0.0
 40
0.8749999999999506
  0
CIRCLE
  5
1C0
330
70
100
AcDbEntity
  8
0
 62
     7
370
    25
100
AcDbCircle
 10
24.78263888686043
 20
-14.33159721773388
 30
0.0
 40
1.99390000000014
  0
CIRCLE
  5
1C1
330
70
100
AcDbEntity
  8
0
 62
     7
370
    25
100
AcDbCircle
 10
20.97263888686041
 20
-11.79159721773383
 30
0.0
 40
1.500000000000052
  0
CIRCLE
  5
1C2
330
70
100
AcDbEntity
  8
0
 62
     7
370
    25
100
AcDbCircle
 10
8.27263888686029
 20
-9.25159721773393
 30
0.0
 40
1.500000000000052
  0
CIRCLE
  5
1C3
330
70
100
AcDbEntity
  8
0
 62
     7
370
    25
100
AcDbCircle
 10
19.70263888686047
 20
-14.33159721773372
 30
0.0
 40
0.8750000000001111
  0
CIRCLE
  5
1C4
330
70
100
AcDbEntity
  8
0
 62
     7
370
    25
100
AcDbCircle
 10
10.81263888686051
 20
-14.33159721773372
 30
0.0
 40
0.8750000000001111
  0
CIRCLE
  5
1C5
330
70
100
AcDbEntity
  8
0
 62
     7
370
    25
100
AcDbCircle
 10
28.59263888686059
 20
-22.66597221773389
 30
0.0
 40
0.4000000000000142
  0
CIRCLE
  5
1C6
330
70
100
AcDbEntity
  8
0
 62
     7
370
    25
100
AcDbCircle
 10
20.97263888686025
 20
-22.66597221773389
 30
0.0
 40
0.4000000000000142
  0
CIRCLE
  5
1C7
330
70
100
AcDbEntity
  8
0
 62
     7
370
    25
100
AcDbCircle
 10
9.542638886860398
 20
-22.66597221773389
 30
0.0
 40
0.4000000000000142
  0
CIRCLE
  5
1C8
330
70
100
AcDbEntity
  8
0
 62
     7
370
    25
100
AcDbCircle
 10
108.2851388868603
 20
-28.30159721773381
 30
0.0
 40
1.499999999999892
  0
CIRCLE
  5
1C9
330
70
100
AcDbEntity
  8
0
 62
     7
370
    25
100
AcDbCircle
 10
110.8251388868605
 20
-33.38159721773392
 30
0.0
 40
0.8750000000001111
  0
CIRCLE
  5
1CA
330
70
100
AcDbEntity
  8
0
 62
     7
370
    25
100
AcDbCircle
 10
105.7451388868603
 20
-33.38159721773392
 30
0.0
 40
1.99390000000006
  0
CIRCLE
  5
1CB
330
70
100
AcDbEntity
  8
0
 62
     7
370
    25
100
AcDbCircle
 10
101.9351388868606
 20
-30.8415972177337
 30
0.0
 40
1.500000000000052
  0
CIRCLE
  5
1CC
330
70
100
AcDbEntity
  8
0
 62
     7
370
    25
100
AcDbCircle
 10
100.6651388868603
 20
-33.38159721773392
 30
0.0
 40
0.8750000000001111
  0
CIRCLE
  5
1CD
330
70
100
AcDbEntity
  8
0
 62
     7
370
    25
100
AcDbCircle
 10
89.23513888686045
 20
-28.30159721773381
 30
0.0
 40
1.500000000000052
  0
CIRCLE
  5
1CE
330
70
100
AcDbEntity
  8
0
 62
     7
370
    25
100
AcDbCircle
 10
91.77513888686036
 20
-33.38159721773392
 30
0.0
 40
0.8750000000001111
  0
CIRCLE
  5
1CF
330
70
100
AcDbEntity
  8
0
 62
     7
370
    25
100
AcDbCircle
 10
86.69513888686056
 20
-33.38159721773392
 30
0.0
 40
1.99389999999998
  0
CIRCLE
  5
1D0
330
70
100
AcDbEntity
  8
0
 62
     7
370
    25
100
AcDbCircle
 10
109.5551388868604
 20
-41.71597221773408
 30
0.0
 40
0.4000000000000142
  0
CIRCLE
  5
1D1
330
70
100
AcDbEntity
  8
0
 62
     7
370
    25
100
AcDbCircle
 10
101.9351388868606
 20
-41.71597221773408
 30
0.0
 40
0.3999999999999339
  0
CIRCLE
  5
1D2
330
70
100
AcDbEntity
  8
0
 62
     7
370
    25
100
AcDbCircle
 10
90.50513888686024
 20
-41.71597221773408
 30
0.0
 40
0.4000000000000142
  0
CIRCLE
  5
1D3
330
70
100
AcDbEntity
  8
0
 62
     7
370
    25
100
AcDbCircle
 10
82.8851388868604
 20
-30.8415972177337
 30
0.0
 40
1.500000000000052
  0
CIRCLE
  5
1D4
330
70
100
AcDbEntity
  8
0
 62
     7
370
    25
100
AcDbCircle
 10
81.61513888686044
 20
-33.38159721773392
 30
0.0
 40
0.8749999999999506
  0
CIRCLE
  5
1D5
330
70
100
AcDbEntity
  8
0
 62
     7
370
    25
100
AcDbCircle
 10
70.18513888686043
 20
-28.30159721773381
 30
0.0
 40
1.499999999999812
  0
CIRCLE
  5
1D6
330
70
100
AcDbEntity
  8
0
 62
     7
370
    25
100
AcDbCircle
 10
72.72513888686049
 20
-33.38159721773392
 30
0.0
 40
0.8749999999999506
  0
CIRCLE
  5
1D7
330
70
100
AcDbEntity
  8
0
 62
     7
370
    25
100
AcDbCircle
 10
67.64513888686053
 20
-33.38159721773392
 30
0.0
 40
1.99390000000006
  0
CIRCLE
  5
1D8
330
70
100
AcDbEntity
  8
0
 62
     7
370
    25
100
AcDbCircle
 10
63.83513888686053
 20
-30.8415972177337
 30
0.0
 40
1.499999999999892
  0
CIRCLE
  5
1D9
330
70
100
AcDbEntity
  8
0
 62
     7
370
    25
100
AcDbCircle
 10
62.56513888686058
 20
-33.38159721773392
 30
0.0
 40
0.8750000000001111
  0
CIRCLE
  5
1DA
330
70
100
AcDbEntity
  8
0
 62
     7
370
    25
100
AcDbCircle
 10
82.88513888686056
 20
-41.71597221773408
 30
0.0
 40
0.4000000000000142
  0
CIRCLE
  5
1DB
330
70
100
AcDbEntity
  8
0
 62
     7
370
    25
100
AcDbCircle
 10
71.45513888686069
 20
-41.71597221773408
 30
0.0
 40
0.4000000000000142
  0
CIRCLE
  5
1DC
330
70
100
AcDbEntity
  8
0
 62
     7
370
    25
100
AcDbCircle
 10
63.83513888686036
 20
-41.71597221773408
 30
0.0
 40
0.4000000000000142
  0
CIRCLE
  5
1DD
330
70
100
AcDbEntity
  8
0
 62
     7
370
    25
100
AcDbCircle
 10
63.79913888686035
 20
-44.81159721773377
 30
0.0
 40
0.5461000000002377
  0
CIRCLE
  5
1DE
330
70
100
AcDbEntity
  8
0
 62
     7
370
    25
100
AcDbCircle
 10
61.25913888686045
 20
-44.81159721773377
 30
0.0
 40
0.5461000000002377
  0
CIRCLE
  5
1DF
330
70
100
AcDbEntity
  8
0
 62
     7
370
    25
100
AcDbCircle
 10
63.79913888686035
 20
-60.0515972177338
 30
0.0
 40
0.5461000000002377
  0
CIRCLE
  5
1E0
330
70
100
AcDbEntity
  8
0
 62
     7
370
    25
100
AcDbCircle
 10
61.25913888686045
 20
-60.0515972177338
 30
0.0
 40
0.5461000000002377
  0
CIRCLE
  5
1E1
330
70
100
AcDbEntity
  8
0
 62
     7
370
    25
100
AcDbCircle
 10
51.13513888686039
 20
-28.30159721773381
 30
0.0
 40
1.499999999999892
  0
CIRCLE
  5
1E2
330
70
100
AcDbEntity
  8
0
 62
     7
370
    25
100
AcDbCircle
 10
53.6751388868603
 20
-33.38159721773392
 30
0.0
 40
0.8749999999999506
  0
CIRCLE
  5
1E3
330
70
100
AcDbEntity
  8
0
 62
     7
370
    25
100
AcDbCircle
 10
48.59513888686034
 20
-33.38159721773392
 30
0.0
 40
1.99390000000006
  0
CIRCLE
  5
1E4
330
70
100
AcDbEntity
  8
0
 62
     7
370
    25
100
AcDbCircle
 10
44.78513888686033
 20
-30.8415972177337
 30
0.0
 40
1.499999999999892
  0
CIRCLE
  5
1E5
330
70
100
AcDbEntity
  8
0
 62
     7
370
    25
100
AcDbCircle
 10
43.51513888686038
 20
-33.38159721773392
 30
0.0
 40
0.8750000000001111
  0
CIRCLE
  5
1E6
330
70
100
AcDbEntity
  8
0
 62
     7
370
    25
100
AcDbCircle
 10
34.62513888686043
 20
-33.38159721773392
 30
0.0
 40
0.8750000000001111
  0
CIRCLE
  5
1E7
330
70
100
AcDbEntity
  8
0
 62
     7
370
    25
100
AcDbCircle
 10
52.4051388868605
 20
-41.71597221773408
 30
0.0
 40
0.4000000000000142
  0
CIRCLE
  5
1E8
330
70
100
AcDbEntity
  8
0
 62
     7
370
    25
100
AcDbCircle
 10
44.78513888686017
 20
-41.71597221773408
 30
0.0
 40
0.4000000000000142
  0
CIRCLE
  5
1E9
330
70
100
AcDbEntity
  8
0
 62
     7
370
    25
100
AcDbCircle
 10
32.08513888686053
 20
-28.30159721773381
 30
0.0
 40
1.500000000000052
  0
CIRCLE
  5
1EA
330
70
100
AcDbEntity
  8
0
 62
     7
370
    25
100
AcDbCircle
 10
29.54513888686031
 20
-33.38159721773392
 30
0.0
 40
1.993899999999819
  0
CIRCLE
  5
1EB
330
70
100
AcDbEntity
  8
0
 62
     7
370
    25
100
AcDbCircle
 10
25.73513888686047
 20
-30.8415972177337
 30
0.0
 40
1.500000000000052
  0
CIRCLE
  5
1EC
330
70
100
AcDbEntity
  8
0
 62
     7
370
    25
100
AcDbCircle
 10
24.46513888686052
 20
-33.38159721773392
 30
0.0
 40
0.8749999999999506
  0
CIRCLE
  5
1ED
330
70
100
AcDbEntity
  8
0
 62
     7
370
    25
100
AcDbCircle
 10
13.03513888686034
 20
-28.30159721773381
 30
0.0
 40
1.500000000000052
  0
CIRCLE
  5
1EE
330
70
100
AcDbEntity
  8
0
 62
     7
370
    25
100
AcDbCircle
 10
15.57513888686039
 20
-33.38159721773392
 30
0.0
 40
0.8750000000001913
  0
CIRCLE
  5
1EF
330
70
100
AcDbEntity
  8
0
 62
     7
370
    25
100
AcDbCircle
 10
10.4951388868606
 20
-33.38159721773392
 30
0.0
 40
1.99390000000006
  0
CIRCLE
  5
1F0
330
70
100
AcDbEntity
  8
0
 62
     7
370
    25
100
AcDbCircle
 10
33.35513888686032
 20
-41.71597221773408
 30
0.0
 40
0.4000000000000142
  0
CIRCLE
  5
1F1
330
70
100
AcDbEntity
  8
0
 62
     7
370
    25
100
AcDbCircle
 10
25.73513888686063
 20
-41.71597221773408
 30
0.0
 40
0.4000000000000142
  0
CIRCLE
  5
1F2
330
70
100
AcDbEntity
  8
0
 62
     7
370
    25
100
AcDbCircle
 10
14.30513888686012
 20
-41.71597221773408
 30
0.0
 40
0.4000000000000142
  0
CIRCLE
  5
1F3
330
70
100
AcDbEntity
  8
0
 62
     7
370
    25
100
AcDbCircle
 10
58.71913888686055
 20
-44.81159721773377
 30
0.0
 40
0.5461000000002377
  0
CIRCLE
  5
1F4
330
70
100
AcDbEntity
  8
0
 62
     7
370
    25
100
AcDbCircle
 10
56.17913888686033
 20
-44.81159721773377
 30
0.0
 40
0.5461000000000773
  0
CIRCLE
  5
1F5
330
70
100
AcDbEntity
  8
0
 62
     7
370
    25
100
AcDbCircle
 10
53.63913888686044
 20
-44.81159721773377
 30
0.0
 40
0.5461000000000773
  0
CIRCLE
  5
1F6
330
70
100
AcDbEntity
  8
0
 62
     7
370
    25
100
AcDbCircle
 10
51.09913888686038
 20
-44.81159721773377
 30
0.0
 40
0.5460999999999972
  0
CIRCLE
  5
1F7
330
70
100
AcDbEntity
  8
0
 62
     7
370
    25
100
AcDbCircle
 10
48.55913888686048
 20
-44.81159721773377
 30
0.0
 40
0.5460999999999972
  0
CIRCLE
  5
1F8
330
70
100
AcDbEntity
  8
0
 62
     7
370
    25
100
AcDbCircle
 10
46.01913888686042
 20
-44.81159721773377
 30
0.0
 40
0.5461000000002377
  0
CIRCLE
  5
1F9
330
70
100
AcDbEntity
  8
0
 62
     7
370
    25
100
AcDbCircle
 10
43.47913888686052
 20
-44.81159721773377
 30
0.0
 40
0.5461000000002377
  0
CIRCLE
  5
1FA
330
70
100
AcDbEntity
  8
0
 62
     7
370
    25
100
AcDbCircle
 10
40.93913888686031
 20
-44.81159721773377
 30
0.0
 40
0.5461000000000773
  0
CIRCLE
  5
1FB
330
70
100
AcDbEntity
  8
0
 62
     7
370
    25
100
AcDbCircle
 10
38.39913888686041
 20
-44.81159721773377
 30
0.0
 40
0.5461000000000773
  0
CIRCLE
  5
1FC
330
70
100
AcDbEntity
  8
0
 62
     7
370
    25
100
AcDbCircle
 10
35.85913888686036
 20
-44.81159721773377
 30
0.0
 40
0.5460999999999972
  0
CIRCLE
  5
1FD
330
70
100
AcDbEntity
  8
0
 62
     7
370
    25
100
AcDbCircle
 10
58.71913888686055
 20
-60.0515972177338
 30
0.0
 40
0.5461000000002377
  0
CIRCLE
  5
1FE
330
70
100
AcDbEntity
  8
0
 62
     7
370
    25
100
AcDbCircle
 10
56.17913888686033
 20
-60.0515972177338
 30
0.0
 40
0.5461000000000773
  0
CIRCLE
  5
1FF
330
70
100
AcDbEntity
  8
0
 62
     7
370
    25
100
AcDbCircle
 10
53.63913888686044
 20
-60.0515972177338
 30
0.0
 40
0.5461000000000773
  0
CIRCLE
  5
200
330
70
100
AcDbEntity
  8
0
 62
     7
370
    25
100
AcDbCircle
 10
51.09913888686038
 20
-60.0515972177338
 30
0.0
 40
0.5460999999999972
  0
CIRCLE
  5
201
330
70
100
AcDbEntity
  8
0
 62
     7
370
    25
100
AcDbCircle
 10
48.55913888686048
 20
-60.0515972177338
 30
0.0
 40
0.5460999999999972
  0
CIRCLE
  5
202
330
70
100
AcDbEntity
  8
0
 62
     7
370
    25
100
AcDbCircle
 10
46.01913888686042
 20
-60.0515972177338
 30
0.0
 40
0.5461000000002377
  0
CIRCLE
  5
203
330
70
100
AcDbEntity
  8
0
 62
     7
370
    25
100
AcDbCircle
 10
43.47913888686052
 20
-60.0515972177338
 30
0.0
 40
0.5461000000002377
  0
CIRCLE
  5
204
330
70
100
AcDbEntity
  8
0
 62
     7
370
    25
100
AcDbCircle
 10
40.93913888686031
 20
-60.0515972177338
 30
0.0
 40
0.5461000000000773
  0
CIRCLE
  5
205
330
70
100
AcDbEntity
  8
0
 62
     7
370
    25
100
AcDbCircle
 10
38.39913888686041
 20
-60.0515972177338
 30
0.0
 40
0.5461000000000773
  0
CIRCLE
  5
206
330
70
100
AcDbEntity
  8
0
 62
     7
370
    25
100
AcDbCircle
 10
35.85913888686036
 20
-60.0515972177338
 30
0.0
 40
0.5460999999999972
  0
CIRCLE
  5
207
330
70
100
AcDbEntity
  8
0
 62
     7
370
    25
100
AcDbCircle
 10
6.685138886860354
 20
7.258402782266282
 30
0.0
 40
1.499999999999972
  0
CIRCLE
  5
208
330
70
100
AcDbEntity
  8
0
 62
     7
370
    25
100
AcDbCircle
 10
5.415138886860486
 20
4.718402782266144
 30
0.0
 40
0.8749999999998705
  0
CIRCLE
  5
209
330
70
100
AcDbEntity
  8
0
 62
     7
370
    25
100
AcDbCircle
 10
-3.474861113139474
 20
4.718402782266144
 30
0.0
 40
0.8749999999998705
  0
CIRCLE
  5
20A
330
70
100
AcDbEntity
  8
0
 62
     7
370
    25
100
AcDbCircle
 10
-8.554861113139589
 20
4.718402782266305
 30
0.0
 40
1.99390000000014
  0
CIRCLE
  5
20B
330
70
100
AcDbEntity
  8
0
 62
     7
370
    25
100
AcDbCircle
 10
-12.36486111313968
 20
7.258402782266282
 30
0.0
 40
1.499999999999892
  0
CIRCLE
  5
20C
330
70
100
AcDbEntity
  8
0
 62
     7
370
    25
100
AcDbCircle
 10
-13.63486111313962
 20
4.718402782266144
 30
0.0
 40
0.8749999999999104
  0
CIRCLE
  5
20D
330
70
100
AcDbEntity
  8
0
 62
     7
370
    25
100
AcDbCircle
 10
6.685138886860435
 20
-3.615972217733698
 30
0.0
 40
0.4000000000000142
  0
CIRCLE
  5
20E
330
70
100
AcDbEntity
  8
0
 62
     7
370
    25
100
AcDbCircle
 10
-4.744861113139744
 20
-3.615972217733698
 30
0.0
 40
0.4000000000000142
  0
CIRCLE
  5
20F
330
70
100
AcDbEntity
  8
0
 62
     7
370
    25
100
AcDbCircle
 10
-12.36486111313976
 20
-3.615972217733698
 30
0.0
 40
0.4000000000000142
  0
CIRCLE
  5
210
330
70
100
AcDbEntity
  8
0
 62
     7
370
    25
100
AcDbCircle
 10
-22.52486111313967
 20
4.718402782266144
 30
0.0
 40
0.8749999999998705
  0
CIRCLE
  5
211
330
70
100
AcDbEntity
  8
0
 62
     7
370
    25
100
AcDbCircle
 10
-27.60486111313954
 20
4.718402782266305
 30
0.0
 40
1.9939000000001
  0
CIRCLE
  5
212
330
70
100
AcDbEntity
  8
0
 62
     7
370
    25
100
AcDbCircle
 10
-31.41486111313963
 20
7.258402782266282
 30
0.0
 40
1.500000000000012
  0
CIRCLE
  5
213
330
70
100
AcDbEntity
  8
0
 62
     7
370
    25
100
AcDbCircle
 10
-32.68486111313958
 20
4.718402782266144
 30
0.0
 40
0.8749999999998705
  0
CIRCLE
  5
214
330
70
100
AcDbEntity
  8
0
 62
     7
370
    25
100
AcDbCircle
 10
-41.57486111313953
 20
4.718402782266144
 30
0.0
 40
0.8749999999998705
  0
CIRCLE
  5
215
330
70
100
AcDbEntity
  8
0
 62
     7
370
    25
100
AcDbCircle
 10
-23.79486111313962
 20
-3.615972217733698
 30
0.0
 40
0.4000000000000142
  0
CIRCLE
  5
216
330
70
100
AcDbEntity
  8
0
 62
     7
370
    25
100
AcDbCircle
 10
-31.41486111313963
 20
-3.615972217733698
 30
0.0
 40
0.4000000000000142
  0
CIRCLE
  5
217
330
70
100
AcDbEntity
  8
0
 62
     7
370
    25
100
AcDbCircle
 10
-42.84486111313948
 20
-3.615972217733698
 30
0.0
 40
0.4000000000000142
  0
CIRCLE
  5
218
330
70
100
AcDbEntity
  8
0
 62
     7
370
    25
100
AcDbCircle
 10
1.922638886860386
 20
-11.79159721773383
 30
0.0
 40
1.500000000000133
  0
CIRCLE
  5
219
330
70
100
AcDbEntity
  8
0
 62
     7
370
    25
100
AcDbCircle
 10
5.732638886860473
 20
-14.33159721773388
 30
0.0
 40
1.9939000000001
  0
CIRCLE
  5
21A
330
70
100
AcDbEntity
  8
0
 62
     7
370
    25
100
AcDbCircle
 10
0.6526388868604385
 20
-14.33159721773372
 30
0.0
 40
0.8750000000000309
  0
CIRCLE
  5
21B
330
70
100
AcDbEntity
  8
0
 62
     7
370
    25
100
AcDbCircle
 10
-10.7773611131395
 20
-9.25159721773393
 30
0.0
 40
1.500000000000093
  0
CIRCLE
  5
21C
330
70
100
AcDbEntity
  8
0
 62
     7
370
    25
100
AcDbCircle
 10
-17.12736111313948
 20
-11.79159721773383
 30
0.0
 40
1.500000000000133
  0
CIRCLE
  5
21D
330
70
100
AcDbEntity
  8
0
 62
     7
370
    25
100
AcDbCircle
 10
-8.237361113139522
 20
-14.33159721773372
 30
0.0
 40
0.8750000000000309
  0
CIRCLE
  5
21E
330
70
100
AcDbEntity
  8
0
 62
     7
370
    25
100
AcDbCircle
 10
-13.31736111313956
 20
-14.33159721773388
 30
0.0
 40
1.99390000000002
  0
CIRCLE
  5
21F
330
70
100
AcDbEntity
  8
0
 62
     7
370
    25
100
AcDbCircle
 10
1.922638886860386
 20
-22.66597221773389
 30
0.0
 40
0.4000000000000142
  0
CIRCLE
  5
220
330
70
100
AcDbEntity
  8
0
 62
     7
370
    25
100
AcDbCircle
 10
-9.50736111313947
 20
-22.66597221773389
 30
0.0
 40
0.4000000000000142
  0
CIRCLE
  5
221
330
70
100
AcDbEntity
  8
0
 62
     7
370
    25
100
AcDbCircle
 10
-17.12736111313948
 20
-22.66597221773389
 30
0.0
 40
0.4000000000000142
  0
CIRCLE
  5
222
330
70
100
AcDbEntity
  8
0
 62
     7
370
    25
100
AcDbCircle
 10
-29.82736111313961
 20
-9.25159721773393
 30
0.0
 40
1.500000000000133
  0
CIRCLE
  5
223
330
70
100
AcDbEntity
  8
0
 62
     7
370
    25
100
AcDbCircle
 10
-18.39736111313951
 20
-14.33159721773372
 30
0.0
 40
0.8750000000001511
  0
CIRCLE
  5
224
330
70
100
AcDbEntity
  8
0
 62
     7
370
    25
100
AcDbCircle
 10
-27.28736111313963
 20
-14.33159721773372
 30
0.0
 40
0.8750000000000708
  0
CIRCLE
  5
225
330
70
100
AcDbEntity
  8
0
 62
     7
370
    25
100
AcDbCircle
 10
-36.17736111313968
 20
-11.79159721773383
 30
0.0
 40
1.500000000000133
  0
CIRCLE
  5
226
330
70
100
AcDbEntity
  8
0
 62
     7
370
    25
100
AcDbCircle
 10
-32.36736111313959
 20
-14.33159721773388
 30
0.0
 40
1.9939000000001
  0
CIRCLE
  5
227
330
70
100
AcDbEntity
  8
0
 62
     7
370
    25
100
AcDbCircle
 10
-37.44736111313962
 20
-14.33159721773372
 30
0.0
 40
0.8750000000000309
  0
CIRCLE
  5
228
330
70
100
AcDbEntity
  8
0
 62
     7
370
    25
100
AcDbCircle
 10
-28.55736111313966
 20
-22.66597221773389
 30
0.0
 40
0.4000000000000142
  0
CIRCLE
  5
229
330
70
100
AcDbEntity
  8
0
 62
     7
370
    25
100
AcDbCircle
 10
-36.17736111313968
 20
-22.66597221773389
 30
0.0
 40
0.4000000000000142
  0
CIRCLE
  5
22A
330
70
100
AcDbEntity
  8
0
 62
     7
370
    25
100
AcDbCircle
 10
-46.65486111313957
 20
4.718402782266305
 30
0.0
 40
1.99390000000002
  0
CIRCLE
  5
22B
330
70
100
AcDbEntity
  8
0
 62
     7
370
    25
100
AcDbCircle
 10
-50.46486111313949
 20
7.258402782266282
 30
0.0
 40
1.500000000000012
  0
CIRCLE
  5
22C
330
70
100
AcDbEntity
  8
0
 62
     7
370
    25
100
AcDbCircle
 10
-51.73486111313969
 20
4.718402782266144
 30
0.0
 40
0.8749999999999104
  0
CIRCLE
  5
22D
330
70
100
AcDbEntity
  8
0
 62
     7
370
    25
100
AcDbCircle
 10
-60.62486111313964
 20
4.718402782266144
 30
0.0
 40
0.8749999999999104
  0
CIRCLE
  5
22E
330
70
100
AcDbEntity
  8
0
 62
     7
370
    25
100
AcDbCircle
 10
-69.51486111313968
 20
7.258402782266282
 30
0.0
 40
1.500000000000012
  0
CIRCLE
  5
22F
330
70
100
AcDbEntity
  8
0
 62
     7
370
    25
100
AcDbCircle
 10
-65.7048611131396
 20
4.718402782266305
 30
0.0
 40
1.9939000000001
  0
CIRCLE
  5
230
330
70
100
AcDbEntity
  8
0
 62
     7
370
    25
100
AcDbCircle
 10
-50.46486111313949
 20
-3.615972217733698
 30
0.0
 40
0.4000000000000142
  0
CIRCLE
  5
231
330
70
100
AcDbEntity
  8
0
 62
     7
370
    25
100
AcDbCircle
 10
-61.89486111313968
 20
-3.615972217733698
 30
0.0
 40
0.4000000000000142
  0
CIRCLE
  5
232
330
70
100
AcDbEntity
  8
0
 62
     7
370
    25
100
AcDbCircle
 10
-69.51486111313968
 20
-3.615972217733698
 30
0.0
 40
0.4000000000000142
  0
CIRCLE
  5
233
330
70
100
AcDbEntity
  8
0
 62
     7
370
    25
100
AcDbCircle
 10
-70.78486111313964
 20
4.718402782266144
 30
0.0
 40
0.8749999999998705
  0
CIRCLE
  5
234
330
70
100
AcDbEntity
  8
0
 62
     7
370
    25
100
AcDbCircle
 10
-79.67486111313959
 20
4.718402782266144
 30
0.0
 40
0.8749999999998705
  0
CIRCLE
  5
235
330
70
100
AcDbEntity
  8
0
 62
     7
370
    25
100
AcDbCircle
 10
-88.56486111313955
 20
7.258402782266282
 30
0.0
 40
1.500000000000012
  0
CIRCLE
  5
236
330
70
100
AcDbEntity
  8
0
 62
     7
370
    25
100
AcDbCircle
 10
-84.75486111313962
 20
4.718402782266305
 30
0.0
 40
1.99390000000002
  0
CIRCLE
  5
237
330
70
100
AcDbEntity
  8
0
 62
     7
370
    25
100
AcDbCircle
 10
-89.83486111313951
 20
4.718402782266144
 30
0.0
 40
0.8749999999998705
  0
CIRCLE
  5
238
330
70
100
AcDbEntity
  8
0
 62
     7
370
    25
100
AcDbCircle
 10
-80.94486111313955
 20
-3.615972217733698
 30
0.0
 40
0.4000000000000142
  0
CIRCLE
  5
239
330
70
100
AcDbEntity
  8
0
 62
     7
370
    25
100
AcDbCircle
 10
-88.56486111313955
 20
-3.615972217733698
 30
0.0
 40
0.4000000000000142
  0
CIRCLE
  5
23A
330
70
100
AcDbEntity
  8
0
 62
     7
370
    25
100
AcDbCircle
 10
-48.87736111313948
 20
-9.25159721773393
 30
0.0
 40
1.500000000000133
  0
CIRCLE
  5
23B
330
70
100
AcDbEntity
  8
0
 62
     7
370
    25
100
AcDbCircle
 10
-55.22736111313954
 20
-11.79159721773383
 30
0.0
 40
1.500000000000133
  0
CIRCLE
  5
23C
330
70
100
AcDbEntity
  8
0
 62
     7
370
    25
100
AcDbCircle
 10
-46.33736111313958
 20
-14.33159721773372
 30
0.0
 40
0.8750000000000309
  0
CIRCLE
  5
23D
330
70
100
AcDbEntity
  8
0
 62
     7
370
    25
100
AcDbCircle
 10
-51.41736111313962
 20
-14.33159721773388
 30
0.0
 40
1.99390000000002
  0
CIRCLE
  5
23E
330
70
100
AcDbEntity
  8
0
 62
     7
370
    25
100
AcDbCircle
 10
-56.49736111313949
 20
-14.33159721773372
 30
0.0
 40
0.8750000000000309
  0
CIRCLE
  5
23F
330
70
100
AcDbEntity
  8
0
 62
     7
370
    25
100
AcDbCircle
 10
-67.92736111313967
 20
-9.25159721773393
 30
0.0
 40
1.500000000000133
  0
CIRCLE
  5
240
330
70
100
AcDbEntity
  8
0
 62
     7
370
    25
100
AcDbCircle
 10
-65.38736111313944
 20
-14.33159721773372
 30
0.0
 40
0.8750000000000309
  0
CIRCLE
  5
241
330
70
100
AcDbEntity
  8
0
 62
     7
370
    25
100
AcDbCircle
 10
-47.60736111313953
 20
-22.66597221773389
 30
0.0
 40
0.4000000000000142
  0
CIRCLE
  5
242
330
70
100
AcDbEntity
  8
0
 62
     7
370
    25
100
AcDbCircle
 10
-55.22736111313954
 20
-22.66597221773389
 30
0.0
 40
0.4000000000000142
  0
CIRCLE
  5
243
330
70
100
AcDbEntity
  8
0
 62
     7
370
    25
100
AcDbCircle
 10
-60.94236111313955
 20
-21.4753472177338
 30
0.0
 40
2.109999999999906
  0
CIRCLE
  5
244
330
70
100
AcDbEntity
  8
0
 62
     7
370
    25
100
AcDbCircle
 10
-66.65736111313973
 20
-22.66597221773389
 30
0.0
 40
0.4000000000000142
  0
CIRCLE
  5
245
330
70
100
AcDbEntity
  8
0
 62
     7
370
    25
100
AcDbCircle
 10
-74.27736111313966
 20
-11.79159721773383
 30
0.0
 40
1.500000000000012
  0
CIRCLE
  5
246
330
70
100
AcDbEntity
  8
0
 62
     7
370
    25
100
AcDbCircle
 10
-70.46736111313965
 20
-14.33159721773388
 30
0.0
 40
1.9939000000001
  0
CIRCLE
  5
247
330
70
100
AcDbEntity
  8
0
 62
     7
370
    25
100
AcDbCircle
 10
-75.54736111313968
 20
-14.33159721773372
 30
0.0
 40
0.8750000000000309
  0
CIRCLE
  5
248
330
70
100
AcDbEntity
  8
0
 62
     7
370
    25
100
AcDbCircle
 10
-86.97736111313954
 20
-9.25159721773393
 30
0.0
 40
1.500000000000133
  0
CIRCLE
  5
249
330
70
100
AcDbEntity
  8
0
 62
     7
370
    25
100
AcDbCircle
 10
-93.32736111313961
 20
-11.79159721773383
 30
0.0
 40
1.500000000000133
  0
CIRCLE
  5
24A
330
70
100
AcDbEntity
  8
0
 62
     7
370
    25
100
AcDbCircle
 10
-84.43736111313965
 20
-14.33159721773372
 30
0.0
 40
0.8750000000000309
  0
CIRCLE
  5
24B
330
70
100
AcDbEntity
  8
0
 62
     7
370
    25
100
AcDbCircle
 10
-89.51736111313968
 20
-14.33159721773388
 30
0.0
 40
1.99390000000002
  0
CIRCLE
  5
24C
330
70
100
AcDbEntity
  8
0
 62
     7
370
    25
100
AcDbCircle
 10
-94.59736111313956
 20
-14.33159721773372
 30
0.0
 40
0.8750000000000309
  0
CIRCLE
  5
24D
330
70
100
AcDbEntity
  8
0
 62
     7
370
    25
100
AcDbCircle
 10
-74.27736111313973
 20
-22.66597221773389
 30
0.0
 40
0.4000000000000142
  0
CIRCLE
  5
24E
330
70
100
AcDbEntity
  8
0
 62
     7
370
    25
100
AcDbCircle
 10
-85.7073611131396
 20
-22.66597221773389
 30
0.0
 40
0.4000000000000142
  0
CIRCLE
  5
24F
330
70
100
AcDbEntity
  8
0
 62
     7
370
    25
100
AcDbCircle
 10
-93.32736111313961
 20
-22.66597221773389
 30
0.0
 40
0.4000000000000142
  0
CIRCLE
  5
250
330
70
100
AcDbEntity
  8
0
 62
     7
370
    25
100
AcDbCircle
 10
6.685138886860354
 20
-30.8415972177337
 30
0.0
 40
1.499999999999932
  0
CIRCLE
  5
251
330
70
100
AcDbEntity
  8
0
 62
     7
370
    25
100
AcDbCircle
 10
5.415138886860486
 20
-33.38159721773392
 30
0.0
 40
0.8750000000000309
  0
CIRCLE
  5
252
330
70
100
AcDbEntity
  8
0
 62
     7
370
    25
100
AcDbCircle
 10
-3.474861113139474
 20
-33.38159721773392
 30
0.0
 40
0.8750000000000309
  0
CIRCLE
  5
253
330
70
100
AcDbEntity
  8
0
 62
     7
370
    25
100
AcDbCircle
 10
-6.014861113139692
 20
-28.30159721773381
 30
0.0
 40
1.499999999999972
  0
CIRCLE
  5
254
330
70
100
AcDbEntity
  8
0
 62
     7
370
    25
100
AcDbCircle
 10
-8.554861113139589
 20
-33.38159721773392
 30
0.0
 40
1.99390000000006
  0
CIRCLE
  5
255
330
70
100
AcDbEntity
  8
0
 62
     7
370
    25
100
AcDbCircle
 10
-12.36486111313968
 20
-30.8415972177337
 30
0.0
 40
1.499999999999852
  0
CIRCLE
  5
256
330
70
100
AcDbEntity
  8
0
 62
     7
370
    25
100
AcDbCircle
 10
-13.63486111313962
 20
-33.38159721773392
 30
0.0
 40
0.8750000000000708
  0
CIRCLE
  5
257
330
70
100
AcDbEntity
  8
0
 62
     7
370
    25
100
AcDbCircle
 10
6.685138886860435
 20
-41.71597221773408
 30
0.0
 40
0.4000000000000142
  0
CIRCLE
  5
258
330
70
100
AcDbEntity
  8
0
 62
     7
370
    25
100
AcDbCircle
 10
-4.744861113139744
 20
-41.71597221773408
 30
0.0
 40
0.4000000000000142
  0
CIRCLE
  5
259
330
70
100
AcDbEntity
  8
0
 62
     7
370
    25
100
AcDbCircle
 10
-12.36486111313976
 20
-41.71597221773408
 30
0.0
 40
0.4000000000000142
  0
CIRCLE
  5
25A
330
70
100
AcDbEntity
  8
0
 62
     7
370
    25
100
AcDbCircle
 10
-25.06486111313956
 20
-28.30159721773381
 30
0.0
 40
1.499999999999972
  0
CIRCLE
  5
25B
330
70
100
AcDbEntity
  8
0
 62
     7
370
    25
100
AcDbCircle
 10
-22.52486111313967
 20
-33.38159721773392
 30
0.0
 40
0.8750000000000309
  0
CIRCLE
  5
25C
330
70
100
AcDbEntity
  8
0
 62
     7
370
    25
100
AcDbCircle
 10
-27.60486111313954
 20
-33.38159721773392
 30
0.0
 40
1.99390000000002
  0
CIRCLE
  5
25D
330
70
100
AcDbEntity
  8
0
 62
     7
370
    25
100
AcDbCircle
 10
-31.41486111313963
 20
-30.8415972177337
 30
0.0
 40
1.499999999999972
  0
CIRCLE
  5
25E
330
70
100
AcDbEntity
  8
0
 62
     7
370
    25
100
AcDbCircle
 10
-32.68486111313958
 20
-33.38159721773392
 30
0.0
 40
0.8750000000000309
  0
CIRCLE
  5
25F
330
70
100
AcDbEntity
  8
0
 62
     7
370
    25
100
AcDbCircle
 10
-41.57486111313953
 20
-33.38159721773392
 30
0.0
 40
0.8750000000000309
  0
CIRCLE
  5
260
330
70
100
AcDbEntity
  8
0
 62
     7
370
    25
100
AcDbCircle
 10
-23.79486111313962
 20
-41.71597221773408
 30
0.0
 40
0.4000000000000142
  0
CIRCLE
  5
261
330
70
100
AcDbEntity
  8
0
 62
     7
370
    25
100
AcDbCircle
 10
-31.41486111313963
 20
-41.71597221773408
 30
0.0
 40
0.4000000000000142
  0
CIRCLE
  5
262
330
70
100
AcDbEntity
  8
0
 62
     7
370
    25
100
AcDbCircle
 10
-42.84486111313948
 20
-41.71597221773408
 30
0.0
 40
0.4000000000000142
  0
CIRCLE
  5
263
330
70
100
AcDbEntity
  8
0
 62
     7
370
    25
100
AcDbCircle
 10
-44.11486111313967
 20
-28.30159721773381
 30
0.0
 40
1.499999999999852
  0
CIRCLE
  5
264
330
70
100
AcDbEntity
  8
0
 62
     7
370
    25
100
AcDbCircle
 10
-46.65486111313957
 20
-33.38159721773392
 30
0.0
 40
1.99389999999994
  0
CIRCLE
  5
265
330
70
100
AcDbEntity
  8
0
 62
     7
370
    25
100
AcDbCircle
 10
-50.46486111313949
 20
-30.8415972177337
 30
0.0
 40
1.499999999999972
  0
CIRCLE
  5
266
330
70
100
AcDbEntity
  8
0
 62
     7
370
    25
100
AcDbCircle
 10
-51.73486111313969
 20
-33.38159721773392
 30
0.0
 40
0.8750000000000708
  0
CIRCLE
  5
267
330
70
100
AcDbEntity
  8
0
 62
     7
370
    25
100
AcDbCircle
 10
-63.16486111313962
 20
-28.30159721773381
 30
0.0
 40
1.499999999999972
  0
CIRCLE
  5
268
330
70
100
AcDbEntity
  8
0
 62
     7
370
    25
100
AcDbCircle
 10
-60.62486111313964
 20
-33.38159721773392
 30
0.0
 40
0.8750000000000708
  0
CIRCLE
  5
269
330
70
100
AcDbEntity
  8
0
 62
     7
370
    25
100
AcDbCircle
 10
-69.51486111313968
 20
-30.8415972177337
 30
0.0
 40
1.499999999999972
  0
CIRCLE
  5
26A
330
70
100
AcDbEntity
  8
0
 62
     7
370
    25
100
AcDbCircle
 10
-65.7048611131396
 20
-33.38159721773392
 30
0.0
 40
1.99390000000002
  0
CIRCLE
  5
26B
330
70
100
AcDbEntity
  8
0
 62
     7
370
    25
100
AcDbCircle
 10
-50.46486111313949
 20
-41.71597221773408
 30
0.0
 40
0.4000000000000142
  0
CIRCLE
  5
26C
330
70
100
AcDbEntity
  8
0
 62
     7
370
    25
100
AcDbCircle
 10
-61.89486111313968
 20
-41.71597221773408
 30
0.0
 40
0.4000000000000142
  0
CIRCLE
  5
26D
330
70
100
AcDbEntity
  8
0
 62
     7
370
    25
100
AcDbCircle
 10
-69.51486111313968
 20
-41.71597221773408
 30
0.0
 40
0.4000000000000142
  0
CIRCLE
  5
26E
330
70
100
AcDbEntity
  8
0
 62
     7
370
    25
100
AcDbCircle
 10
-82.21486111313948
 20
-28.30159721773381
 30
0.0
 40
1.499999999999972
  0
CIRCLE
  5
26F
330
70
100
AcDbEntity
  8
0
 62
     7
370
    25
100
AcDbCircle
 10
-70.78486111313964
 20
-33.38159721773392
 30
0.0
 40
0.8750000000000309
  0
CIRCLE
  5
270
330
70
100
AcDbEntity
  8
0
 62
     7
370
    25
100
AcDbCircle
 10
-79.67486111313959
 20
-33.38159721773392
 30
0.0
 40
0.8750000000000309
  0
CIRCLE
  5
271
330
70
100
AcDbEntity
  8
0
 62
     7
370
    25
100
AcDbCircle
 10
-88.56486111313955
 20
-30.8415972177337
 30
0.0
 40
1.499999999999972
  0
CIRCLE
  5
272
330
70
100
AcDbEntity
  8
0
 62
     7
370
    25
100
AcDbCircle
 10
-84.75486111313962
 20
-33.38159721773392
 30
0.0
 40
1.99389999999994
  0
CIRCLE
  5
273
330
70
100
AcDbEntity
  8
0
 62
     7
370
    25
100
AcDbCircle
 10
-89.83486111313951
 20
-33.38159721773392
 30
0.0
 40
0.8750000000000309
  0
CIRCLE
  5
274
330
70
100
AcDbEntity
  8
0
 62
     7
370
    25
100
AcDbCircle
 10
-80.94486111313955
 20
-41.71597221773408
 30
0.0
 40
0.4000000000000142
  0
CIRCLE
  5
275
330
70
100
AcDbEntity
  8
0
 62
     7
370
    25
100
AcDbCircle
 10
-88.56486111313955
 20
-41.71597221773408
 30
0.0
 40
0.4000000000000142
  0
CIRCLE
  5
276
330
70
100
AcDbEntity
  8
0
 62
     7
370
    25
100
AcDbCircle
 10
-47.57986111313944
 20
-50.99534721773378
 30
0.0
 40
0.5000000000000978
  0
CIRCLE
  5
277
330
70
100
AcDbEntity
  8
0
 62
     7
370
    25
100
AcDbCircle
 10
-52.56417511313952
 20
-50.18159721773386
 30
0.0
 40
0.5500000000001397
  0
CIRCLE
  5
278
330
70
100
AcDbEntity
  8
0
 62
     7
370
    25
100
AcDbCircle
 10
-59.06417511313959
 20
-50.18159721773386
 30
0.0
 40
0.55000000000022
  0
CIRCLE
  5
279
330
70
100
AcDbEntity
  8
0
 62
     7
370
    25
100
AcDbCircle
 10
-47.57986111313944
 20
-53.53534721773367
 30
0.0
 40
0.5000000000000978
  0
CIRCLE
  5
27A
330
70
100
AcDbEntity
  8
0
 62
     7
370
    25
100
AcDbCircle
 10
-52.56417511313952
 20
-54.68159721773386
 30
0.0
 40
0.5499999999998991
  0
CIRCLE
  5
27B
330
70
100
AcDbEntity
  8
0
 62
     7
370
    25
100
AcDbCircle
 10
-59.06417511313959
 20
-54.68159721773386
 30
0.0
 40
0.5499999999999793
  0
ENDSEC
  0
SECTION
  2
OBJECTS
  0
DICTIONARY
  5
C
330
0
100
AcDbDictionary
281
     1
  3
ACAD_COLOR
350
63
  3
ACAD_DETAILVIEWSTYLE
350
6A
  3
ACAD_GROUP
350
D
  3
ACAD_LAYOUT
350
62
  3
ACAD_MATERIAL
350
10
  3
ACAD_MLEADERSTYLE
350
66
  3
ACAD_MLINESTYLE
350
5F
  3
ACAD_PLOTSETTINGS
350
61
  3
ACAD_PLOTSTYLENAME
350
E
  3
ACAD_SCALELIST
350
42
  3
ACAD_SECTIONVIEWSTYLE
350
68
  3
ACAD_TABLESTYLE
350
64
  3
ACAD_VISUALSTYLE
350
29
  3
ACDB_RECOMPOSE_DATA
350
284
  3
AcDbVariableDictionary
350
27C
  0
DICTIONARY
  5
63
102
{ACAD_REACTORS
330
C
102
}
330
C
100
AcDbDictionary
281
     1
  0
DICTIONARY
  5
6A
102
{ACAD_REACTORS
330
C
102
}
330
C
100
AcDbDictionary
281
     1
  3
Imperial24
350
6B
  0
DICTIONARY
  5
D
102
{ACAD_REACTORS
330
C
102
}
330
C
100
AcDbDictionary
281
     1
  0
DICTIONARY
  5
62
102
{ACAD_REACTORS
330
C
102
}
330
C
100
AcDbDictionary
281
     1
  3
Layout1
350
6F
  3
Layout2
350
77
  3
Model
350
73
  0
DICTIONARY
  5
10
102
{ACAD_REACTORS
330
C
102
}
330
C
100
AcDbDictionary
281
     1
  3
ByBlock
350
19
  3
ByLayer
350
11
  3
Global
350
21
  0
DICTIONARY
  5
66
102
{ACAD_REACTORS
330
C
102
}
330
C
100
AcDbDictionary
281
     1
  3
Standard
350
67
  0
DICTIONARY
  5
5F
102
{ACAD_REACTORS
330
C
102
}
330
C
100
AcDbDictionary
281
     1
  3
Standard
350
60
  0
DICTIONARY
  5
61
102
{ACAD_REACTORS
330
C
102
}
330
C
100
AcDbDictionary
281
     1
  0
ACDBDICTIONARYWDFLT
  5
E
102
{ACAD_REACTORS
330
C
102
}
330
C
100
AcDbDictionary
281
     1
  3
Normal
350
F
100
AcDbDictionaryWithDefault
340
F
  0
DICTIONARY
  5
42
102
{ACAD_REACTORS
330
C
102
}
330
C
100
AcDbDictionary
281
     1
  3
A0
350
43
  3
A1
350
44
  3
A2
350
45
  3
A3
350
46
  3
A4
350
47
  3
A5
350
48
  3
A6
350
49
  3
A7
350
4A
  3
A8
350
4B
  3
A9
350
4C
  3
B0
350
4D
  3
B1
350
4E
  3
B2
350
4F
  3
B3
350
50
  3
B4
350
51
  3
B5
350
52
  3
B6
350
53
  0
DICTIONARY
  5
68
102
{ACAD_REACTORS
330
C
102
}
330
C
100
AcDbDictionary
281
     1
  3
Imperial24
350
69
  0
DICTIONARY
  5
64
102
{ACAD_REACTORS
330
C
102
}
330
C
100
AcDbDictionary
281
     1
  3
Standard
350
65
  0
DICTIONARY
  5
29
102
{ACAD_REACTORS
330
C
102
}
330
C
100
AcDbDictionary
281
     1
  3
2dWireframe
350
2F
  3
Basic
350
2E
  3
Brighten
350
35
  3
ColorChange
350
39
  3
Conceptual
350
32
  3
Dim
350
34
  3
EdgeColorOff
350
41
  3
Facepattern
350
38
  3
Flat
350
2A
  3
FlatWithEdges
350
2B
  3
Gouraud
350
2C
  3
GouraudWithEdges
350
2D
  3
Hidden
350
31
  3
JitterOff
350
3F
  3
Linepattern
350
37
  3
OverhangOff
350
40
  3
Realistic
350
33
  3
Shaded
350
3E
  3
Shaded with edges
350
3D
  3
Shades of Gray
350
3A
  3
Sketchy
350
3B
  3
Thicken
350
36
  3
Wireframe
350
30
  3
X-Ray
350
3C
  0
XRECORD
  5
284
102
{ACAD_REACTORS
330
C
102
}
330
C
100
AcDbXrecord
280
     1
 90
        1
330
65
  0
DICTIONARY
  5
27C
102
{ACAD_REACTORS
330
C
102
}
330
C
100
AcDbDictionary
281
     1
  3
CANNOSCALE
350
281
  3
CMLEADERSTYLE
350
27E
  3
CTABLESTYLE
350
27D
  3
CVIEWDETAILSTYLE
350
27F
  3
CVIEWSECTIONSTYLE
350
280
  0
ACDBDETAILVIEWSTYLE
  5
6B
102
{ACAD_REACTORS
330
6A
102
}
330
6A
100
AcDbModelDocViewStyle
 70
     0
  3
Imperial24
290
     1
300
Imperial24
 90
        0
100
AcDbDetailViewStyle
 70
     0
 71
     0
 90
        3
 71
     1
340
55
 62
   256
 40
0.24
340
0
 62
   256
 40
0.24
300

 40
0.36
280
     3
 71
     2
340
5D
 90
       25
 62
   256
 71
     3
340
55
 62
   256
 40
0.24
 90
        1
 40
0.75
 90
        1
300
%<\AcVar ViewType \f "%tc1">% %<\AcVar ViewDetailId>%\PSCALE %<\AcVar ViewScale \f "%sn">%
 71
     4
340
5D
 90
       25
 62
   256
340
5D
 90
       25
 62
   256
280
     0
  0
LAYOUT
  5
6F
102
{ACAD_REACTORS
330
62
102
}
330
62
100
AcDbPlotSettings
  1

  2

  4

  6

 40
0.0
 41
0.0
 42
0.0
 43
0.0
 44
0.0
 45
0.0
 46
0.0
 47
0.0
 48
0.0
 49
0.0
140
0.0
141
0.0
142
1.0
143
1.0
 70
   688
 72
     0
 73
     0
 74
     5
  7

 75
    16
147
1.0
 76
     0
 77
     2
 78
   300
148
0.0
149
0.0
100
AcDbLayout
  1
Layout1
 70
     1
 71
     1
 10
0.0
 20
0.0
 11
12.0
 21
9.0
 12
0.0
 22
0.0
 32
0.0
 14
0.0
 24
0.0
 34
0.0
 15
0.0
 25
0.0
 35
0.0
146
0.0
 13
0.0
 23
0.0
 33
0.0
 16
1.0
 26
0.0
 36
0.0
 17
0.0
 27
1.0
 37
0.0
 76
     0
330
6C
  0
LAYOUT
  5
77
102
{ACAD_REACTORS
330
62
102
}
330
62
100
AcDbPlotSettings
  1

  2

  4

  6

 40
0.0
 41
0.0
 42
0.0
 43
0.0
 44
0.0
 45
0.0
 46
0.0
 47
0.0
 48
0.0
 49
0.0
140
0.0
141
0.0
142
1.0
143
1.0
 70
   688
 72
     0
 73
     0
 74
     5
  7

 75
    16
147
1.0
 76
     0
 77
     2
 78
   300
148
0.0
149
0.0
100
AcDbLayout
  1
Layout2
 70
     1
 71
     2
 10
0.0
 20
0.0
 11
12.0
 21
9.0
 12
0.0
 22
0.0
 32
0.0
 14
0.0
 24
0.0
 34
0.0
 15
0.0
 25
0.0
 35
0.0
146
0.0
 13
0.0
 23
0.0
 33
0.0
 16
1.0
 26
0.0
 36
0.0
 17
0.0
 27
1.0
 37
0.0
 76
     0
330
74
  0
LAYOUT
  5
73
102
{ACAD_REACTORS
330
62
102
}
330
62
100
AcDbPlotSettings
  1

  2

  4

  6

 40
0.0
 41
0.0
 42
0.0
 43
0.0
 44
0.0
 45
0.0
 46
0.0
 47
0.0
 48
0.0
 49
0.0
140
0.0
141
0.0
142
1.0
143
1.0
 70
  1712
 72
     0
 73
     0
 74
     0
  7

 75
     0
147
1.0
 76
     0
 77
     2
 78
   300
148
0.0
149
0.0
100
AcDbLayout
  1
Model
 70
     1
 71
     0
 10
0.0
 20
0.0
 11
12.0
 21
9.0
 12
0.0
 22
0.0
 32
0.0
 14
0.0
 24
0.0
 34
0.0
 15
0.0
 25
0.0
 35
0.0
146
0.0
 13
0.0
 23
0.0
 33
0.0
 16
1.0
 26
0.0
 36
0.0
 17
0.0
 27
1.0
 37
0.0
 76
     0
330
70
  0
MATERIAL
  5
19
102
{ACAD_XDICTIONARY
360
1A
102
}
102
{ACAD_REACTORS
330
10
102
}
330
10
100
AcDbMaterial
  1
ByBlock
 72
     0
 43
0.0208333333333333
 43
0.0
 43
0.0
 43
0.0
 43
0.0
 43
0.0208333333333333
 43
0.0
 43
0.0
 43
0.0
 43
0.0
 43
1.0
 43
0.0
 43
0.0
 43
0.0
 43
0.0
 43
1.0
 77
     0
 47
0.0208333333333333
 47
0.0
 47
0.0
 47
0.0
 47
0.0
 47
0.0208333333333333
 47
0.0
 47
0.0
 47
0.0
 47
0.0
 47
1.0
 47
0.0
 47
0.0
 47
0.0
 47
0.0
 47
1.0
171
     0
 49
0.0208333333333333
 49
0.0
 49
0.0
 49
0.0
 49
0.0
 49
0.0208333333333333
 49
0.0
 49
0.0
 49
0.0
 49
0.0
 49
1.0
 49
0.0
 49
0.0
 49
0.0
 49
0.0
 49
1.0
175
     0
142
0.0208333333333333
142
0.0
142
0.0
142
0.0
142
0.0
142
0.0208333333333333
142
0.0
142
0.0
142
0.0
142
0.0
142
1.0
142
0.0
142
0.0
142
0.0
142
0.0
142
1.0
179
     0
144
0.0208333333333333
144
0.0
144
0.0
144
0.0
144
0.0
144
0.0208333333333333
144
0.0
144
0.0
144
0.0
144
0.0
144
1.0
144
0.0
144
0.0
144
0.0
144
0.0
144
1.0
147
0.0208333333333333
147
0.0
147
0.0
147
0.0
147
0.0
147
0.0208333333333333
147
0.0
147
0.0
147
0.0
147
0.0
147
1.0
147
0.0
147
0.0
147
0.0
147
0.0
147
1.0
  0
MATERIAL
  5
11
102
{ACAD_XDICTIONARY
360
12
102
}
102
{ACAD_REACTORS
330
10
102
}
330
10
100
AcDbMaterial
  1
ByLayer
 72
     0
 43
0.0208333333333333
 43
0.0
 43
0.0
 43
0.0
 43
0.0
 43
0.0208333333333333
 43
0.0
 43
0.0
 43
0.0
 43
0.0
 43
1.0
 43
0.0
 43
0.0
 43
0.0
 43
0.0
 43
1.0
 77
     0
 47
0.0208333333333333
 47
0.0
 47
0.0
 47
0.0
 47
0.0
 47
0.0208333333333333
 47
0.0
 47
0.0
 47
0.0
 47
0.0
 47
1.0
 47
0.0
 47
0.0
 47
0.0
 47
0.0
 47
1.0
171
     0
 49
0.0208333333333333
 49
0.0
 49
0.0
 49
0.0
 49
0.0
 49
0.0208333333333333
 49
0.0
 49
0.0
 49
0.0
 49
0.0
 49
1.0
 49
0.0
 49
0.0
 49
0.0
 49
0.0
 49
1.0
175
     0
142
0.0208333333333333
142
0.0
142
0.0
142
0.0
142
0.0
142
0.0208333333333333
142
0.0
142
0.0
142
0.0
142
0.0
142
1.0
142
0.0
142
0.0
142
0.0
142
0.0
142
1.0
179
     0
144
0.0208333333333333
144
0.0
144
0.0
144
0.0
144
0.0
144
0.0208333333333333
144
0.0
144
0.0
144
0.0
144
0.0
144
1.0
144
0.0
144
0.0
144
0.0
144
0.0
144
1.0
147
0.0208333333333333
147
0.0
147
0.0
147
0.0
147
0.0
147
0.0208333333333333
147
0.0
147
0.0
147
0.0
147
0.0
147
1.0
147
0.0
147
0.0
147
0.0
147
0.0
147
1.0
  0
MATERIAL
  5
21
102
{ACAD_XDICTIONARY
360
22
102
}
102
{ACAD_REACTORS
330
10
102
}
330
10
100
AcDbMaterial
  1
Global
 72
     0
 43
0.0208333333333333
 43
0.0
 43
0.0
 43
0.0
 43
0.0
 43
0.0208333333333333
 43
0.0
 43
0.0
 43
0.0
 43
0.0
 43
1.0
 43
0.0
 43
0.0
 43
0.0
 43
0.0
 43
1.0
 77
     0
 47
0.0208333333333333
 47
0.0
 47
0.0
 47
0.0
 47
0.0
 47
0.0208333333333333
 47
0.0
 47
0.0
 47
0.0
 47
0.0
 47
1.0
 47
0.0
 47
0.0
 47
0.0
 47
0.0
 47
1.0
171
     0
 49
0.0208333333333333
 49
0.0
 49
0.0
 49
0.0
 49
0.0
 49
0.0208333333333333
 49
0.0
 49
0.0
 49
0.0
 49
0.0
 49
1.0
 49
0.0
 49
0.0
 49
0.0
 49
0.0
 49
1.0
175
     0
142
0.0208333333333333
142
0.0
142
0.0
142
0.0
142
0.0
142
0.0208333333333333
142
0.0
142
0.0
142
0.0
142
0.0
142
1.0
142
0.0
142
0.0
142
0.0
142
0.0
142
1.0
179
     0
144
0.0208333333333333
144
0.0
144
0.0
144
0.0
144
0.0
144
0.0208333333333333
144
0.0
144
0.0
144
0.0
144
0.0
144
1.0
144
0.0
144
0.0
144
0.0
144
0.0
144
1.0
147
0.0208333333333333
147
0.0
147
0.0
147
0.0
147
0.0
147
0.0208333333333333
147
0.0
147
0.0
147
0.0
147
0.0
147
1.0
147
0.0
147
0.0
147
0.0
147
0.0
147
1.0
  0
MLEADERSTYLE
  5
67
102
{ACAD_REACTORS
330
66
102
}
330
66
100
AcDbMLeaderStyle
179
     2
170
     2
171
     1
172
     0
 90
        2
 40
0.0
 41
0.0
173
     1
 91
-1056964608
340
5B
 92
       -2
290
     1
 42
0.09
291
     1
 43
0.36
  3
Standard
 44
0.18
300

342
55
174
     1
178
     6
175
     1
176
     0
 93
-1056964608
 45
0.18
292
     0
297
     0
 46
0.18
 94
-1056964608
 47
1.0
 49
1.0
140
1.0
293
     1
141
0.0
294
     1
177
     0
142
1.0
295
     1
296
     0
143
0.125
271
     0
272
     9
273
     9
298
     1
  0
MLINESTYLE
  5
60
102
{ACAD_REACTORS
330
5F
102
}
330
5F
100
AcDbMlineStyle
  2
STANDARD
 70
     0
  3

 62
   256
 51
90.0
 52
90.0
 71
     2
 49
0.5
 62
   256
  6
BYLAYER
 49
-0.5
 62
   256
  6
BYLAYER
  0
ACDBPLACEHOLDER
  5
F
102
{ACAD_REACTORS
330
E
102
}
330
E
  0
SCALE
  5
43
102
{ACAD_REACTORS
330
42
102
}
330
42
100
AcDbScale
 70
     0
300
1:1
140
1.0
141
1.0
290
     1
  0
SCALE
  5
44
102
{ACAD_REACTORS
330
42
102
}
330
42
100
AcDbScale
 70
     0
300
1/128" = 1'-0"
140
0.0078125
141
12.0
290
     0
  0
SCALE
  5
45
102
{ACAD_REACTORS
330
42
102
}
330
42
100
AcDbScale
 70
     0
300
1/64" = 1'-0"
140
0.015625
141
12.0
290
     0
  0
SCALE
  5
46
102
{ACAD_REACTORS
330
42
102
}
330
42
100
AcDbScale
 70
     0
300
1/32" = 1'-0"
140
0.03125
141
12.0
290
     0
  0
SCALE
  5
47
102
{ACAD_REACTORS
330
42
102
}
330
42
100
AcDbScale
 70
     0
300
1/16" = 1'-0"
140
0.0625
141
12.0
290
     0
  0
SCALE
  5
48
102
{ACAD_REACTORS
330
42
102
}
330
42
100
AcDbScale
 70
     0
300
3/32" = 1'-0"
140
0.09375
141
12.0
290
     0
  0
SCALE
  5
49
102
{ACAD_REACTORS
330
42
102
}
330
42
100
AcDbScale
 70
     0
300
1/8" = 1'-0"
140
0.125
141
12.0
290
     0
  0
SCALE
  5
4A
102
{ACAD_REACTORS
330
42
102
}
330
42
100
AcDbScale
 70
     0
300
3/16" = 1'-0"
140
0.1875
141
12.0
290
     0
  0
SCALE
  5
4B
102
{ACAD_REACTORS
330
42
102
}
330
42
100
AcDbScale
 70
     0
300
1/4" = 1'-0"
140
0.25
141
12.0
290
     0
  0
SCALE
  5
4C
102
{ACAD_REACTORS
330
42
102
}
330
42
100
AcDbScale
 70
     0
300
3/8" = 1'-0"
140
0.375
141
12.0
290
     0
  0
SCALE
  5
4D
102
{ACAD_REACTORS
330
42
102
}
330
42
100
AcDbScale
 70
     0
300
1/2" = 1'-0"
140
0.5
141
12.0
290
     0
  0
SCALE
  5
4E
102
{ACAD_REACTORS
330
42
102
}
330
42
100
AcDbScale
 70
     0
300
3/4" = 1'-0"
140
0.75
141
12.0
290
     0
  0
SCALE
  5
4F
102
{ACAD_REACTORS
330
42
102
}
330
42
100
AcDbScale
 70
     0
300
1" = 1'-0"
140
1.0
141
12.0
290
     0
  0
SCALE
  5
50
102
{ACAD_REACTORS
330
42
102
}
330
42
100
AcDbScale
 70
     0
300
1-1/2" = 1'-0"
140
1.5
141
12.0
290
     0
  0
SCALE
  5
51
102
{ACAD_REACTORS
330
42
102
}
330
42
100
AcDbScale
 70
     0
300
3" = 1'-0"
140
3.0
141
12.0
290
     0
  0
SCALE
  5
52
102
{ACAD_REACTORS
330
42
102
}
330
42
100
AcDbScale
 70
     0
300
6" = 1'-0"
140
6.0
141
12.0
290
     0
  0
SCALE
  5
53
102
{ACAD_REACTORS
330
42
102
}
330
42
100
AcDbScale
 70
     0
300
1'-0" = 1'-0"
140
12.0
141
12.0
290
     0
  0
ACDBSECTIONVIEWSTYLE
  5
69
102
{ACAD_REACTORS
330
68
102
}
330
68
100
AcDbModelDocViewStyle
 70
     0
  3
Imperial24
290
     1
300
Imperial24
 90
        0
100
AcDbSectionViewStyle
 70
     0
 71
     0
 90
       78
 71
     1
340
55
 62
   256
 40
0.24
340
0
340
0
 62
   256
 40
0.24
300
I, O, Q, S, X, Z
 40
0.48
 90
        3
 40
0.18
 90
        1
 71
     2
340
5D
 90
       25
 62
   256
340
5D
 90
       50
 62
   256
 40
0.24
 40
0.0
 40
0.24
 71
     3
340
55
 62
   256
 40
0.24
 90
        1
 40
0.75
 90
        1
300
%<\AcVar ViewType \f "%tc1">% %<\AcVar ViewSectionStartId>%-%<\AcVar ViewSectionEndId>%\PSCALE %<\AcVar ViewScale \f "%sn">%
 71
     4
 62
   256
 62
   257
300
ANSI31
 40
1.0
 90
        0
290
     0
290
     0
 90
        6
 40
0.0
 40
1.570796326794896
 40
0.2617993877991494
 40
1.308996938995747
 40
-0.2617993877991494
 40
1.832595714594046
  0
TABLESTYLE
  5
65
102
{ACAD_XDICTIONARY
360
282
102
}
102
{ACAD_REACTORS
330
64
102
}
330
64
100
AcDbTableStyle
280
     0
  3
Standard
 70
     0
 71
     0
 40
0.06
 41
0.06
280
     0
281
     0
  7
Standard
140
0.18
170
     2
 62
     0
 63
     7
283
     0
 90
      512
 91
        0
  1

274
    -2
284
     1
 64
     0
275
    -2
285
     1
 65
     0
276
    -2
286
     1
 66
     0
277
    -2
287
     1
 67
     0
278
    -2
288
     1
 68
     0
279
    -2
289
     1
 69
     0
  7
Standard
140
0.25
170
     5
 62
     0
 63
     7
283
     0
 90
      512
 91
        0
  1

274
    -2
284
     1
 64
     0
275
    -2
285
     1
 65
     0
276
    -2
286
     1
 66
     0
277
    -2
287
     1
 67
     0
278
    -2
288
     1
 68
     0
279
    -2
289
     1
 69
     0
  7
Standard
140
0.18
170
     5
 62
     0
 63
     7
283
     0
 90
      512
 91
        0
  1

274
    -2
284
     1
 64
     0
275
    -2
285
     1
 65
     0
276
    -2
286
     1
 66
     0
277
    -2
287
     1
 67
     0
278
    -2
288
     1
 68
     0
279
    -2
289
     1
 69
     0
  0
VISUALSTYLE
  5
2F
102
{ACAD_REACTORS
330
29
102
}
330
29
100
AcDbVisualStyle
  2
2dWireframe
 70
     4
177
     3
291
     0
 70
    58
 90
        0
176
     1
 90
        2
176
     1
 90
        0
176
     1
 90
        0
176
     1
 40
0.6
176
     1
 40
30.0
176
     1
 62
     7
420
 16777215
176
     1
 90
        1
176
     1
 90
        4
176
     1
 62
     7
176
     1
 62
   257
176
     1
 90
        1
176
     1
 90
        1
176
     1
 40
1.0
176
     1
 90
        0
176
     1
 62
   257
176
     1
 40
1.0
176
     1
 90
        1
176
     1
 90
        6
176
     1
 90
        2
176
     1
 62
     7
176
     1
 90
        5
176
     1
 90
        0
176
     1
 90
        0
176
     1
290
     0
176
     1
 90
        1
176
     1
 40
0.0
176
     1
 90
        0
176
     1
290
     1
176
     1
290
     1
176
     1
290
     0
176
     1
290
     0
176
     1
290
     0
176
     1
290
     0
176
     1
290
     0
176
     1
290
     0
176
     1
290
     0
176
     1
 90
       50
176
     1
 40
0.0
176
     1
 40
1.0
176
     1
 90
        0
176
     1
 62
    18
420
        0
176
     1
 90
       50
176
     1
 90
        3
176
     1
 62
     5
420
      255
176
     1
290
     0
176
     1
 90
       50
176
     1
 90
       50
176
     1
 90
       50
176
     1
290
     0
176
     1
 90
       50
176
     1
 62
   256
176
     0
 40
1.0
176
     0
 90
        2
176
     1
  1
strokes_ogs.tif
176
     1
290
     0
176
     1
 40
1.0
176
     1
 40
1.0
176
     1
  0
VISUALSTYLE
  5
2E
102
{ACAD_REACTORS
330
29
102
}
330
29
100
AcDbVisualStyle
  2
Basic
 70
     7
177
     3
291
     1
 70
    58
 90
        1
176
     1
 90
        0
176
     1
 90
        1
176
     1
 90
        0
176
     1
 40
0.6
176
     1
 40
30.0
176
     1
 62
     7
420
 16777215
176
     1
 90
        0
176
     1
 90
        4
176
     1
 62
     7
176
     1
 62
   257
176
     1
 90
        1
176
     1
 90
        1
176
     1
 40
1.0
176
     1
 90
        8
176
     1
 62
     7
176
     1
 40
1.0
176
     1
 90
        1
176
     1
 90
        6
176
     1
 90
        2
176
     1
 62
     7
176
     1
 90
        5
176
     1
 90
        0
176
     1
 90
        0
176
     1
290
     0
176
     1
 90
        1
176
     1
 40
0.0
176
     1
 90
        0
176
     1
290
     0
176
     1
290
     1
176
     1
290
     1
176
     1
290
     0
176
     1
290
     0
176
     1
290
     0
176
     1
290
     0
176
     1
290
     0
176
     1
290
     0
176
     1
 90
       50
176
     1
 40
0.0
176
     1
 40
1.0
176
     1
 90
        0
176
     1
 62
    18
420
        0
176
     1
 90
       50
176
     1
 90
        3
176
     1
 62
     5
420
      255
176
     1
290
     0
176
     1
 90
       50
176
     1
 90
       50
176
     1
 90
       50
176
     1
290
     0
176
     1
 90
       50
176
     1
 62
   256
176
     0
 40
1.0
176
     0
 90
        2
176
     1
  1
strokes_ogs.tif
176
     1
290
     0
176
     1
 40
1.0
176
     1
 40
1.0
176
     1
  0
VISUALSTYLE
  5
35
102
{ACAD_REACTORS
330
29
102
}
330
29
100
AcDbVisualStyle
  2
Brighten
 70
    12
177
     3
291
     1
 70
    58
 90
        2
176
     1
 90
        2
176
     1
 90
        0
176
     1
 90
        0
176
     1
 40
0.6
176
     1
 40
30.0
176
     1
 62
     7
420
 16777215
176
     1
 90
        1
176
     1
 90
        4
176
     1
 62
     7
176
     1
 62
   257
176
     1
 90
        1
176
     1
 90
        1
176
     1
 40
1.0
176
     1
 90
        8
176
     1
 62
     7
176
     1
 40
1.0
176
     1
 90
        1
176
     1
 90
        6
176
     1
 90
        2
176
     1
 62
     7
176
     1
 90
        5
176
     1
 90
        0
176
     1
 90
        0
176
     1
290
     0
176
     1
 90
        1
176
     1
 40
50.0
176
     1
 90
        0
176
     1
290
     0
176
     1
290
     1
176
     1
290
     1
176
     1
290
     0
176
     1
290
     0
176
     1
290
     0
176
     1
290
     0
176
     1
290
     0
176
     1
290
     0
176
     1
 90
       50
176
     1
 40
0.0
176
     1
 40
1.0
176
     1
 90
        0
176
     1
 62
    18
420
        0
176
     1
 90
       50
176
     1
 90
        3
176
     1
 62
     5
420
      255
176
     1
290
     0
176
     1
 90
       50
176
     1
 90
       50
176
     1
 90
       50
176
     1
290
     0
176
     1
 90
       50
176
     1
 62
   256
176
     0
 40
1.0
176
     0
 90
        2
176
     1
  1
strokes_ogs.tif
176
     1
290
     0
176
     1
 40
1.0
176
     1
 40
1.0
176
     1
  0
VISUALSTYLE
  5
39
102
{ACAD_REACTORS
330
29
102
}
330
29
100
AcDbVisualStyle
  2
ColorChange
 70
    16
177
     3
291
     1
 70
    58
 90
        2
176
     1
 90
        2
176
     1
 90
        3
176
     1
 90
        0
176
     1
 40
0.6
176
     1
 40
30.0
176
     1
 62
     8
420
  8421504
176
     1
 90
        1
176
     1
 90
        4
176
     1
 62
     7
176
     1
 62
   257
176
     1
 90
        1
176
     1
 90
        1
176
     1
 40
1.0
176
     1
 90
        8
176
     1
 62
     8
420
  8421504
176
     1
 40
1.0
176
     1
 90
        1
176
     1
 90
        6
176
     1
 90
        2
176
     1
 62
     7
176
     1
 90
        5
176
     1
 90
        0
176
     1
 90
        0
176
     1
290
     0
176
     1
 90
        1
176
     1
 40
0.0
176
     1
 90
        0
176
     1
290
     0
176
     1
290
     1
176
     1
290
     1
176
     1
290
     0
176
     1
290
     0
176
     1
290
     0
176
     1
290
     0
176
     1
290
     0
176
     1
290
     0
176
     1
 90
       50
176
     1
 40
0.0
176
     1
 40
1.0
176
     1
 90
        0
176
     1
 62
    18
420
        0
176
     1
 90
       50
176
     1
 90
        3
176
     1
 62
     5
420
      255
176
     1
290
     0
176
     1
 90
       50
176
     1
 90
       50
176
     1
 90
       50
176
     1
290
     0
176
     1
 90
       50
176
     1
 62
   256
176
     0
 40
1.0
176
     0
 90
        2
176
     1
  1
strokes_ogs.tif
176
     1
290
     0
176
     1
 40
1.0
176
     1
 40
1.0
176
     1
  0
VISUALSTYLE
  5
32
102
{ACAD_REACTORS
330
29
102
}
330
29
100
AcDbVisualStyle
  2
Conceptual
 70
     9
177
     3
291
     0
 70
    58
 90
        3
176
     1
 90
        2
176
     1
 90
        0
176
     1
 90
        0
176
     1
 40
0.6
176
     1
 40
30.0
176
     1
 62
     7
420
 16777215
176
     1
 90
        2
176
     1
 90
        2
176
     1
 62
     7
176
     1
 62
   257
176
     1
 90
        1
176
     1
 90
        1
176
     1
 40
179.0
176
     1
 90
        8
176
     1
 62
     7
176
     1
 40
1.0
176
     1
 90
        1
176
     1
 90
        6
176
     1
 90
        2
176
     1
 62
     7
176
     1
 90
        3
176
     1
 90
        0
176
     1
 90
        0
176
     1
290
     0
176
     1
 90
        1
176
     1
 40
0.0
176
     1
 90
        0
176
     1
290
     0
176
     1
290
     1
176
     1
290
     1
176
     1
290
     0
176
     1
290
     0
176
     1
290
     0
176
     1
290
     0
176
     1
290
     0
176
     1
290
     0
176
     1
 90
       50
176
     1
 40
0.0
176
     1
 40
1.0
176
     1
 90
        0
176
     1
 62
    18
420
        0
176
     1
 90
       50
176
     1
 90
        3
176
     1
 62
     5
420
      255
176
     1
290
     0
176
     1
 90
       50
176
     1
 90
       50
176
     1
 90
       50
176
     1
290
     0
176
     1
 90
       50
176
     1
 62
   256
176
     0
 40
1.0
176
     0
 90
        2
176
     1
  1
strokes_ogs.tif
176
     1
290
     0
176
     1
 40
1.0
176
     1
 40
1.0
176
     1
  0
VISUALSTYLE
  5
34
102
{ACAD_REACTORS
330
29
102
}
330
29
100
AcDbVisualStyle
  2
Dim
 70
    11
177
     3
291
     1
 70
    58
 90
        2
176
     1
 90
        2
176
     1
 90
        0
176
     1
 90
        0
176
     1
 40
0.6
176
     1
 40
30.0
176
     1
 62
     7
420
 16777215
176
     1
 90
        1
176
     1
 90
        4
176
     1
 62
     7
176
     1
 62
   257
176
     1
 90
        1
176
     1
 90
        1
176
     1
 40
1.0
176
     1
 90
        8
176
     1
 62
     7
176
     1
 40
1.0
176
     1
 90
        1
176
     1
 90
        6
176
     1
 90
        2
176
     1
 62
     7
176
     1
 90
        5
176
     1
 90
        0
176
     1
 90
        0
176
     1
290
     0
176
     1
 90
        1
176
     1
 40
-50.0
176
     1
 90
        0
176
     1
290
     0
176
     1
290
     1
176
     1
290
     1
176
     1
290
     0
176
     1
290
     0
176
     1
290
     0
176
     1
290
     0
176
     1
290
     0
176
     1
290
     0
176
     1
 90
       50
176
     1
 40
0.0
176
     1
 40
1.0
176
     1
 90
        0
176
     1
 62
    18
420
        0
176
     1
 90
       50
176
     1
 90
        3
176
     1
 62
     5
420
      255
176
     1
290
     0
176
     1
 90
       50
176
     1
 90
       50
176
     1
 90
       50
176
     1
290
     0
176
     1
 90
       50
176
     1
 62
   256
176
     0
 40
1.0
176
     0
 90
        2
176
     1
  1
strokes_ogs.tif
176
     1
290
     0
176
     1
 40
1.0
176
     1
 40
1.0
176
     1
  0
VISUALSTYLE
  5
41
102
{ACAD_REACTORS
330
29
102
}
330
29
100
AcDbVisualStyle
  2
EdgeColorOff
 70
    22
177
     3
291
     1
 70
    58
 90
        2
176
     0
 90
        2
176
     0
 90
        0
176
     0
 90
        0
176
     0
 40
0.6
176
     0
 40
30.0
176
     0
 62
     7
420
 16777215
176
     0
 90
        1
176
     0
 90
        4
176
     0
 62
     7
176
     0
 62
   257
176
     0
 90
        1
176
     0
 90
        1
176
     0
 40
1.0
176
     0
 90
        8
176
     2
 62
     7
176
     0
 40
1.0
176
     0
 90
        1
176
     0
 90
        6
176
     0
 90
        2
176
     0
 62
     7
176
     0
 90
        5
176
     0
 90
        0
176
     0
 90
        0
176
     0
290
     0
176
     0
 90
        1
176
     0
 40
0.0
176
     0
 90
        0
176
     0
290
     0
176
     0
290
     1
176
     0
290
     1
176
     0
290
     0
176
     0
290
     0
176
     0
290
     0
176
     0
290
     0
176
     0
290
     0
176
     0
290
     0
176
     0
 90
       50
176
     0
 40
0.0
176
     0
 40
1.0
176
     0
 90
        0
176
     0
 62
    18
420
        0
176
     0
 90
       50
176
     0
 90
        3
176
     0
 62
     5
420
      255
176
     0
290
     0
176
     0
 90
       50
176
     0
 90
       50
176
     0
 90
       50
176
     0
290
     0
176
     0
 90
       50
176
     0
 62
   256
176
     0
 40
1.0
176
     0
 90
        2
176
     0
  1
strokes_ogs.tif
176
     0
290
     0
176
     0
 40
1.0
176
     0
 40
1.0
176
     0
  0
VISUALSTYLE
  5
38
102
{ACAD_REACTORS
330
29
102
}
330
29
100
AcDbVisualStyle
  2
Facepattern
 70
    15
177
     3
291
     1
 70
    58
 90
        2
176
     1
 90
        2
176
     1
 90
        0
176
     1
 90
        0
176
     1
 40
0.6
176
     1
 40
30.0
176
     1
 62
     7
420
 16777215
176
     1
 90
        1
176
     1
 90
        4
176
     1
 62
     7
176
     1
 62
   257
176
     1
 90
        1
176
     1
 90
        1
176
     1
 40
1.0
176
     1
 90
        8
176
     1
 62
     7
176
     1
 40
1.0
176
     1
 90
        1
176
     1
 90
        6
176
     1
 90
        2
176
     1
 62
     7
176
     1
 90
        5
176
     1
 90
        0
176
     1
 90
        0
176
     1
290
     0
176
     1
 90
        1
176
     1
 40
0.0
176
     1
 90
        0
176
     1
290
     0
176
     1
290
     1
176
     1
290
     1
176
     1
290
     0
176
     1
290
     0
176
     1
290
     0
176
     1
290
     0
176
     1
290
     0
176
     1
290
     0
176
     1
 90
       50
176
     1
 40
0.0
176
     1
 40
1.0
176
     1
 90
        0
176
     1
 62
    18
420
        0
176
     1
 90
       50
176
     1
 90
        3
176
     1
 62
     5
420
      255
176
     1
290
     0
176
     1
 90
       50
176
     1
 90
       50
176
     1
 90
       50
176
     1
290
     0
176
     1
 90
       50
176
     1
 62
   256
176
     0
 40
1.0
176
     0
 90
        2
176
     1
  1
strokes_ogs.tif
176
     1
290
     0
176
     1
 40
1.0
176
     1
 40
1.0
176
     1
  0
VISUALSTYLE
  5
2A
102
{ACAD_REACTORS
330
29
102
}
330
29
100
AcDbVisualStyle
  2
Flat
 70
     0
177
     3
291
     1
 70
    58
 90
        2
176
     1
 90
        1
176
     1
 90
        1
176
     1
 90
        2
176
     1
 40
0.6
176
     1
 40
30.0
176
     1
 62
     7
420
 16777215
176
     1
 90
        0
176
     1
 90
        0
176
     1
 62
     7
176
     1
 62
   257
176
     1
 90
        1
176
     1
 90
        1
176
     1
 40
1.0
176
     1
 90
        8
176
     1
 62
     7
176
     1
 40
1.0
176
     1
 90
        1
176
     1
 90
        6
176
     1
 90
        2
176
     1
 62
     7
176
     1
 90
        5
176
     1
 90
        0
176
     1
 90
        0
176
     1
290
     0
176
     1
 90
       13
176
     1
 40
0.0
176
     1
 90
        0
176
     1
290
     0
176
     1
290
     1
176
     1
290
     1
176
     1
290
     0
176
     1
290
     0
176
     1
290
     0
176
     1
290
     0
176
     1
290
     0
176
     1
290
     0
176
     1
 90
       50
176
     1
 40
0.0
176
     1
 40
1.0
176
     1
 90
        0
176
     1
 62
    18
420
        0
176
     1
 90
       50
176
     1
 90
        3
176
     1
 62
     5
420
      255
176
     1
290
     0
176
     1
 90
       50
176
     1
 90
       50
176
     1
 90
       50
176
     1
290
     0
176
     1
 90
       50
176
     1
 62
   256
176
     0
 40
1.0
176
     0
 90
        2
176
     1
  1
strokes_ogs.tif
176
     1
290
     0
176
     1
 40
1.0
176
     1
 40
1.0
176
     1
  0
VISUALSTYLE
  5
2B
102
{ACAD_REACTORS
330
29
102
}
330
29
100
AcDbVisualStyle
  2
FlatWithEdges
 70
     1
177
     3
291
     1
 70
    58
 90
        2
176
     1
 90
        1
176
     1
 90
        1
176
     1
 90
        2
176
     1
 40
0.6
176
     1
 40
30.0
176
     1
 62
     7
420
 16777215
176
     1
 90
        1
176
     1
 90
        0
176
     1
 62
     7
176
     1
 62
   257
176
     1
 90
        1
176
     1
 90
        1
176
     1
 40
1.0
176
     1
 90
        0
176
     1
 62
   257
176
     1
 40
1.0
176
     1
 90
        1
176
     1
 90
        6
176
     1
 90
        2
176
     1
 62
     7
176
     1
 90
        5
176
     1
 90
        0
176
     1
 90
        0
176
     1
290
     0
176
     1
 90
       13
176
     1
 40
0.0
176
     1
 90
        0
176
     1
290
     0
176
     1
290
     1
176
     1
290
     1
176
     1
290
     0
176
     1
290
     0
176
     1
290
     0
176
     1
290
     0
176
     1
290
     0
176
     1
290
     0
176
     1
 90
       50
176
     1
 40
0.0
176
     1
 40
1.0
176
     1
 90
        0
176
     1
 62
    18
420
        0
176
     1
 90
       50
176
     1
 90
        3
176
     1
 62
     5
420
      255
176
     1
290
     0
176
     1
 90
       50
176
     1
 90
       50
176
     1
 90
       50
176
     1
290
     0
176
     1
 90
       50
176
     1
 62
   256
176
     0
 40
1.0
176
     0
 90
        2
176
     1
  1
strokes_ogs.tif
176
     1
290
     0
176
     1
 40
1.0
176
     1
 40
1.0
176
     1
  0
VISUALSTYLE
  5
2C
102
{ACAD_REACTORS
330
29
102
}
330
29
100
AcDbVisualStyle
  2
Gouraud
 70
     2
177
     3
291
     1
 70
    58
 90
        2
176
     1
 90
        2
176
     1
 90
        1
176
     1
 90
        2
176
     1
 40
0.6
176
     1
 40
30.0
176
     1
 62
     7
420
 16777215
176
     1
 90
        0
176
     1
 90
        0
176
     1
 62
     7
176
     1
 62
   257
176
     1
 90
        1
176
     1
 90
        1
176
     1
 40
1.0
176
     1
 90
        0
176
     1
 62
     7
176
     1
 40
1.0
176
     1
 90
        1
176
     1
 90
        6
176
     1
 90
        2
176
     1
 62
     7
176
     1
 90
        5
176
     1
 90
        0
176
     1
 90
        0
176
     1
290
     0
176
     1
 90
       13
176
     1
 40
0.0
176
     1
 90
        0
176
     1
290
     0
176
     1
290
     1
176
     1
290
     1
176
     1
290
     0
176
     1
290
     0
176
     1
290
     0
176
     1
290
     0
176
     1
290
     0
176
     1
290
     0
176
     1
 90
       50
176
     1
 40
0.0
176
     1
 40
1.0
176
     1
 90
        0
176
     1
 62
    18
420
        0
176
     1
 90
       50
176
     1
 90
        3
176
     1
 62
     5
420
      255
176
     1
290
     0
176
     1
 90
       50
176
     1
 90
       50
176
     1
 90
       50
176
     1
290
     0
176
     1
 90
       50
176
     1
 62
   256
176
     0
 40
1.0
176
     0
 90
        2
176
     1
  1
strokes_ogs.tif
176
     1
290
     0
176
     1
 40
1.0
176
     1
 40
1.0
176
     1
  0
VISUALSTYLE
  5
2D
102
{ACAD_REACTORS
330
29
102
}
330
29
100
AcDbVisualStyle
  2
GouraudWithEdges
 70
     3
177
     3
291
     1
 70
    58
 90
        2
176
     1
 90
        2
176
     1
 90
        1
176
     1
 90
        2
176
     1
 40
0.6
176
     1
 40
30.0
176
     1
 62
     7
420
 16777215
176
     1
 90
        1
176
     1
 90
        0
176
     1
 62
     7
176
     1
 62
   257
176
     1
 90
        1
176
     1
 90
        1
176
     1
 40
1.0
176
     1
 90
        0
176
     1
 62
   257
176
     1
 40
1.0
176
     1
 90
        1
176
     1
 90
        6
176
     1
 90
        2
176
     1
 62
     7
176
     1
 90
        5
176
     1
 90
        0
176
     1
 90
        0
176
     1
290
     0
176
     1
 90
       13
176
     1
 40
0.0
176
     1
 90
        0
176
     1
290
     0
176
     1
290
     1
176
     1
290
     1
176
     1
290
     0
176
     1
290
     0
176
     1
290
     0
176
     1
290
     0
176
     1
290
     0
176
     1
290
     0
176
     1
 90
       50
176
     1
 40
0.0
176
     1
 40
1.0
176
     1
 90
        0
176
     1
 62
    18
420
        0
176
     1
 90
       50
176
     1
 90
        3
176
     1
 62
     5
420
      255
176
     1
290
     0
176
     1
 90
       50
176
     1
 90
       50
176
     1
 90
       50
176
     1
290
     0
176
     1
 90
       50
176
     1
 62
   256
176
     0
 40
1.0
176
     0
 90
        2
176
     1
  1
strokes_ogs.tif
176
     1
290
     0
176
     1
 40
1.0
176
     1
 40
1.0
176
     1
  0
VISUALSTYLE
  5
31
102
{ACAD_REACTORS
330
29
102
}
330
29
100
AcDbVisualStyle
  2
Hidden
 70
     6
177
     3
291
     0
 70
    58
 90
        1
176
     1
 90
        2
176
     1
 90
        2
176
     1
 90
        0
176
     1
 40
0.6
176
     1
 40
30.0
176
     1
 62
     7
420
 16777215
176
     1
 90
        2
176
     1
 90
        2
176
     1
 62
     7
176
     1
 62
   257
176
     1
 90
        2
176
     1
 90
        1
176
     1
 40
40.0
176
     1
 90
        0
176
     1
 62
   257
176
     1
 40
1.0
176
     1
 90
        1
176
     1
 90
        6
176
     1
 90
        2
176
     1
 62
     7
176
     1
 90
        3
176
     1
 90
        0
176
     1
 90
        0
176
     1
290
     0
176
     1
 90
        1
176
     1
 40
0.0
176
     1
 90
        0
176
     1
290
     0
176
     1
290
     1
176
     1
290
     1
176
     1
290
     0
176
     1
290
     0
176
     1
290
     0
176
     1
290
     0
176
     1
290
     0
176
     1
290
     0
176
     1
 90
       50
176
     1
 40
0.0
176
     1
 40
1.0
176
     1
 90
        0
176
     1
 62
    18
420
        0
176
     1
 90
       50
176
     1
 90
        3
176
     1
 62
     5
420
      255
176
     1
290
     0
176
     1
 90
       50
176
     1
 90
       50
176
     1
 90
       50
176
     1
290
     0
176
     1
 90
       50
176
     1
 62
   256
176
     0
 40
1.0
176
     0
 90
        2
176
     1
  1
strokes_ogs.tif
176
     1
290
     0
176
     1
 40
1.0
176
     1
 40
1.0
176
     1
  0
VISUALSTYLE
  5
3F
102
{ACAD_REACTORS
330
29
102
}
330
29
100
AcDbVisualStyle
  2
JitterOff
 70
    20
177
     3
291
     1
 70
    58
 90
        2
176
     0
 90
        2
176
     0
 90
        0
176
     0
 90
        0
176
     0
 40
0.6
176
     0
 40
30.0
176
     0
 62
     7
420
 16777215
176
     0
 90
        1
176
     0
 90
        4
176
     0
 62
     7
176
     0
 62
   257
176
     0
 90
        1
176
     0
 90
        1
176
     0
 40
1.0
176
     0
 90
       10
176
     2
 62
     7
176
     0
 40
1.0
176
     0
 90
        1
176
     0
 90
        6
176
     0
 90
        2
176
     0
 62
     7
176
     0
 90
        5
176
     0
 90
        0
176
     0
 90
        0
176
     0
290
     0
176
     0
 90
        1
176
     0
 40
0.0
176
     0
 90
        0
176
     0
290
     0
176
     0
290
     1
176
     0
290
     1
176
     0
290
     0
176
     0
290
     0
176
     0
290
     0
176
     0
290
     0
176
     0
290
     0
176
     0
290
     0
176
     0
 90
       50
176
     0
 40
0.0
176
     0
 40
1.0
176
     0
 90
        0
176
     0
 62
    18
420
        0
176
     0
 90
       50
176
     0
 90
        3
176
     0
 62
     5
420
      255
176
     0
290
     0
176
     0
 90
       50
176
     0
 90
       50
176
     0
 90
       50
176
     0
290
     0
176
     0
 90
       50
176
     0
 62
   256
176
     0
 40
1.0
176
     0
 90
        2
176
     0
  1
strokes_ogs.tif
176
     0
290
     0
176
     0
 40
1.0
176
     0
 40
1.0
176
     0
  0
VISUALSTYLE
  5
37
102
{ACAD_REACTORS
330
29
102
}
330
29
100
AcDbVisualStyle
  2
Linepattern
 70
    14
177
     3
291
     1
 70
    58
 90
        2
176
     1
 90
        2
176
     1
 90
        0
176
     1
 90
        0
176
     1
 40
0.6
176
     1
 40
30.0
176
     1
 62
     7
420
 16777215
176
     1
 90
        1
176
     1
 90
        4
176
     1
 62
     7
176
     1
 62
   257
176
     1
 90
        7
176
     1
 90
        7
176
     1
 40
1.0
176
     1
 90
        8
176
     1
 62
     7
176
     1
 40
1.0
176
     1
 90
        1
176
     1
 90
        6
176
     1
 90
        2
176
     1
 62
     7
176
     1
 90
        5
176
     1
 90
        0
176
     1
 90
        0
176
     1
290
     0
176
     1
 90
        1
176
     1
 40
0.0
176
     1
 90
        0
176
     1
290
     0
176
     1
290
     1
176
     1
290
     1
176
     1
290
     0
176
     1
290
     0
176
     1
290
     0
176
     1
290
     0
176
     1
290
     0
176
     1
290
     0
176
     1
 90
       50
176
     1
 40
0.0
176
     1
 40
1.0
176
     1
 90
        0
176
     1
 62
    18
420
        0
176
     1
 90
       50
176
     1
 90
        3
176
     1
 62
     5
420
      255
176
     1
290
     0
176
     1
 90
       50
176
     1
 90
       50
176
     1
 90
       50
176
     1
290
     0
176
     1
 90
       50
176
     1
 62
   256
176
     0
 40
1.0
176
     0
 90
        2
176
     1
  1
strokes_ogs.tif
176
     1
290
     0
176
     1
 40
1.0
176
     1
 40
1.0
176
     1
  0
VISUALSTYLE
  5
40
102
{ACAD_REACTORS
330
29
102
}
330
29
100
AcDbVisualStyle
  2
OverhangOff
 70
    21
177
     3
291
     1
 70
    58
 90
        2
176
     0
 90
        2
176
     0
 90
        0
176
     0
 90
        0
176
     0
 40
0.6
176
     0
 40
30.0
176
     0
 62
     7
420
 16777215
176
     0
 90
        1
176
     0
 90
        4
176
     0
 62
     7
176
     0
 62
   257
176
     0
 90
        1
176
     0
 90
        1
176
     0
 40
1.0
176
     0
 90
        9
176
     2
 62
     7
176
     0
 40
1.0
176
     0
 90
        1
176
     0
 90
        6
176
     0
 90
        2
176
     0
 62
     7
176
     0
 90
        5
176
     0
 90
        0
176
     0
 90
        0
176
     0
290
     0
176
     0
 90
        1
176
     0
 40
0.0
176
     0
 90
        0
176
     0
290
     0
176
     0
290
     1
176
     0
290
     1
176
     0
290
     0
176
     0
290
     0
176
     0
290
     0
176
     0
290
     0
176
     0
290
     0
176
     0
290
     0
176
     0
 90
       50
176
     0
 40
0.0
176
     0
 40
1.0
176
     0
 90
        0
176
     0
 62
    18
420
        0
176
     0
 90
       50
176
     0
 90
        3
176
     0
 62
     5
420
      255
176
     0
290
     0
176
     0
 90
       50
176
     0
 90
       50
176
     0
 90
       50
176
     0
290
     0
176
     0
 90
       50
176
     0
 62
   256
176
     0
 40
1.0
176
     0
 90
        2
176
     0
  1
strokes_ogs.tif
176
     0
290
     0
176
     0
 40
1.0
176
     0
 40
1.0
176
     0
  0
VISUALSTYLE
  5
33
102
{ACAD_REACTORS
330
29
102
}
330
29
100
AcDbVisualStyle
  2
Realistic
 70
     8
177
     3
291
     0
 70
    58
 90
        2
176
     1
 90
        3
176
     1
 90
        0
176
     1
 90
        2
176
     1
 40
0.6
176
     1
 40
30.0
176
     1
 62
     7
420
 16777215
176
     1
 90
        0
176
     1
 90
        0
176
     1
 62
     7
176
     1
 62
   257
176
     1
 90
        1
176
     1
 90
        1
176
     1
 40
1.0
176
     1
 90
        8
176
     1
 62
   257
176
     1
 40
1.0
176
     1
 90
        1
176
     1
 90
        6
176
     1
 90
        2
176
     1
 62
     7
176
     1
 90
        3
176
     1
 90
        0
176
     1
 90
        0
176
     1
290
     0
176
     1
 90
       13
176
     1
 40
0.0
176
     1
 90
        0
176
     1
290
     0
176
     1
290
     1
176
     1
290
     1
176
     1
290
     0
176
     1
290
     0
176
     1
290
     0
176
     1
290
     0
176
     1
290
     0
176
     1
290
     0
176
     1
 90
       50
176
     1
 40
0.0
176
     1
 40
1.0
176
     1
 90
        0
176
     1
 62
    18
420
        0
176
     1
 90
       50
176
     1
 90
        3
176
     1
 62
     5
420
      255
176
     1
290
     0
176
     1
 90
       50
176
     1
 90
       50
176
     1
 90
       50
176
     1
290
     0
176
     1
 90
       50
176
     1
 62
   256
176
     0
 40
1.0
176
     0
 90
        2
176
     1
  1
strokes_ogs.tif
176
     1
290
     0
176
     1
 40
1.0
176
     1
 40
1.0
176
     1
  0
VISUALSTYLE
  5
3E
102
{ACAD_REACTORS
330
29
102
}
330
29
100
AcDbVisualStyle
  2
Shaded
 70
    27
177
     3
291
     0
 70
    58
 90
        2
176
     1
 90
        2
176
     1
 90
        1
176
     1
 90
        2
176
     1
 40
0.6
176
     1
 40
30.0
176
     1
 62
     7
420
 16777215
176
     1
 90
        0
176
     1
 90
        4
176
     1
 62
     7
176
     1
 62
   257
176
     1
 90
        1
176
     1
 90
        1
176
     1
 40
1.0
176
     1
 90
        8
176
     1
 62
   257
176
     1
 40
1.0
176
     1
 90
        1
176
     1
 90
        6
176
     1
 90
        2
176
     1
 62
     8
420
  7895160
176
     1
 90
        3
176
     1
 90
        0
176
     1
 90
        0
176
     1
290
     0
176
     1
 90
        5
176
     1
 40
0.0
176
     1
 90
        0
176
     1
290
     0
176
     1
290
     1
176
     1
290
     1
176
     1
290
     0
176
     1
290
     0
176
     1
290
     0
176
     1
290
     0
176
     1
290
     0
176
     1
290
     0
176
     1
 90
       50
176
     1
 40
0.0
176
     1
 40
1.0
176
     1
 90
        0
176
     1
 62
    18
420
        0
176
     1
 90
       50
176
     1
 90
        3
176
     1
 62
     5
420
      255
176
     1
290
     0
176
     1
 90
       50
176
     1
 90
       50
176
     1
 90
       50
176
     1
290
     0
176
     1
 90
       50
176
     1
 62
   256
176
     0
 40
1.0
176
     0
 90
        2
176
     1
  1
strokes_ogs.tif
176
     1
290
     0
176
     1
 40
1.0
176
     1
 40
1.0
176
     1
  0
VISUALSTYLE
  5
3D
102
{ACAD_REACTORS
330
29
102
}
330
29
100
AcDbVisualStyle
  2
Shaded with edges
 70
    26
177
     3
291
     0
 70
    58
 90
        2
176
     1
 90
        2
176
     1
 90
        1
176
     1
 90
        2
176
     1
 40
0.6
176
     1
 40
30.0
176
     1
 62
     7
420
 16777215
176
     1
 90
        1
176
     1
 90
        2
176
     1
 62
     7
176
     1
 62
   257
176
     1
 90
        2
176
     1
 90
        1
176
     1
 40
1.0
176
     1
 90
        8
176
     1
 62
   257
176
     1
 40
1.0
176
     1
 90
        1
176
     1
 90
        6
176
     1
 90
        2
176
     1
 62
     7
176
     1
 90
        3
176
     1
 90
        0
176
     1
 90
        0
176
     1
290
     0
176
     1
 90
        5
176
     1
 40
0.0
176
     1
 90
        0
176
     1
290
     0
176
     1
290
     1
176
     1
290
     1
176
     1
290
     0
176
     1
290
     0
176
     1
290
     0
176
     1
290
     0
176
     1
290
     0
176
     1
290
     0
176
     1
 90
       50
176
     1
 40
0.0
176
     1
 40
1.0
176
     1
 90
        0
176
     1
 62
    18
420
        0
176
     1
 90
       50
176
     1
 90
        3
176
     1
 62
     5
420
      255
176
     1
290
     0
176
     1
 90
       50
176
     1
 90
       50
176
     1
 90
       50
176
     1
290
     0
176
     1
 90
       50
176
     1
 62
   256
176
     0
 40
1.0
176
     0
 90
        2
176
     1
  1
strokes_ogs.tif
176
     1
290
     0
176
     1
 40
1.0
176
     1
 40
1.0
176
     1
  0
VISUALSTYLE
  5
3A
102
{ACAD_REACTORS
330
29
102
}
330
29
100
AcDbVisualStyle
  2
Shades of Gray
 70
    23
177
     3
291
     0
 70
    58
 90
        2
176
     1
 90
        2
176
     1
 90
        3
176
     1
 90
        0
176
     1
 40
0.6
176
     1
 40
30.0
176
     1
 62
     7
420
 16777215
176
     1
 90
        2
176
     1
 90
        2
176
     1
 62
     7
176
     1
 62
     7
176
     1
 90
        1
176
     1
 90
        1
176
     1
 40
40.0
176
     1
 90
        8
176
     1
 62
     7
176
     1
 40
1.0
176
     1
 90
        1
176
     1
 90
        6
176
     1
 90
        2
176
     1
 62
     7
176
     1
 90
        3
176
     1
 90
        0
176
     1
 90
        0
176
     1
290
     0
176
     1
 90
        1
176
     1
 40
0.0
176
     1
 90
        0
176
     1
290
     0
176
     1
290
     1
176
     1
290
     1
176
     1
290
     0
176
     1
290
     0
176
     1
290
     0
176
     1
290
     0
176
     1
290
     0
176
     1
290
     0
176
     1
 90
       50
176
     1
 40
0.0
176
     1
 40
1.0
176
     1
 90
        0
176
     1
 62
    18
420
        0
176
     1
 90
       50
176
     1
 90
        3
176
     1
 62
     5
420
      255
176
     1
290
     0
176
     1
 90
       50
176
     1
 90
       50
176
     1
 90
       50
176
     1
290
     0
176
     1
 90
       50
176
     1
 62
   256
176
     0
 40
1.0
176
     0
 90
        2
176
     1
  1
strokes_ogs.tif
176
     1
290
     0
176
     1
 40
1.0
176
     1
 40
1.0
176
     1
  0
VISUALSTYLE
  5
3B
102
{ACAD_REACTORS
330
29
102
}
330
29
100
AcDbVisualStyle
  2
Sketchy
 70
    24
177
     3
291
     0
 70
    58
 90
        1
176
     1
 90
        2
176
     1
 90
        2
176
     1
 90
        0
176
     1
 40
0.6
176
     1
 40
30.0
176
     1
 62
     7
420
 16777215
176
     1
 90
        2
176
     1
 90
        2
176
     1
 62
     7
176
     1
 62
     7
176
     1
 90
        1
176
     1
 90
        1
176
     1
 40
40.0
176
     1
 90
       11
176
     1
 62
     7
176
     1
 40
1.0
176
     1
 90
        1
176
     1
 90
        6
176
     1
 90
        2
176
     1
 62
     7
176
     1
 90
        6
176
     1
 90
        0
176
     1
 90
        0
176
     1
290
     0
176
     1
 90
        1
176
     1
 40
0.0
176
     1
 90
        0
176
     1
290
     0
176
     1
290
     1
176
     1
290
     1
176
     1
290
     0
176
     1
290
     0
176
     1
290
     0
176
     1
290
     0
176
     1
290
     0
176
     1
290
     0
176
     1
 90
       50
176
     1
 40
0.0
176
     1
 40
1.0
176
     1
 90
        0
176
     1
 62
    18
420
        0
176
     1
 90
       50
176
     1
 90
        3
176
     1
 62
     5
420
      255
176
     1
290
     0
176
     1
 90
       50
176
     1
 90
       50
176
     1
 90
       50
176
     1
290
     0
176
     1
 90
       50
176
     1
 62
   256
176
     0
 40
1.0
176
     0
 90
        2
176
     1
  1
strokes_ogs.tif
176
     1
290
     0
176
     1
 40
1.0
176
     1
 40
1.0
176
     1
  0
VISUALSTYLE
  5
36
102
{ACAD_REACTORS
330
29
102
}
330
29
100
AcDbVisualStyle
  2
Thicken
 70
    13
177
     3
291
     1
 70
    58
 90
        2
176
     1
 90
        2
176
     1
 90
        0
176
     1
 90
        0
176
     1
 40
0.6
176
     1
 40
30.0
176
     1
 62
     7
420
 16777215
176
     1
 90
        1
176
     1
 90
        4
176
     1
 62
     7
176
     1
 62
   257
176
     1
 90
        1
176
     1
 90
        1
176
     1
 40
1.0
176
     1
 90
       12
176
     1
 62
     7
176
     1
 40
1.0
176
     1
 90
        1
176
     1
 90
        6
176
     1
 90
        2
176
     1
 62
     7
176
     1
 90
        5
176
     1
 90
        0
176
     1
 90
        0
176
     1
290
     0
176
     1
 90
        1
176
     1
 40
0.0
176
     1
 90
        0
176
     1
290
     0
176
     1
290
     1
176
     1
290
     1
176
     1
290
     0
176
     1
290
     0
176
     1
290
     0
176
     1
290
     0
176
     1
290
     0
176
     1
290
     0
176
     1
 90
       50
176
     1
 40
0.0
176
     1
 40
1.0
176
     1
 90
        0
176
     1
 62
    18
420
        0
176
     1
 90
       50
176
     1
 90
        3
176
     1
 62
     5
420
      255
176
     1
290
     0
176
     1
 90
       50
176
     1
 90
       50
176
     1
 90
       50
176
     1
290
     0
176
     1
 90
       50
176
     1
 62
   256
176
     0
 40
1.0
176
     0
 90
        2
176
     1
  1
strokes_ogs.tif
176
     1
290
     0
176
     1
 40
1.0
176
     1
 40
1.0
176
     1
  0
VISUALSTYLE
  5
30
102
{ACAD_REACTORS
330
29
102
}
330
29
100
AcDbVisualStyle
  2
Wireframe
 70
     5
177
     3
291
     0
 70
    58
 90
        0
176
     1
 90
        2
176
     1
 90
        0
176
     1
 90
        0
176
     1
 40
0.6
176
     1
 40
30.0
176
     1
 62
     7
420
 16777215
176
     1
 90
        1
176
     1
 90
        4
176
     1
 62
     7
176
     1
 62
   257
176
     1
 90
        1
176
     1
 90
        1
176
     1
 40
1.0
176
     1
 90
        0
176
     1
 62
   257
176
     1
 40
1.0
176
     1
 90
        1
176
     1
 90
        6
176
     1
 90
        2
176
     1
 62
     7
176
     1
 90
        3
176
     1
 90
        0
176
     1
 90
        0
176
     1
290
     0
176
     1
 90
        1
176
     1
 40
0.0
176
     1
 90
        0
176
     1
290
     0
176
     1
290
     1
176
     1
290
     1
176
     1
290
     0
176
     1
290
     0
176
     1
290
     0
176
     1
290
     0
176
     1
290
     0
176
     1
290
     0
176
     1
 90
       50
176
     1
 40
0.0
176
     1
 40
1.0
176
     1
 90
        0
176
     1
 62
    18
420
        0
176
     1
 90
       50
176
     1
 90
        3
176
     1
 62
     5
420
      255
176
     1
290
     0
176
     1
 90
       50
176
     1
 90
       50
176
     1
 90
       50
176
     1
290
     0
176
     1
 90
       50
176
     1
 62
   256
176
     0
 40
1.0
176
     0
 90
        2
176
     1
  1
strokes_ogs.tif
176
     1
290
     0
176
     1
 40
1.0
176
     1
 40
1.0
176
     1
  0
VISUALSTYLE
  5
3C
102
{ACAD_REACTORS
330
29
102
}
330
29
100
AcDbVisualStyle
  2
X-Ray
 70
    25
177
     3
291
     0
 70
    58
 90
        2
176
     1
 90
        2
176
     1
 90
        1
176
     1
 90
        1
176
     1
 40
0.5
176
     1
 40
30.0
176
     1
 62
     7
420
 16777215
176
     1
 90
        1
176
     1
 90
        0
176
     1
 62
     7
176
     1
 62
   257
176
     1
 90
        1
176
     1
 90
        1
176
     1
 40
1.0
176
     1
 90
        8
176
     1
 62
     7
176
     1
 40
1.0
176
     1
 90
        1
176
     1
 90
        6
176
     1
 90
        2
176
     1
 62
     7
176
     1
 90
        3
176
     1
 90
        0
176
     1
 90
        0
176
     1
290
     0
176
     1
 90
       13
176
     1
 40
0.0
176
     1
 90
        0
176
     1
290
     0
176
     1
290
     1
176
     1
290
     1
176
     1
290
     0
176
     1
290
     0
176
     1
290
     0
176
     1
290
     0
176
     1
290
     0
176
     1
290
     0
176
     1
 90
       50
176
     1
 40
0.0
176
     1
 40
1.0
176
     1
 90
        0
176
     1
 62
    18
420
        0
176
     1
 90
       50
176
     1
 90
        3
176
     1
 62
     5
420
      255
176
     1
290
     0
176
     1
 90
       50
176
     1
 90
       50
176
     1
 90
       50
176
     1
290
     0
176
     1
 90
       50
176
     1
 62
   256
176
     0
 40
1.0
176
     0
 90
        2
176
     1
  1
strokes_ogs.tif
176
     1
290
     0
176
     1
 40
1.0
176
     1
 40
1.0
176
     1
  0
DICTIONARYVAR
  5
281
102
{ACAD_REACTORS
330
27C
102
}
330
27C
100
DictionaryVariables
280
     0
  1
1:1
  0
DICTIONARYVAR
  5
27E
102
{ACAD_REACTORS
330
27C
102
}
330
27C
100
DictionaryVariables
280
     0
  1
STANDARD
  0
DICTIONARYVAR
  5
27D
102
{ACAD_REACTORS
330
27C
102
}
330
27C
100
DictionaryVariables
280
     0
  1
STANDARD
  0
DICTIONARYVAR
  5
27F
102
{ACAD_REACTORS
330
27C
102
}
330
27C
100
DictionaryVariables
280
     0
  1
Imperial24
  0
DICTIONARYVAR
  5
280
102
{ACAD_REACTORS
330
27C
102
}
330
27C
100
DictionaryVariables
280
     0
  1
Imperial24
  0
DICTIONARY
  5
1A
330
19
100
AcDbDictionary
280
     1
281
     1
  3
BUMPTILE
360
1C
  3
DIFFUSETILE
360
1B
  3
OPACITYTILE
360
1F
  3
REFLECTIONTILE
360
1E
  3
REFRACTIONTILE
360
20
  3
SPECULARTILE
360
1D
  0
DICTIONARY
  5
12
330
11
100
AcDbDictionary
280
     1
281
     1
  3
BUMPTILE
360
14
  3
DIFFUSETILE
360
13
  3
OPACITYTILE
360
17
  3
REFLECTIONTILE
360
16
  3
REFRACTIONTILE
360
18
  3
SPECULARTILE
360
15
  0
DICTIONARY
  5
22
330
21
100
AcDbDictionary
280
     1
281
     1
  3
BUMPTILE
360
24
  3
DIFFUSETILE
360
23
  3
OPACITYTILE
360
27
  3
REFLECTIONTILE
360
26
  3
REFRACTIONTILE
360
28
  3
SPECULARTILE
360
25
  0
DICTIONARY
  5
282
330
65
100
AcDbDictionary
280
     1
281
     1
  3
ACAD_ROUNDTRIP_2008_TABLESTYLE_CELLSTYLEMAP
360
283
  0
XRECORD
  5
1C
102
{ACAD_REACTORS
330
1A
102
}
330
1A
100
AcDbXrecord
280
     1
270
     1
271
     1
  0
XRECORD
  5
1B
102
{ACAD_REACTORS
330
1A
102
}
330
1A
100
AcDbXrecord
280
     1
270
     1
271
     1
  0
XRECORD
  5
1F
102
{ACAD_REACTORS
330
1A
102
}
330
1A
100
AcDbXrecord
280
     1
270
     1
271
     1
  0
XRECORD
  5
1E
102
{ACAD_REACTORS
330
1A
102
}
330
1A
100
AcDbXrecord
280
     1
270
     1
271
     1
  0
XRECORD
  5
20
102
{ACAD_REACTORS
330
1A
102
}
330
1A
100
AcDbXrecord
280
     1
270
     1
271
     1
  0
XRECORD
  5
1D
102
{ACAD_REACTORS
330
1A
102
}
330
1A
100
AcDbXrecord
280
     1
270
     1
271
     1
  0
XRECORD
  5
14
102
{ACAD_REACTORS
330
12
102
}
330
12
100
AcDbXrecord
280
     1
270
     1
271
     1
  0
XRECORD
  5
13
102
{ACAD_REACTORS
330
12
102
}
330
12
100
AcDbXrecord
280
     1
270
     1
271
     1
  0
XRECORD
  5
17
102
{ACAD_REACTORS
330
12
102
}
330
12
100
AcDbXrecord
280
     1
270
     1
271
     1
  0
XRECORD
  5
16
102
{ACAD_REACTORS
330
12
102
}
330
12
100
AcDbXrecord
280
     1
270
     1
271
     1
  0
XRECORD
  5
18
102
{ACAD_REACTORS
330
12
102
}
330
12
100
AcDbXrecord
280
     1
270
     1
271
     1
  0
XRECORD
  5
15
102
{ACAD_REACTORS
330
12
102
}
330
12
100
AcDbXrecord
280
     1
270
     1
271
     1
  0
XRECORD
  5
24
102
{ACAD_REACTORS
330
22
102
}
330
22
100
AcDbXrecord
280
     1
270
     1
271
     1
  0
XRECORD
  5
23
102
{ACAD_REACTORS
330
22
102
}
330
22
100
AcDbXrecord
280
     1
270
     1
271
     1
  0
XRECORD
  5
27
102
{ACAD_REACTORS
330
22
102
}
330
22
100
AcDbXrecord
280
     1
270
     1
271
     1
  0
XRECORD
  5
26
102
{ACAD_REACTORS
330
22
102
}
330
22
100
AcDbXrecord
280
     1
270
     1
271
     1
  0
XRECORD
  5
28
102
{ACAD_REACTORS
330
22
102
}
330
22
100
AcDbXrecord
280
     1
270
     1
271
     1
  0
XRECORD
  5
25
102
{ACAD_REACTORS
330
22
102
}
330
22
100
AcDbXrecord
280
     1
270
     1
271
     1
  0
CELLSTYLEMAP
  5
283
102
{ACAD_REACTORS
330
282
102
}
330
282
100
AcDbCellStyleMap
 90
        3
300
CELLSTYLE
  1
TABLEFORMAT_BEGIN
 90
        5
170
     1
 91
        0
 92
    32768
 62
   257
 93
        1
300
CONTENTFORMAT
  1
CONTENTFORMAT_BEGIN
 90
        0
 91
        0
 92
      512
 93
        0
300

 40
0.0
140
1.0
 94
        5
 62
     0
340
55
144
0.25
309
CONTENTFORMAT_END
171
     0
 94
        0
309
TABLEFORMAT_END
  1
CELLSTYLE_BEGIN
 90
        1
 91
        1
300
_TITLE
309
CELLSTYLE_END
300
CELLSTYLE
  1
TABLEFORMAT_BEGIN
 90
        5
170
     1
 91
        0
 92
        0
 62
   257
 93
        1
300
CONTENTFORMAT
  1
CONTENTFORMAT_BEGIN
 90
        0
 91
        0
 92
      512
 93
        0
300

 40
0.0
140
1.0
 94
        5
 62
     0
340
55
144
0.18
309
CONTENTFORMAT_END
171
     0
 94
        0
309
TABLEFORMAT_END
  1
CELLSTYLE_BEGIN
 90
        2
 91
        1
300
_HEADER
309
CELLSTYLE_END
300
CELLSTYLE
  1
TABLEFORMAT_BEGIN
 90
        5
170
     1
 91
        0
 92
        0
 62
   257
 93
        1
300
CONTENTFORMAT
  1
CONTENTFORMAT_BEGIN
 90
        0
 91
        0
 92
      512
 93
        0
300

 40
0.0
140
1.0
 94
        2
 62
     0
340
55
144
0.18
309
CONTENTFORMAT_END
171
     0
 94
        0
309
TABLEFORMAT_END
  1
CELLSTYLE_BEGIN
 90
        3
 91
        2
300
_DATA
309
CELLSTYLE_END
  0
ENDSEC
  0
EOF
