0
SECTION
2
HEADER
9
$INSUNITS
70
4
9
$ACADVER
1
AC1014
9
$HANDSEED
5
FFFF
0
ENDSEC
0
SECTION
2
TABLES
0
TABLE
2
VPORT
5
8
100
AcDbSymbolTable
0
ENDTAB
0
TABLE
2
LTYPE
5
5
100
AcDbSymbolTable
70
2
0
LTYPE
5
14
100
AcDbSymbolTableRecord
100
AcDbLinetypeTableRecord
2
BYBLOCK
70
0
0
LTYPE
5
15
100
AcDbSymbolTableRecord
100
AcDbLinetypeTableRecord
2
BYLAYER
70
0
0
ENDTAB
0
TABLE
2
LAYER
5
2
100
AcDbSymbolTable
70
3
0
LAYER
5
50
100
AcDbSymbolTableRecord
100
AcDbLayerTableRecord
2
0
70
0
6
CONTINUOUS
0
LAYER
5
51
100
AcDbSymbolTableRecord
100
AcDbLayerTableRecord
2
CUTOUTS
70
0
62
1
6
CONTINUOUS
0
LAYER
5
52
100
AcDbSymbolTableRecord
100
AcDbLayerTableRecord
2
PERIMETER
70
0
62
5
6
CONTINUOUS
0
ENDTAB
0
TABLE
2
STYLE
5
3
100
AcDbSymbolTable
70
1
0
STYLE
5
11
100
AcDbSymbolTableRecord
100
AcDbTextStyleTableRecord
2
STANDARD
70
0
0
ENDTAB
0
TABLE
2
VIEW
5
6
100
AcDbSymbolTable
0
ENDTAB
0
TABLE
2
UCS
5
7
100
AcDbSymbolTable
0
ENDTAB
0
TABLE
2
APPID
5
9
100
AcDbSymbolTable
70
1
0
APPID
5
12
100
AcDbSymbolTableRecord
100
AcDbRegAppTableRecord
2
ACAD
70
0
0
ENDTAB
0
TABLE
2
DIMSTYLE
5
A
100
AcDbSymbolTable
0
ENDTAB
0
TABLE
2
BLOCK_RECORD
5
1
100
AcDbSymbolTable
70
2
0
BLOCK_RECORD
5
1F
100
AcDbSymbolTableRecord
100
AcDbBlockTableRecord
2
*MODEL_SPACE
0
BLOCK_RECORD
5
1B
100
AcDbSymbolTableRecord
100
AcDbBlockTableRecord
2
*PAPER_SPACE
0
ENDTAB
0
ENDSEC
0
SECTION
2
BLOCKS
0
BLOCK
5
20
100
AcDbEntity
100
AcDbBlockBegin
2
*MODEL_SPACE
0
ENDBLK
5
21
100
AcDbEntity
100
AcDbBlockEnd
0
BLOCK
5
1C
100
AcDbEntity
100
AcDbBlockBegin
2
*PAPER_SPACE
0
ENDBLK
5
1D
100
AcDbEntity
100
AcDbBlockEnd
0
ENDSEC
0
SECTION
2
ENTITIES
0
CIRCLE
5
100
100
AcDbEntity
8
CUTOUTS
100
AcDbCircle
10
90.480000000000018
20
-18.230000000000008
30
4.4408920985006262e-15
40
1.5000000000000036
210
0
220
0
230
1
0
CIRCLE
5
101
100
AcDbEntity
8
CUTOUTS
100
AcDbCircle
10
90.480000000000018
20
47.420000000000016
30
-8.8817841970012523e-15
40
1.5000000000000036
210
0
220
0
230
1
0
CIRCLE
5
102
100
AcDbEntity
8
CUTOUTS
100
AcDbCircle
10
-90.480000000000018
20
47.420000000000037
30
-8.8817841970012523e-15
40
1.5000000000000036
210
0
220
0
230
1
0
CIRCLE
5
103
100
AcDbEntity
8
CUTOUTS
100
AcDbCircle
10
-90.480000000000018
20
-18.23
30
4.4408920985006262e-15
40
1.5000000000000036
210
0
220
0
230
1
0
CIRCLE
5
104
100
AcDbEntity
8
CUTOUTS
100
AcDbCircle
10
76.19999999999996
20
-54.132799999903078
30
8.8817841970012523e-15
40
1.5000000000000036
210
0
220
0
230
1
0
CIRCLE
5
105
100
AcDbEntity
8
CUTOUTS
100
AcDbCircle
10
-4.0323300254385686e-12
20
-54.132800000000493
30
8.8817841970012523e-15
40
6.1500000000000004
210
0
220
0
230
1
0
CIRCLE
5
106
100
AcDbEntity
8
CUTOUTS
100
AcDbCircle
10
-76.200000000000045
20
-54.132800000097923
30
8.8817841970012523e-15
40
1.5000000000000036
210
0
220
0
230
1
0
CIRCLE
5
107
100
AcDbEntity
8
CUTOUTS
100
AcDbCircle
10
-76.200000000000031
20
-66.09080000000003
30
1.3322676295501878e-14
40
1.5000000000000036
210
0
220
0
230
1
0
CIRCLE
5
108
100
AcDbEntity
8
CUTOUTS
100
AcDbCircle
10
-8.8817841970012523e-15
20
-66.090800000000002
30
1.3322676295501878e-14
40
1.5000000000000013
210
0
220
0
230
1
0
CIRCLE
5
109
100
AcDbEntity
8
CUTOUTS
100
AcDbCircle
10
-98.425000000000011
20
-38.099999999999994
30
6.6613381477509392e-15
40
1.5000000000000036
210
0
220
0
230
1
0
CIRCLE
5
10A
100
AcDbEntity
8
CUTOUTS
100
AcDbCircle
10
98.551999999999992
20
38.100000000000009
30
-6.6613381477509392e-15
40
1.5000000000000036
210
0
220
0
230
1
0
CIRCLE
5
10B
100
AcDbEntity
8
CUTOUTS
100
AcDbCircle
10
76.200000000000017
20
-66.090800000000002
30
1.3322676295501878e-14
40
1.5000000000000036
210
0
220
0
230
1
0
CIRCLE
5
10C
100
AcDbEntity
8
CUTOUTS
100
AcDbCircle
10
-98.425000000000011
20
38.100000000000009
30
-6.6613381477509392e-15
40
1.5000000000000036
210
0
220
0
230
1
0
CIRCLE
5
10D
100
AcDbEntity
8
CUTOUTS
100
AcDbCircle
10
98.551999999999978
20
-38.100000000000009
30
6.6613381477509392e-15
40
1.5000000000000036
210
0
220
0
230
1
0
ARC
5
10E
100
AcDbEntity
8
CUTOUTS
100
AcDbCircle
10
75.480000000026877
20
14.59499999999997
30
0
40
17.65000000000002
210
-0
220
0
230
1
100
AcDbArc
50
-51.406125990101962
51
51.406125990101948
0
LINE
5
10F
100
AcDbEntity
8
CUTOUTS
100
AcDbLine
10
86.489999999999938
20
64.269999999999982
30
0
11
86.489999999999938
21
28.390013591895915
31
0
0
LINE
5
110
100
AcDbEntity
8
CUTOUTS
100
AcDbLine
10
-83.510000000000005
20
64.269999999999982
30
0
11
86.489999999999924
21
64.269999999999982
31
0
0
LINE
5
111
100
AcDbEntity
8
CUTOUTS
100
AcDbLine
10
-83.509999999999991
20
-40.129999999999995
30
0
11
-83.510000000000005
21
64.269999999999982
31
0
0
LINE
5
112
100
AcDbEntity
8
CUTOUTS
100
AcDbLine
10
86.489999999999938
20
-40.129999999999995
30
0
11
-83.509999999999991
21
-40.129999999999995
31
0
0
LINE
5
113
100
AcDbEntity
8
CUTOUTS
100
AcDbLine
10
86.489999999999938
20
0.79998640810402977
30
0
11
86.489999999999938
21
-40.129999999999995
31
0
0
LINE
5
114
100
AcDbEntity
8
CUTOUTS
100
AcDbLine
10
32.200000000000017
20
-46.68279999995984
30
0
11
32.200000000000003
21
-61.582799999959832
31
0
0
LINE
5
115
100
AcDbEntity
8
CUTOUTS
100
AcDbLine
10
32.200000000000003
20
-61.582799999959825
30
0
11
16.000000000000014
21
-61.582799999959327
31
0
0
LINE
5
116
100
AcDbEntity
8
CUTOUTS
100
AcDbLine
10
16.000000000000014
20
-61.582799999959327
30
0
11
16.000000000000014
21
-46.682799999959329
31
0
0
LINE
5
117
100
AcDbEntity
8
CUTOUTS
100
AcDbLine
10
16.000000000000014
20
-46.682799999959343
30
0
11
32.200000000000017
21
-46.68279999995984
31
0
0
LINE
5
118
100
AcDbEntity
8
CUTOUTS
100
AcDbLine
10
-15.999999999999979
20
-46.682800000041674
30
0
11
-15.999999999999975
21
-61.582800000041672
31
0
0
LINE
5
119
100
AcDbEntity
8
CUTOUTS
100
AcDbLine
10
-15.999999999999979
20
-61.582800000041672
30
0
11
-32.199999999999982
21
-61.582800000041672
31
0
0
LINE
5
11A
100
AcDbEntity
8
CUTOUTS
100
AcDbLine
10
-32.199999999999989
20
-61.582800000041672
30
0
11
-32.199999999999989
21
-46.682800000041667
31
0
0
LINE
5
11B
100
AcDbEntity
8
CUTOUTS
100
AcDbLine
10
-32.199999999999989
20
-46.682800000041667
30
0
11
-15.999999999999988
21
-46.682800000041667
31
0
0
LINE
5
11C
100
AcDbEntity
8
CUTOUTS
100
AcDbLine
10
60.19999999999996
20
-46.682799999944244
30
0
11
60.19999999999996
21
-61.582799999944235
31
0
0
LINE
5
11D
100
AcDbEntity
8
CUTOUTS
100
AcDbLine
10
60.19999999999996
20
-61.582799999944235
30
0
11
43.99999999999995
21
-61.582799999944228
31
0
0
LINE
5
11E
100
AcDbEntity
8
CUTOUTS
100
AcDbLine
10
43.99999999999995
20
-61.582799999944228
30
0
11
43.99999999999995
21
-46.682799999944237
31
0
0
LINE
5
11F
100
AcDbEntity
8
CUTOUTS
100
AcDbLine
10
43.99999999999995
20
-46.682799999944244
30
0
11
60.19999999999996
21
-46.682799999944251
31
0
0
LINE
5
120
100
AcDbEntity
8
CUTOUTS
100
AcDbLine
10
-44.000000000000057
20
-46.682800000057263
30
0
11
-44.00000000000005
21
-61.582800000057262
31
0
0
LINE
5
121
100
AcDbEntity
8
CUTOUTS
100
AcDbLine
10
-44.000000000000057
20
-61.582800000057262
30
0
11
-60.20000000000006
21
-61.58280000005675
31
0
0
LINE
5
122
100
AcDbEntity
8
CUTOUTS
100
AcDbLine
10
-60.200000000000045
20
-61.58280000005675
30
0
11
-60.20000000000006
21
-46.682800000056766
31
0
0
LINE
5
123
100
AcDbEntity
8
CUTOUTS
100
AcDbLine
10
-60.200000000000067
20
-46.682800000056758
30
0
11
-44.000000000000064
21
-46.682800000057263
31
0
0
LINE
5
124
100
AcDbEntity
8
PERIMETER
100
AcDbLine
10
107.09999999999999
20
-71.000000000000028
30
0
11
107.09999999999999
21
70.999999999999972
31
0
0
ARC
5
125
100
AcDbEntity
8
PERIMETER
100
AcDbCircle
10
103.00000000000003
20
71.000000000000014
30
0
40
4.0999999999999659
210
-0
220
0
230
1
100
AcDbArc
50
0
51
90.000000000000597
0
LINE
5
126
100
AcDbEntity
8
PERIMETER
100
AcDbLine
10
102.99999999999999
20
75.09999999999998
30
0
11
-103.00000000000003
21
75.099999999999994
31
0
0
ARC
5
127
100
AcDbEntity
8
PERIMETER
100
AcDbCircle
10
-102.99999999999997
20
71
30
0
40
4.1000000000000014
210
0
220
0
230
1
100
AcDbArc
50
90.000000000000398
51
180
0
LINE
5
128
100
AcDbEntity
8
PERIMETER
100
AcDbLine
10
-107.10000000000001
20
71.000000000000014
30
0
11
-107.10000000000007
21
-71.000000000000014
31
0
0
ARC
5
129
100
AcDbEntity
8
PERIMETER
100
AcDbCircle
10
-103.00000000000004
20
-71.000000000000028
30
0
40
4.1000000000000014
210
0
220
0
230
1
100
AcDbArc
50
180
51
270
0
LINE
5
12A
100
AcDbEntity
8
PERIMETER
100
AcDbLine
10
-103.00000000000004
20
-75.100000000000023
30
0
11
102.99999999999997
21
-75.099999999999994
31
0
0
ARC
5
12B
100
AcDbEntity
8
PERIMETER
100
AcDbCircle
10
102.99999999999999
20
-70.999999999999986
30
0
40
4.1000000000000014
210
0
220
0
230
1
100
AcDbArc
50
269.99999999999983
51
360
0
ENDSEC
0
SECTION
2
OBJECTS
0
DICTIONARY
5
C
100
AcDbDictionary
3
ACAD_GROUP
350
D
3
ACAD_MLINESTYLE
350
17
0
DICTIONARY
5
D
100
AcDbDictionary
0
DICTIONARY
5
1A
330
C
100
AcDbDictionary
0
DICTIONARY
5
17
100
AcDbDictionary
0
ENDSEC
0
EOF
